<?xml version="1.0" standalone="no"?>
<!DOCTYPE svg PUBLIC "-//W3C//DTD SVG 1.1//EN" "http://www.w3.org/Graphics/SVG/1.1/DTD/svg11.dtd" >
<svg xmlns="http://www.w3.org/2000/svg">
<metadata></metadata>
<defs>
<font id="metablack-romanregular" horiz-adv-x="1095" >
<font-face units-per-em="2048" ascent="1638" descent="-410" />
<missing-glyph horiz-adv-x="460" />
<glyph horiz-adv-x="0" />
<glyph unicode="&#xd;" horiz-adv-x="1024" />
<glyph unicode=" "  horiz-adv-x="460" />
<glyph unicode="&#x09;" horiz-adv-x="460" />
<glyph unicode="&#xa0;" horiz-adv-x="460" />
<glyph unicode="!" horiz-adv-x="659" d="M123 1409l78 -989h266l70 1048zM135 164q0 -41 15.5 -78t41 -63.5t60.5 -42t76 -15.5q43 0 79.5 15.5t64.5 42t44 62.5t16 77q0 43 -15 80t-43 64.5t-63.5 43t-74.5 15.5q-86 0 -143.5 -57.5t-57.5 -143.5z" />
<glyph unicode="&#x22;" horiz-adv-x="1007" d="M82 815h334v635h-334v-635zM594 815h332v635h-332v-635z" />
<glyph unicode="#" horiz-adv-x="1118" d="M41 395h154l-56 -395h240l55 395h166l-55 -395h239l56 395h180v217h-154l31 228h180v217h-151l49 370h-240l-51 -370h-164l49 370h-239l-51 -370h-181v-217h154l-31 -228h-180v-217zM461 612l28 228h166l-28 -228h-166z" />
<glyph unicode="$" horiz-adv-x="1253" d="M41 104q88 -47 188.5 -79.5t223.5 -42.5v-154h217v152q119 12 215 51t164.5 104.5t105.5 155.5t37 207q0 106 -37 176.5t-93 113.5t-122 67t-123 38l-145 37q-80 20 -110 53t-30 68q0 43 37 72.5t109 29.5q74 0 162 -26.5t159 -73.5l177 260q-78 55 -183.5 90t-224.5 45 v166h-217v-170q-98 -16 -178 -55t-138.5 -99.5t-90 -138.5t-31.5 -170t25.5 -160.5t71.5 -118t109.5 -82t141.5 -53.5l168 -43q74 -18 108.5 -43.5t34.5 -72.5q0 -59 -45 -95.5t-156 -36.5t-217 35t-184 80z" />
<glyph unicode="%" horiz-adv-x="1697" d="M41 1094q0 -178 98.5 -265.5t259.5 -87.5q86 0 154 27t115 76t72.5 116.5t25.5 147.5q0 88 -26.5 152.5t-75 107.5t-114 64.5t-142.5 21.5q-80 0 -146.5 -26.5t-116 -74.5t-77 -115t-27.5 -144zM244 0h331l869 1427h-332zM324 1094q0 104 14 144t65 40q47 0 63.5 -38 t16.5 -136q0 -104 -16 -143t-64 -39q-49 0 -64 36.5t-15 135.5zM932 326q0 -178 98 -265.5t260 -87.5q86 0 153.5 27t115 76t73 116.5t25.5 147.5q0 88 -26.5 152.5t-75 107.5t-114 64.5t-143.5 21.5q-80 0 -146.5 -26.5t-115.5 -74.5t-76.5 -115t-27.5 -144zM1214 326 q0 104 14.5 144t65.5 40q47 0 63.5 -38t16.5 -136q0 -104 -16.5 -143t-63.5 -39q-49 0 -64.5 36.5t-15.5 135.5z" />
<glyph unicode="&#x26;" horiz-adv-x="1478" d="M61 365q0 -96 36 -170t98.5 -123t149.5 -74t190 -25q104 0 213.5 26t187.5 75l72 -74h471l-289 291q47 61 93 149t71 174l-283 82q-16 -49 -40.5 -105t-47.5 -91l-205 205q76 39 128 76.5t83 78.5t44.5 87t13.5 102q0 68 -31 128t-88.5 105t-139 70.5t-184.5 25.5 q-102 0 -186 -25.5t-143.5 -73.5t-92 -113.5t-32.5 -145.5q0 -98 39.5 -175t117.5 -126q-129 -57 -187.5 -150.5t-58.5 -203.5zM440 401q0 74 49 123l256 -260q-57 -33 -133 -33q-86 0 -129 51.5t-43 118.5zM518 1040q0 35 19.5 66t68.5 31q35 0 56.5 -27t21.5 -70 q0 -51 -27.5 -92t-56.5 -59l-43 51q-16 23 -27.5 43.5t-11.5 56.5z" />
<glyph unicode="'" horiz-adv-x="495" d="M82 815h332v635h-332v-635z" />
<glyph unicode="(" horiz-adv-x="669" d="M61 616q0 -66 3.5 -152.5t20.5 -182t52 -192.5t96.5 -184t156 -158t231.5 -112l90 211q-70 39 -124.5 91.5t-92 143.5t-57 230.5t-19.5 354.5q0 197 27.5 321.5t70.5 204.5t94.5 125t98.5 80l-95 217q-172 -76 -280.5 -181.5t-169 -233.5t-82 -275.5t-21.5 -307.5z" />
<glyph unicode=")" horiz-adv-x="667" d="M-41 -145l90 -220q170 76 278.5 175.5t170 227.5t85 287.5t23.5 354.5q0 176 -23.5 307t-63.5 226.5t-94 160t-115.5 109.5t-127 75.5t-129.5 57.5l-90 -213q86 -47 141.5 -112.5t89 -153.5t47 -202t13.5 -257q0 -156 -6 -273.5t-36 -213t-89.5 -176.5t-163.5 -160z" />
<glyph unicode="*" horiz-adv-x="1013" d="M41 1036l260 -92l-170 -211l209 -158l160 209l164 -223l217 156l-162 227l254 78l-76 246l-254 -82v268h-266v-268l-254 96z" />
<glyph unicode="+" horiz-adv-x="1452" d="M82 537h477v-488h334v488h477v323h-477v479h-334v-479h-477v-323z" />
<glyph unicode="," horiz-adv-x="598" d="M61 -180l144 -131q74 16 134 58t91 81q39 51 62.5 114.5t23.5 141.5q0 131 -62.5 204.5t-172.5 73.5q-86 0 -143.5 -54t-57.5 -140q0 -47 11 -82t46 -72q14 -16 27.5 -24t23 -16.5t14.5 -18.5t5 -29q0 -31 -38 -60.5t-108 -45.5z" />
<glyph unicode="-" horiz-adv-x="722" d="M82 424h559v293h-559v-293z" />
<glyph unicode="." horiz-adv-x="583" d="M82 174q0 -43 16.5 -82t45 -67.5t66.5 -45t81 -16.5t81 16.5t67.5 45t46 67.5t16.5 82t-16.5 80t-46 65.5t-67.5 45t-81 16.5t-81 -16.5t-66.5 -45t-45 -65.5t-16.5 -80z" />
<glyph unicode="/" horiz-adv-x="935" d="M61 -324h252l561 1899h-251z" />
<glyph unicode="0" horiz-adv-x="1134" d="M61 528q0 -123 36 -224t101.5 -175t158 -115t206.5 -41q111 0 205 43t161.5 118t105.5 179.5t38 227.5t-36 223t-102.5 172t-159.5 111.5t-206 39.5q-111 0 -204 -40.5t-160.5 -115.5t-105.5 -177.5t-38 -225.5zM453 520q0 63 3 121.5t15 102.5t35.5 70t64.5 26 q12 0 32 -6.5t36 -35t28.5 -87t12.5 -162.5q0 -66 -3 -124t-15.5 -103.5t-36 -72t-62.5 -26.5q-12 0 -31.5 7.5t-37 37t-29.5 89t-12 163.5z" />
<glyph unicode="1" horiz-adv-x="878" d="M31 770l92 -188q66 20 120 51t105 59v-426h-244v-266h723v266h-145v824h-225z" />
<glyph unicode="2" horiz-adv-x="1173" d="M61 885l232 -209q72 66 128 97.5t120 31.5q51 0 89 -27.5t38 -83.5q0 -51 -59.5 -106.5t-145.5 -108.5t-182.5 -100t-169.5 -80v-299h903l78 297l-289 -4q-47 0 -103 -4q-53 -2 -86 -8q109 45 193 87t139 94t84 118.5t29 162.5q0 74 -29 138.5t-86 112.5t-142 75t-198 27 q-166 0 -292 -53.5t-251 -157.5z" />
<glyph unicode="3" d="M41 -96l61 -273q41 -4 96.5 -7t96.5 -3q162 0 298 35t234.5 97.5t152.5 150t54 196.5q0 53 -13 103.5t-41 91.5t-69 71.5t-94 45.5q186 88 187 313q0 84 -35 152.5t-98.5 116.5t-151.5 75t-195 27q-88 0 -161.5 -15.5t-133 -39t-104.5 -49t-74 -46.5l158 -254 q53 53 119.5 82t154.5 29q57 0 92 -27.5t35 -75.5q0 -82 -43 -115.5t-161 -35.5q-35 0 -71 3t-69 7v-301q55 6 102.5 10t94.5 0q49 -4 78.5 -17t47 -31.5t22.5 -40t5 -40.5q0 -70 -32.5 -117t-93 -76.5t-142.5 -42t-180 -12.5q-59 0 -127 13z" />
<glyph unicode="4" horiz-adv-x="1132" d="M31 0h540q16 0 36 2t28 6q-2 -8 -3 -14t-1 -12v-373l358 24v289q0 29 -1 52.5t-3 29.5q16 -4 43 -4h74v307h-123q2 14 6 66.5t4 130.5v270l-319 -47l-19 -129q-14 -98 -17 -158.5t-3 -107.5q0 -20 2 -25q-4 2 -27 2h-184q-14 0 -16 -2q29 29 52 79t40 89l247 608h-354 l-360 -856v-227z" />
<glyph unicode="5" horiz-adv-x="1062" d="M61 -88l80 -277q35 -6 71 -10t87 -4q156 0 283 43t215 118t136 175t48 217q0 86 -29.5 160t-84 129t-127 86t-158.5 31q-37 0 -57.5 -1t-41.5 -6l23 195h377l53 309h-762l-61 -811q72 20 131 29.5t141 9.5q111 0 164 -44t53 -122q0 -117 -87 -183.5t-234 -66.5 q-57 0 -118 6.5t-102 16.5z" />
<glyph unicode="6" horiz-adv-x="1198" d="M61 522q0 -270 145.5 -414.5t409.5 -144.5q113 0 208.5 37t165 101.5t108.5 152.5t39 190q0 100 -30 183.5t-86 142.5t-137 92t-184 33q-80 0 -122.5 -12.5t-65.5 -28.5q25 74 68 130t104 101t142 81t184 71l-74 260q-227 -59 -392 -159.5t-272.5 -228.5t-159 -278.5 t-51.5 -308.5zM461 432q0 35 1 70t5 65q59 25 97 33t73 8q72 0 105.5 -49t33.5 -119q0 -98 -44 -152.5t-116 -54.5q-53 0 -83.5 23t-46 53.5t-20.5 64.5t-5 58z" />
<glyph unicode="7" horiz-adv-x="946" d="M20 766h431q35 0 53 6q-45 -76 -109.5 -189.5t-128 -264t-115 -337t-69.5 -407.5l387 92q2 121 31.5 246t73.5 243.5t95.5 225t98.5 190.5t82 140.5t45 74.5l31 291h-865z" />
<glyph unicode="8" horiz-adv-x="1267" d="M61 373q0 -68 25 -139.5t86 -129t165.5 -94.5t264.5 -37q283 0 443.5 108.5t160.5 311.5q0 145 -88 226t-223 116q113 20 184.5 96t71.5 193q0 92 -39 162.5t-108.5 119t-166 73t-210.5 24.5q-115 0 -211.5 -30t-168 -83t-111.5 -128t-40 -165q0 -123 52.5 -195.5 t123.5 -103.5q-106 -37 -158.5 -123t-52.5 -202zM461 1026q0 57 40 88t105 31q72 0 105.5 -31t33.5 -84q0 -47 -33.5 -84t-90.5 -63q-88 33 -124 58.5t-36 84.5zM463 395q0 16 3 38t11 44.5t22.5 43t37.5 34.5l141 -51q72 -27 99.5 -61t27.5 -89q0 -59 -45 -90t-115 -31 q-86 0 -134 41t-48 121z" />
<glyph unicode="9" horiz-adv-x="1167" d="M61 612q0 -123 35 -212t96.5 -147t143.5 -87t174 -29q80 0 143 33q-12 -31 -47 -79t-95 -99t-146 -102.5t-201 -88.5l184 -217q186 76 327.5 163t237 201.5t144.5 263t49 345.5q0 252 -125 400.5t-377 148.5q-123 0 -223 -37t-171 -102.5t-110 -156.5t-39 -198zM438 623 q0 98 37 149t109 51q133 0 133 -221q0 -41 -1 -79t-11 -74q-35 -25 -91 -25q-78 0 -127 56.5t-49 142.5z" />
<glyph unicode=":" horiz-adv-x="624" d="M102 174q0 -43 16.5 -82t45.5 -67.5t66.5 -45t80.5 -16.5t81 16.5t67.5 45t46 67.5t16.5 82t-16.5 80t-46 65.5t-67.5 45t-81 16.5t-80.5 -16.5t-66.5 -45t-45.5 -65.5t-16.5 -80zM102 754q0 -43 16.5 -82t45.5 -68t66.5 -45t80.5 -16t81 16t67.5 45t46 68t16.5 82 t-16.5 79.5t-46 65.5t-67.5 45.5t-81 16.5t-80.5 -16.5t-66.5 -45.5t-45.5 -65.5t-16.5 -79.5z" />
<glyph unicode=";" horiz-adv-x="659" d="M102 -180l144 -131q74 16 134 58t91 81q39 51 62.5 114.5t23.5 141.5q0 131 -62.5 204.5t-172.5 73.5q-86 0 -143.5 -54t-57.5 -140q0 -47 11 -82t46 -72q14 -16 27.5 -24t23 -16.5t14.5 -18.5t5 -29q0 -31 -38 -60.5t-108 -45.5zM125 754q0 -43 16.5 -82t45 -68 t66.5 -45t81 -16t81 16t67.5 45t46 68t16.5 82t-16.5 79.5t-46 65.5t-67.5 45.5t-81 16.5t-81 -16.5t-66.5 -45.5t-45 -65.5t-16.5 -79.5z" />
<glyph unicode="&#x3c;" horiz-adv-x="913" d="M82 612l493 -637l256 185l-344 452l344 449l-256 188z" />
<glyph unicode="=" horiz-adv-x="1323" d="M82 227h1159v332h-1159v-332zM82 682h1159v332h-1159v-332z" />
<glyph unicode="&#x3e;" horiz-adv-x="913" d="M82 160l256 -185l493 637l-493 637l-256 -188l344 -449z" />
<glyph unicode="?" horiz-adv-x="1015" d="M61 1292l158 -219q10 12 27.5 27.5t42 29t56.5 23.5t69 10q63 0 101 -24.5t38 -81.5q0 -47 -27.5 -78t-93.5 -78q-92 -66 -143 -148.5t-51 -207.5q0 -57 12 -125h299v45q0 51 7 94t26.5 81t54.5 73t90 67q86 51 136 130t50 196q0 88 -35.5 153.5t-95 109.5t-139.5 66.5 t-168 22.5q-141 0 -238.5 -47t-175.5 -119zM217 164q0 -41 15.5 -78t41 -63.5t60.5 -42t76 -15.5q43 0 79.5 15.5t64.5 42t44 62.5t16 77q0 43 -15 80t-43 64.5t-63.5 43t-74.5 15.5q-86 0 -143.5 -57.5t-57.5 -143.5z" />
<glyph unicode="@" horiz-adv-x="1824" d="M61 393q0 -197 62.5 -347t174.5 -250.5t264.5 -152t330.5 -51.5q88 0 176 17.5t180 46.5l-47 209q-78 -25 -152.5 -38t-156.5 -13q-115 0 -215 34.5t-174 107.5t-116 181.5t-42 255.5q0 143 47 270.5t128 222.5t186.5 150.5t222.5 55.5q125 0 226 -35t174 -102.5 t112 -166t39 -225.5q0 -96 -16.5 -173t-44 -129t-62.5 -79.5t-74 -27.5t-56.5 29.5t3.5 119.5l76 352q10 47 22 95.5t29 97.5q-78 41 -154 69.5t-155 28.5q-145 0 -256 -52t-187 -141t-114.5 -206t-38.5 -244q0 -156 76.5 -237.5t211.5 -81.5q86 0 159 36.5t128 92.5 q6 -31 19.5 -60.5t41 -51t72.5 -35t117 -13.5q100 0 188 45t154 126t104.5 192.5t38.5 246.5q0 164 -64.5 301t-177 236.5t-265 155t-326.5 55.5q-188 0 -348 -73t-276 -196.5t-180.5 -290.5t-64.5 -358zM719 295q0 82 17.5 164t54 146.5t96 104.5t143.5 40q31 -1 49 -9 l-71 -323q-12 -57 -39 -100.5t-58.5 -72t-65.5 -43t-61 -14.5q-33 0 -49 24t-16 83z" />
<glyph unicode="A" horiz-adv-x="1222" d="M-25 0h385l78 274h338l74 -274h397l-432 1427h-381zM518 557l57 234q18 72 27 129q8 53 12 94q2 -41 9 -94q8 -56 18 -103l61 -260h-184z" />
<glyph unicode="B" horiz-adv-x="1243" d="M123 0h579q123 0 213.5 31.5t149.5 90t88 139.5t29 179q0 63 -21.5 116.5t-57.5 94.5t-84 69t-99 42q59 18 99 52t64.5 76t35.5 90t11 97q0 98 -29.5 165t-79.5 109t-118.5 59t-146.5 17h-633v-1427zM489 305v283h136q43 0 68.5 -11.5t41 -30t20.5 -42.5t5 -51 q0 -66 -31 -107t-100 -41h-140zM489 879v247h142q66 0 94.5 -28.5t28.5 -83.5t-27 -95t-92 -40h-146z" />
<glyph unicode="C" horiz-adv-x="1136" d="M61 686q0 -154 39 -287t125 -227q98 -111 215 -154t252 -43q160 0 268.5 41.5t176.5 104.5l-158 250q-59 -53 -117.5 -74t-128.5 -21q-57 0 -102 25t-80 66q-23 25 -36 60.5t-21.5 85.5t-10.5 116.5t-2 154.5q0 61 4 108.5t15.5 84.5t29 65.5t43.5 55.5q29 29 71 42 t89 13q117 0 213 -76l156 271q-25 25 -64 43t-88 32.5t-103 21.5t-110 7q-190 0 -337.5 -78t-239.5 -246q-53 -98 -76 -202.5t-23 -239.5z" />
<glyph unicode="D" horiz-adv-x="1261" d="M123 0h518q145 0 237.5 45t159.5 127q96 115 129 258t33 309q0 221 -55 367.5t-178 232.5q-86 59 -176.5 73.5t-163.5 14.5h-504v-1427zM489 305v821h113q41 0 77 -12t61.5 -51t41 -112.5t15.5 -198.5q0 -147 -14.5 -236.5t-39 -135.5t-58.5 -60.5t-73 -14.5h-123z" />
<glyph unicode="E" horiz-adv-x="1019" d="M123 0h856v305h-490v291h357v291h-357v239h437l26 301h-829v-1427z" />
<glyph unicode="F" horiz-adv-x="888" d="M123 0h366v596h320v291h-322v239h396l26 301h-786v-1427z" />
<glyph unicode="G" horiz-adv-x="1345" d="M61 686q0 -147 32 -255.5t104 -211.5q92 -129 217 -186.5t305 -57.5q141 0 266 33t248 109v696h-582l41 -291h174v-225q-29 -12 -63.5 -16.5t-69.5 -4.5q-254 0 -254 424q0 240 62.5 346.5t208.5 106.5q82 0 157.5 -28t132.5 -83l203 228q-104 92 -230 136t-268 44 q-96 0 -170.5 -16.5t-154.5 -57.5q-178 -94 -268.5 -277.5t-90.5 -412.5z" />
<glyph unicode="H" horiz-adv-x="1271" d="M123 0h366v600h293v-600h367v1427h-367v-524h-293v524h-366v-1427z" />
<glyph unicode="I" horiz-adv-x="620" d="M123 0h375v1427h-375v-1427z" />
<glyph unicode="J" horiz-adv-x="624" d="M-61 -209l167 -180q76 27 147 71t126 105t89 139t34 170v1331h-375v-1175q0 -96 -5 -164t-23.5 -118t-56.5 -92t-103 -87z" />
<glyph unicode="K" horiz-adv-x="1294" d="M123 0h366v1427h-366v-1427zM494 768l358 -768h483l-446 774l375 653h-455z" />
<glyph unicode="L" horiz-adv-x="978" d="M123 0h786l70 303h-485v1124h-371v-1427z" />
<glyph unicode="M" horiz-adv-x="1746" d="M102 0h369l29 569q4 68 5 133.5t1 161.5h2q8 -96 19.5 -161.5t27.5 -124.5l152 -578h311l174 594q16 57 26.5 116.5t22.5 151.5h2q0 -92 3 -155.5t7 -131.5l35 -575h357l-132 1427h-434l-145 -544q-25 -84 -36 -146.5t-19 -144.5h-2q-10 86 -20.5 148.5t-27.5 121.5 l-139 565h-448z" />
<glyph unicode="N" horiz-adv-x="1312" d="M123 0h348v401q0 135 -7 228.5t-13 134.5q23 -70 52 -141.5t58 -126.5l252 -496h377v1427h-348v-520q0 -63 3 -128.5t9 -112.5q-27 72 -57.5 143.5t-61.5 128.5l-260 489h-352v-1427z" />
<glyph unicode="O" horiz-adv-x="1404" d="M61 678q0 -160 42 -290t124 -222t202 -141.5t276 -49.5q190 0 314 67t196.5 176.5t100 252.5t27.5 297q0 117 -29.5 238.5t-101 221t-192.5 162t-303 62.5q-141 0 -261 -49t-208 -147.5t-137.5 -243t-49.5 -334.5zM471 719q0 205 55.5 325.5t180.5 120.5q59 0 102 -19.5 t70.5 -68.5t41 -135t13.5 -219q0 -137 -13.5 -226t-40 -140.5t-69.5 -72t-100 -20.5t-101.5 19.5t-75 71t-47 139.5t-16.5 225z" />
<glyph unicode="P" horiz-adv-x="1183" d="M123 0h366v508h115q174 0 283.5 45t171 113.5t83 152.5t21.5 164q0 123 -39 207t-112.5 137t-181 76.5t-242.5 23.5h-465v-1427zM489 799v327h127q66 0 107 -26.5t41 -114.5q0 -59 -10.5 -95t-31 -56.5t-52 -27.5t-74.5 -7h-107z" />
<glyph unicode="Q" horiz-adv-x="1404" d="M61 705q0 -170 39 -305.5t122 -229.5t210 -144.5t303 -50.5q86 -25 147.5 -66.5t118 -82.5t120 -70.5t155.5 -29.5h51q10 0 21.5 1t21.5 3l90 235h-61q-59 0 -103.5 16.5t-80 37t-67.5 40t-69 25.5q51 35 99.5 89t85 135t58 193.5t21.5 266.5q0 156 -39.5 283t-119.5 216 t-197 137t-270 48q-141 0 -261 -49t-208 -144.5t-137.5 -234.5t-49.5 -319zM471 719q0 205 55.5 325.5t180.5 120.5q59 0 102 -19.5t70.5 -68.5t41 -135t13.5 -219q0 -137 -13.5 -226t-40 -140.5t-69.5 -72t-100 -20.5t-101.5 19.5t-75 71t-47 139.5t-16.5 225z" />
<glyph unicode="R" horiz-adv-x="1241" d="M123 0h366v565q31 0 52.5 -5t41 -22.5t37 -50t37.5 -88.5l150 -399h424q-18 39 -47 103.5t-60.5 133t-60.5 131t-47 99.5q-27 55 -67 99t-77 55q63 10 117.5 39.5t94.5 78.5t62.5 119t22.5 162q0 88 -27.5 164t-92 129t-171 83.5t-264.5 30.5h-491v-1427zM489 836v290 h103q86 0 128 -28.5t42 -106.5q0 -72 -37 -113.5t-131 -41.5h-105z" />
<glyph unicode="S" horiz-adv-x="1263" d="M51 104q111 -57 238 -93t289 -36q139 0 253.5 34t197.5 99.5t128 163t45 226.5q0 106 -37 176.5t-93 113.5t-121.5 67t-123.5 38l-145 37q-80 20 -109.5 53t-29.5 68q0 43 36.5 72.5t108.5 29.5q74 0 162 -26.5t160 -73.5l176 260q-98 66 -229.5 102.5t-280.5 36.5 q-121 0 -222.5 -34t-175 -95t-114.5 -148.5t-41 -193.5q0 -92 25.5 -160.5t71.5 -118t109.5 -82t141.5 -53.5l168 -43q74 -18 108.5 -43.5t34.5 -72.5q0 -59 -45 -95.5t-155 -36.5q-111 0 -217.5 35t-184.5 80z" />
<glyph unicode="T" horiz-adv-x="1056" d="M20 1124h332v-1124h371v1124h332l43 303h-1078v-303z" />
<glyph unicode="U" horiz-adv-x="1298" d="M113 457q0 -72 3 -117t11 -78t21.5 -56.5t33.5 -51.5q125 -178 467 -179q106 0 189.5 19.5t146 51.5t103 73t63.5 86q23 43 29 93t6 142v987h-367v-938q0 -104 -34.5 -158.5t-133.5 -54.5q-96 0 -133 60.5t-37 159.5v931h-368v-970z" />
<glyph unicode="V" horiz-adv-x="1236" d="M-41 1427l485 -1427h330l504 1427h-387l-203 -577q-20 -55 -39.5 -124t-36.5 -155h-2q-8 47 -16 83t-16.5 66t-16.5 58.5t-18 61.5l-181 587h-403z" />
<glyph unicode="W" horiz-adv-x="1777" d="M-10 1427l346 -1427h399l76 414q12 70 23.5 141.5t19.5 134.5l16 115q8 51 11 78h2q2 -35 9 -88.5t16.5 -117t20.5 -132t23 -131.5l74 -414h391l371 1427h-391l-72 -354q-10 -53 -22.5 -129t-24.5 -156.5t-21.5 -155.5t-11.5 -122h-2q-6 131 -23.5 244.5t-33.5 195.5 l-92 477h-408l-74 -395q-29 -160 -47 -299t-24 -225h-2q0 20 -4.5 61t-12.5 105.5t-24.5 156t-40.5 211.5l-80 385h-387z" />
<glyph unicode="X" horiz-adv-x="1196" d="M-41 0h465l186 401l183 -401h444l-424 764l385 663h-440l-150 -346l-151 346h-453l399 -686z" />
<glyph unicode="Y" horiz-adv-x="1148" d="M-61 1427l440 -831v-596h375v604l456 823h-436l-125 -309q-18 -45 -36.5 -93t-39.5 -99q-10 33 -18 57l-16 45q-6 23 -15.5 45.5t-21.5 50.5l-125 303h-438z" />
<glyph unicode="Z" horiz-adv-x="1105" d="M51 0h975l29 305h-410q-41 0 -86 -3t-70 -9q10 10 31 31.5t35 44.5l492 802v256h-926l-27 -301h371q39 0 82 3.5t63 11.5q-16 -14 -39.5 -51t-46.5 -74l-473 -766v-250z" />
<glyph unicode="[" horiz-adv-x="634" d="M123 -319h491v225h-180v1368h180v225h-491v-1818z" />
<glyph unicode="\" horiz-adv-x="907" d="M0 1479l612 -1610l295 102l-610 1610z" />
<glyph unicode="]" horiz-adv-x="636" d="M20 -94v-225h494v1818h-494v-225h181v-1368h-181z" />
<glyph unicode="^" horiz-adv-x="1282" d="M123 797h381l137 333l133 -333h385l-309 653h-418z" />
<glyph unicode="_" horiz-adv-x="1024" d="M0 -154v-102h1024v102h-1024z" />
<glyph unicode="`" horiz-adv-x="665" d="M41 1307l479 -197l105 180l-449 248z" />
<glyph unicode="a" horiz-adv-x="1056" d="M51 317q0 -72 19.5 -134t63.5 -108t112.5 -74t167.5 -28q94 0 159.5 28t104.5 60q12 -25 52 -58.5t79 -45.5l205 199q-55 35 -68.5 88t-13.5 118l4 365q0 59 -3 94t-13 70q-29 94 -128.5 143t-252.5 49q-131 0 -254 -45t-222 -104l130 -221q68 51 138 80.5t163 29.5 q59 0 72.5 -25.5t13.5 -72.5v-66q-6 2 -29 3h-31q-111 0 -197.5 -26t-147 -72t-92.5 -108.5t-32 -138.5zM397 322q0 23 7.5 44t28 38.5t56.5 26.5q29 7 72 7h19v-184q-10 -12 -36 -23.5t-48 -11.5q-47 0 -73 27.5t-26 75.5z" />
<glyph unicode="b" horiz-adv-x="1134" d="M96 1444q16 -70 21.5 -134.5t5.5 -158.5v-948q0 -70 -4 -119t-21 -84h305q16 27 21 66q33 -39 85 -66t124 -27q66 0 121 17.5t114 64.5q104 82 154.5 211t50.5 289q0 133 -30.5 232.5t-85 165t-131 98t-169.5 32.5q-70 0 -116.5 -19.5t-69.5 -39.5q4 12 6 49t2 68v162 q0 53 -7 108t-15 94zM479 303v442q10 14 30.5 33t61.5 19q31 0 53.5 -11.5t38 -41t22.5 -79.5t7 -128q0 -147 -28.5 -208t-96.5 -61q-35 0 -54 11.5t-34 23.5z" />
<glyph unicode="c" horiz-adv-x="940" d="M61 518q0 -268 129 -406.5t351 -138.5q98 0 195.5 32t183.5 118l-150 209q-37 -41 -86 -67.5t-109 -26.5q-78 0 -101 70.5t-23 232.5q0 88 8 143t24.5 86t41 41t55.5 10q37 0 77.5 -22.5t71.5 -55.5l164 215q-78 66 -152.5 95.5t-173.5 29.5q-242 0 -374 -147.5 t-132 -417.5z" />
<glyph unicode="d" horiz-adv-x="1124" d="M61 508q0 -256 110 -395.5t314 -139.5q80 0 136.5 23.5t93.5 66.5q2 -14 5 -29.5t11 -33.5h309q-12 31 -19 62.5t-12 77.5t-6.5 112.5t-1.5 167.5v1032l-356 47v-285q0 -41 4 -93t8 -74q-23 14 -62.5 25t-78.5 11q-117 0 -203 -46t-142 -124.5t-83 -183t-27 -221.5z M449 502q0 90 6 149.5t19 94t37 49t58 14.5q25 0 46.5 -12.5t29.5 -28.5v-492q-10 -14 -29.5 -24t-48.5 -10q-39 0 -62.5 19.5t-35.5 54t-16 81.5t-4 105z" />
<glyph unicode="e" horiz-adv-x="1071" d="M61 522q0 -260 133.5 -404.5t391.5 -144.5q119 0 221 35t209 117l-137 205q-137 -106 -279 -107q-55 0 -89 20.5t-51.5 51.5t-23.5 63.5t-6 57.5h590v88q0 135 -26.5 242.5t-85 182.5t-148.5 114.5t-217 39.5q-227 0 -354.5 -149.5t-127.5 -411.5zM430 647 q0 106 34 147.5t91 41.5q65 0 91 -50q22 -44 23 -116q0 -11 -1 -23h-238z" />
<glyph unicode="f" horiz-adv-x="686" d="M33 823h90v-823h356v823h176l47 234h-223v139q0 35 24.5 55.5t57.5 20.5q29 0 57 -7.5t46 -17.5l84 223q-59 33 -120 44.5t-143 11.5q-49 0 -113.5 -10.5t-120.5 -46t-95 -103.5t-39 -182q0 -31 1 -65t5 -62h-90v-234z" />
<glyph unicode="g" horiz-adv-x="1148" d="M61 -137q0 -53 27 -103.5t85 -89.5t149.5 -62.5t222.5 -23.5q147 0 255.5 32t179.5 87t104.5 131t33.5 166q0 141 -98 223t-289 82h-153q-41 0 -68 8.5t-27 24.5q0 10 6.5 18.5t16.5 18.5h115q86 0 164.5 22.5t139 64.5t95.5 102.5t35 135.5q0 47 -19.5 83t-31.5 46 q17 -6 37 -6q22 0 47 7q46 14 75 30l-96 248q-35 -29 -80 -49.5t-102 -20.5q-37 0 -65.5 7.5t-62.5 15.5t-78 15t-112 7q-111 0 -199.5 -25.5t-152 -72.5t-97.5 -114.5t-34 -149.5q0 -190 152 -268q-66 -29 -99 -85.5t-33 -111.5q0 -100 74 -152.5t203 -52.5h186q57 0 94 -3 t58.5 -13t31 -27.5t9.5 -46.5q0 -47 -47 -81t-142 -34q-178 0 -178 91v47q0 8 2 16h-319q-6 -29 -10.5 -65.5t-4.5 -71.5zM442 721q0 121 123 121q125 0 125 -121q0 -61 -33.5 -89t-93.5 -28q-121 0 -121 117z" />
<glyph unicode="h" horiz-adv-x="1163" d="M96 1444q8 -27 13.5 -60.5t8.5 -69.5t4 -70t1 -62v-1182h356v739q23 23 56.5 44.5t68.5 21.5q29 0 45.5 -5t23.5 -17.5t9 -34t2 -54.5v-694h356v774q0 96 -26.5 156.5t-70.5 94.5t-101.5 46t-118.5 12q-86 0 -145.5 -21.5t-100.5 -57.5q0 16 1 34.5t1 51.5v167 q0 66 -5 129.5t-17 118.5z" />
<glyph unicode="i" horiz-adv-x="602" d="M96 1335q0 -41 16.5 -77.5t44 -64.5t64.5 -43t78 -15q43 0 81 15t65.5 43t44 64.5t16.5 77.5q0 43 -15.5 79t-42 63.5t-63.5 43t-80 15.5t-81 -15.5t-66.5 -43t-45 -64.5t-16.5 -78zM123 0h356v1073l-356 -33v-1040z" />
<glyph unicode="j" horiz-adv-x="602" d="M6 -297l141 -184q96 41 161 85t103 102t53 137t15 192v1038l-356 -33v-1030q0 -61 -6 -107t-20.5 -82t-37 -64.5t-53.5 -53.5zM86 1335q0 -41 16.5 -77.5t44 -64.5t64.5 -43t78 -15q43 0 81 15t65.5 43t44 64.5t16.5 77.5q0 43 -15.5 79t-42 63.5t-63.5 43t-80 15.5 t-81 -15.5t-66.5 -43t-45 -64.5t-16.5 -78z" />
<glyph unicode="k" horiz-adv-x="1132" d="M102 1444q12 -49 16.5 -129t4.5 -185v-1130h356v1133q0 76 -1 132t-4 99t-7 77t-10 64zM481 598l273 -598h399l-356 627l288 430h-417z" />
<glyph unicode="l" horiz-adv-x="622" d="M111 1446q10 -45 11 -121t1 -158v-827q0 -80 6 -146.5t35 -115.5t91 -77t175 -28q74 0 134 9.5t95 23.5l-57 221q-18 -6 -37 -6q-31 0 -47 10.5t-25.5 37t-11.5 71.5t-2 117v784q0 82 -4 149.5t-12 114.5z" />
<glyph unicode="m" horiz-adv-x="1644" d="M90 1026q20 -86 26.5 -171t6.5 -183v-672h346v768q23 16 56.5 28.5t58.5 12.5t39 -4t21 -20.5t9 -47t2 -82.5v-655h334v762q29 16 63.5 28.5t51.5 12.5q23 0 38 -3t23.5 -18.5t11.5 -45t3 -83.5v-653h342v770q0 98 -24.5 159.5t-64.5 95.5t-91.5 46t-106.5 12 q-92 0 -166 -28.5t-137 -85.5q-41 51 -96.5 82.5t-141.5 31.5q-68 0 -134 -27.5t-122 -76.5q-2 29 -7 51.5t-13 50.5z" />
<glyph unicode="n" horiz-adv-x="1163" d="M90 1026q20 -86 26.5 -171t6.5 -183v-672h356v729q37 33 66.5 47.5t50.5 14.5q18 0 34.5 -2.5t29 -12.5t18.5 -33.5t6 -66.5v-676h356v793q0 55 -11 107t-44 93t-91 65.5t-151 24.5q-104 0 -177.5 -30.5t-127.5 -69.5q-2 25 -8 52.5t-12 45.5z" />
<glyph unicode="o" d="M51 524q0 -266 130 -408.5t360 -142.5q94 0 185 32t161.5 102.5t113.5 180t43 267.5q0 141 -38.5 241.5t-105 164t-154 93t-185.5 29.5q-117 0 -211 -41t-160.5 -114.5t-102.5 -177t-36 -226.5zM436 518q0 98 7.5 159.5t20.5 97.5t33.5 48.5t49.5 12.5q31 0 52.5 -12.5 t34.5 -43t19 -83t6 -132.5q0 -188 -23.5 -265t-86.5 -77q-76 0 -94.5 71t-18.5 224z" />
<glyph unicode="p" horiz-adv-x="1138" d="M90 1026q20 -86 26.5 -171t6.5 -183v-1139l356 96v217q0 66 -4 103t-12 59q76 -35 166 -35q213 0 330.5 150t117.5 459q0 74 -13 161.5t-56 162.5t-126 126t-220 51q-39 0 -75 -9t-65.5 -22.5t-51 -30.5t-30.5 -34q-6 45 -22 94zM479 283v473q14 23 41 38t70 15 q70 0 88 -66.5t18 -191.5q0 -104 -11 -163.5t-31.5 -89.5t-48 -37t-58.5 -7q-57 0 -68 29z" />
<glyph unicode="q" horiz-adv-x="1130" d="M61 526q0 -266 101.5 -409.5t312.5 -143.5q70 0 116 13.5t68 29.5q-8 -41 -8 -104v-393l357 94v1118q0 135 4 209t14 117h-309q-12 -35 -19 -76q-25 45 -76 73.5t-122 28.5q-82 0 -161 -36.5t-140.5 -107.5t-99.5 -174t-38 -239zM442 537q0 88 10.5 139t29 75.5t42 30.5 t49.5 6q33 0 50.5 -11t27.5 -29v-439q-6 -12 -28.5 -31.5t-59.5 -19.5q-78 0 -99.5 68.5t-21.5 210.5z" />
<glyph unicode="r" horiz-adv-x="770" d="M90 1026q23 -86 28 -182t5 -201v-643h356v723q18 33 48 54.5t77 21.5q31 0 53.5 -6.5t51.5 -22.5l82 287q-37 16 -66 23t-68 7q-43 0 -75.5 -12t-58 -31.5t-46 -43t-37.5 -44.5q0 33 -7 65t-15 60z" />
<glyph unicode="s" horiz-adv-x="1042" d="M41 106q123 -63 232.5 -98t226.5 -35q111 0 201 27t154.5 76t100 118.5t35.5 155.5q0 125 -60.5 202t-201.5 107l-131 29q-66 14 -88.5 34.5t-22.5 49.5q0 27 26 43t67 16q53 0 117.5 -18t142.5 -59l110 221q-39 16 -80 35.5t-90 36t-109.5 26.5t-138.5 10 q-98 0 -179 -25.5t-137 -72.5t-87 -113.5t-31 -148.5q0 -113 59.5 -187.5t188.5 -101.5l137 -28q78 -16 109 -35t31 -62q0 -29 -32 -54.5t-79 -25.5q-39 0 -88 15.5t-98.5 37t-92.5 44t-67 39.5z" />
<glyph unicode="t" horiz-adv-x="763" d="M57 823h86v-596q0 -78 23.5 -127t68 -77.5t105.5 -40t135 -11.5q66 0 133 14.5t135 47.5l-43 205q-35 -20 -90 -21q-35 0 -56.5 7t-33.5 27.5t-16 55.5t-4 90v426h147l47 234h-194v151q0 39 3 80t7 84l-354 -53q-8 -53 -10.5 -118.5t-2.5 -143.5h-86v-234z" />
<glyph unicode="u" horiz-adv-x="1153" d="M113 414q0 -104 4 -159.5t16 -96.5q29 -92 106.5 -138.5t225.5 -46.5q86 0 151.5 28t112.5 69q6 -16 16.5 -45t28.5 -52l309 111q-23 41 -38 99.5t-15 140.5v761l-356 -57v-735q-23 -25 -53.5 -39t-57.5 -14q-47 0 -70.5 15t-23.5 64v766l-356 -57v-614z" />
<glyph unicode="v" horiz-adv-x="966" d="M-41 1036l391 -1036h275l383 1057h-365l-80 -279q-23 -78 -41 -164t-28 -163h-5q-18 86 -39.5 172t-35.5 133l-95 315z" />
<glyph unicode="w" horiz-adv-x="1472" d="M-10 1032l291 -1032h313l90 385q23 92 33 158t16 121q4 -49 15 -121q10 -74 26 -148l86 -395h318l305 1057h-361l-49 -299q-16 -98 -26.5 -186.5t-18.5 -176.5h-2q-8 78 -20.5 148.5t-26.5 134.5l-84 379h-317l-66 -291q-23 -104 -41 -200.5t-25 -176.5h-2 q-10 92 -25.5 184.5t-27.5 169.5l-53 328z" />
<glyph unicode="x" horiz-adv-x="1069" d="M-41 0h436l64 111q59 104 71 172h5q2 -16 18 -55.5t29 -63.5l75 -164h453l-358 561l317 496h-418l-47 -90q-25 -47 -38 -99.5t-15 -74.5h-2q-10 41 -26.5 84t-37.5 77l-79 140l-386 -74l304 -469z" />
<glyph unicode="y" horiz-adv-x="1105" d="M-20 1047l262 -775q23 -61 44 -139t31 -133h99q-31 -61 -60.5 -102t-68.5 -69t-93.5 -47.5t-134.5 -37.5l125 -229q125 10 209 42.5t142.5 91t101.5 145.5t88 204l401 1059h-360l-141 -426q-25 -72 -43.5 -159t-28.5 -169h-2q-16 111 -49 217l-158 553z" />
<glyph unicode="z" horiz-adv-x="958" d="M51 0h823l33 260h-422l404 543v254h-823v-254h397l-412 -563v-240z" />
<glyph unicode="{" horiz-adv-x="636" d="M20 455q37 0 64 -4.5t43 -17.5t23.5 -37.5t7.5 -67.5v-320q0 -92 21.5 -154.5t61.5 -100.5t94 -55t120 -17h161v309h-47q-31 0 -50 11t-29.5 28.5t-14.5 36t-4 32.5v316q0 63 -18.5 99t-43 52.5t-49 19.5t-38.5 3v4q14 0 38.5 2t49 18.5t43 53t18.5 106.5v309q0 14 3 33 t12.5 35t29 28.5t53.5 12.5h47v309h-161q-141 0 -219 -70.5t-78 -254.5v-322q0 -72 -28 -97.5t-110 -25.5v-274z" />
<glyph unicode="|" horiz-adv-x="585" d="M123 -426h340v1974h-340v-1974z" />
<glyph unicode="}" horiz-adv-x="636" d="M20 -10v-309h162q66 0 120 17t94 55t61.5 100.5t21.5 154.5v320q0 43 7.5 67.5t23.5 37.5t41.5 17.5t64.5 4.5v274q-82 0 -109.5 25.5t-27.5 97.5v322q0 184 -77.5 254.5t-219.5 70.5h-162v-309h48q33 0 53 -12.5t29.5 -28.5t12.5 -34.5t3 -33.5v-309q0 -70 18.5 -106.5 t43 -53t49 -18.5t38.5 -2v-4q-14 0 -38.5 -3t-49 -19.5t-43 -52.5t-18.5 -99v-316q0 -14 -4 -32.5t-14.5 -36t-30 -28.5t-49.5 -11h-48z" />
<glyph unicode="~" horiz-adv-x="1204" d="M123 752l78 -316q45 39 88 57.5t100 18.5q55 0 99 -18.5t91.5 -41t103.5 -41t136 -18.5q176 0 262 115l-69 319q-37 -45 -89.5 -69.5t-109.5 -24.5q-61 0 -111.5 18.5t-98.5 40t-100 40t-122 18.5q-98 0 -159.5 -32t-98.5 -66z" />
<glyph unicode="&#xa1;" horiz-adv-x="659" d="M123 -426l414 59l-78 990h-266zM127 881q0 -43 15.5 -80t43 -64.5t62.5 -43t76 -15.5q86 0 143 57.5t57 143.5q0 41 -15 77.5t-41 63.5t-61.5 42t-74.5 15q-43 0 -80 -15t-64.5 -42t-44 -62.5t-16.5 -76.5z" />
<glyph unicode="&#xa2;" horiz-adv-x="940" d="M61 518q0 -233 95.5 -365.5t261.5 -166.5v-254h254v256q66 14 128.5 46t119.5 89l-150 209q-37 -41 -86 -67.5t-109 -26.5q-78 0 -101 70.5t-23 232.5q0 88 8 143t24.5 86t41 41t55.5 10q37 0 77.5 -22.5t71.5 -55.5l164 215q-55 47 -108.5 75t-112.5 40v240h-254v-248 q-174 -43 -265.5 -183.5t-91.5 -363.5z" />
<glyph unicode="&#xa3;" horiz-adv-x="1132" d="M61 0h1037v270h-496v344h293v258h-293v127q0 31 9.5 58.5t31 50t56 36t87.5 13.5q41 0 87 -13t85 -42l195 256q-88 63 -183.5 85.5t-211.5 22.5q-158 0 -264.5 -43t-171 -110.5t-92 -149.5t-27.5 -157v-134h-142v-258h142v-344h-142v-270z" />
<glyph unicode="&#xa4;" horiz-adv-x="915" d="M109 178l127 -84l83 131q63 -23 132 -22q82 0 135 20l84 -129l131 84l-92 133q39 43 55 98.5t16 133.5q0 104 -27.5 171.5t-60.5 90.5l86 129l-131 82l-76 -133q-55 20 -122 20q-59 0 -119 -16l-78 129l-139 -82l90 -129q-82 -90 -82 -250q0 -154 76 -244zM260 571 q0 104 41 162t145 58q115 0 156 -69t41 -187q0 -106 -44 -163t-142 -57q-104 0 -150.5 60.5t-46.5 195.5z" />
<glyph unicode="&#xa5;" horiz-adv-x="1230" d="M-20 1427l294 -557h-168v-272h312l2 -117h-314v-272h314v-209h375v209h311v272h-311v117h311v272h-164l309 557h-436l-125 -309q-18 -45 -36.5 -93t-39.5 -99q-10 33 -18 57l-16 45q-6 23 -15.5 45.5t-21.5 50.5l-125 303h-438z" />
<glyph unicode="&#xa6;" horiz-adv-x="585" d="M123 -426h340v889h-340v-889zM123 659h340v889h-340v-889z" />
<glyph unicode="&#xa7;" horiz-adv-x="1257" d="M61 -37q43 -90 100.5 -148.5t126 -93t145.5 -49t159 -14.5q90 0 186 22.5t176 71.5t131.5 125t51.5 180q0 127 -88 226q66 45 106.5 114.5t40.5 147.5q0 72 -28.5 127t-76 98t-108.5 76t-125 59l-205 84q-41 16 -68.5 37t-27.5 51q0 35 29.5 49.5t62.5 14.5q49 0 93 -30 t75 -107l334 184q-41 80 -99.5 131t-127 81t-143 42t-144.5 12q-84 0 -170 -22.5t-155.5 -68.5t-112.5 -115.5t-43 -164.5q0 -66 26.5 -124t73.5 -99q-72 -53 -111 -123.5t-39 -169.5q0 -96 59.5 -188t186.5 -146l164 -67q39 -16 76 -29.5t65.5 -28t47 -32t18.5 -41.5 q0 -23 -12.5 -35t-30.5 -18.5t-40 -8.5t-40 -2q-29 0 -57.5 7.5t-56 23.5t-49 46t-34.5 77zM471 623q0 45 35 69l215 -96q37 -16 73.5 -39t36.5 -68q0 -49 -32 -73l-189 82q-23 10 -47 20t-44.5 23.5t-34 33t-13.5 48.5z" />
<glyph unicode="&#xa8;" horiz-adv-x="894" d="M41 1331q0 -35 14.5 -65.5t40 -53t58 -36t69.5 -13.5q72 0 124 48t52 120q0 37 -14 68t-40 54.5t-59.5 36.5t-70.5 13q-35 0 -66.5 -13t-55 -36.5t-38 -54.5t-14.5 -68zM498 1331q0 -72 52 -120t128 -48q37 0 68.5 13.5t55 36t38 53t14.5 65.5q0 72 -53 122t-131 50 q-72 0 -122 -50t-50 -122z" />
<glyph unicode="&#xa9;" horiz-adv-x="1646" d="M61 725q0 -154 59.5 -292t163 -242.5t243 -166t296.5 -61.5q160 0 298.5 61.5t241.5 166t162.5 242.5t59.5 292t-59.5 292t-162.5 242.5t-241.5 166t-298.5 61.5q-158 0 -297 -61.5t-242.5 -166t-163 -242.5t-59.5 -292zM319 725q0 106 40 201.5t109 168t161 115.5 t194 43q104 0 195.5 -43t160 -115.5t108.5 -168t40 -201.5t-40 -201.5t-108.5 -168t-159.5 -115.5t-196 -43q-102 0 -194 43t-161 115.5t-109 167.5t-40 202zM453 707q0 -98 30.5 -170t81.5 -118t118 -68.5t140 -22.5q86 0 149.5 27.5t129.5 84.5l-129 162q-55 -61 -125 -61 q-74 0 -91.5 49t-17.5 162q0 86 19.5 120.5t83.5 34.5q31 0 58.5 -11t62.5 -40l118 174q-51 43 -114.5 63.5t-128.5 20.5q-86 0 -158 -28.5t-122 -82t-77.5 -129t-27.5 -167.5z" />
<glyph unicode="&#xaa;" horiz-adv-x="901" d="M41 451h819v217h-819v-217zM74 1004q0 -123 74.5 -193t211.5 -70q70 0 116 20.5t81 55.5q33 -47 105 -82l147 148q-27 20 -42 37.5t-24.5 38t-12.5 45t-3 59.5l2 309q0 66 -26.5 108t-67.5 66.5t-92 33.5t-103 9q-61 0 -117.5 -14t-103.5 -32.5t-82 -38t-53 -29.5 l106 -185q70 47 122.5 66.5t93.5 19.5q45 0 57 -13t12 -63v-30h-39q-106 0 -176 -22.5t-112 -59.5t-58 -85t-16 -99zM352 1018q0 35 22.5 57.5t98.5 22.5l-2 -127q-16 -29 -55 -29q-63 0 -64 76z" />
<glyph unicode="&#xab;" horiz-adv-x="1239" d="M41 522l348 -506l236 158l-236 348l236 348l-236 160zM614 522l349 -506l235 158l-235 348l235 348l-235 160z" />
<glyph unicode="&#xac;" horiz-adv-x="1181" d="M102 379h652v-287h325v563h-977v-276z" />
<glyph unicode="&#xad;" horiz-adv-x="722" d="M82 424h559v293h-559v-293z" />
<glyph unicode="&#xae;" horiz-adv-x="1646" d="M61 725q0 -154 59.5 -292t163 -242.5t243 -166t296.5 -61.5q160 0 298.5 61.5t241.5 166t162.5 242.5t59.5 292t-59.5 292t-162.5 242.5t-241.5 166t-298.5 61.5q-158 0 -297 -61.5t-242.5 -166t-163 -242.5t-59.5 -292zM319 725q0 106 40 201.5t109 168t161 115.5 t194 43q104 0 195.5 -43t160 -115.5t108.5 -168t40 -201.5t-40 -201.5t-108.5 -168t-159.5 -115.5t-196 -43q-102 0 -194 43t-161 115.5t-109 167.5t-40 202zM526 373h242v266h8q27 0 45 -33q10 -18 19.5 -47t17.5 -61l16 -66q9 -32 17 -59h266l-57 172q-27 78 -53.5 103.5 t-67.5 33.5q57 14 102 64.5t45 150.5q0 53 -19.5 93t-52 67.5t-75.5 41t-88 13.5h-365v-739zM768 821v103h45q45 -1 45 -52t-45 -51h-45z" />
<glyph unicode="&#xaf;" horiz-adv-x="782" d="M41 1339h700v195h-700v-195z" />
<glyph unicode="&#xb0;" horiz-adv-x="847" d="M61 1114q0 -176 98.5 -254t260.5 -78q174 0 270 92t96 254q0 88 -26.5 149.5t-74.5 100.5t-113.5 57.5t-143.5 18.5q-80 0 -146.5 -23.5t-115.5 -67.5t-77 -107.5t-28 -141.5zM344 1114q0 96 15.5 130t64.5 34q47 0 63.5 -33t16.5 -121q0 -96 -17.5 -128.5t-62.5 -32.5 q-43 0 -61.5 30.5t-18.5 120.5z" />
<glyph unicode="&#xb1;" horiz-adv-x="1101" d="M82 565h307v-297h324v297h307v289h-307v287h-324v-287h-307v-289zM86 -49h930v274h-930v-274z" />
<glyph unicode="&#xb2;" horiz-adv-x="757" d="M41 1219l170 -148q53 47 85 63.5t64 16.5q55 0 56 -55q0 -53 -23.5 -90t-66.5 -88q-49 -59 -114 -118t-130 -112v-176h577l58 209h-273q-6 0 -15 -1t-15 -1q55 37 105 79t89 90t61.5 101t22.5 113q0 113 -75.5 184.5t-219.5 71.5q-104 0 -185 -34t-171 -105z" />
<glyph unicode="&#xb3;" horiz-adv-x="724" d="M41 676l47 -199q35 -4 71 -6t62 -2q98 0 183 20.5t146.5 58.5t97.5 93t36 123q0 57 -24.5 106.5t-77.5 75.5q84 59 84 176q0 55 -24 98.5t-64.5 73t-97 45t-122.5 15.5q-111 0 -187.5 -33t-123.5 -68l119 -182q41 41 80 58.5t88 17.5q29 0 42 -13.5t13 -29.5 q0 -35 -18.5 -54.5t-83.5 -19.5q-20 0 -44 2t-61 6v-207q35 4 52.5 5.5t31.5 3.5h39q23 0 42.5 -4.5t32.5 -15.5t13 -34q0 -123 -248 -122q-16 0 -39.5 2t-64.5 10z" />
<glyph unicode="&#xb4;" horiz-adv-x="667" d="M41 1290l113 -180l473 197l-140 231z" />
<glyph unicode="&#xb6;" horiz-adv-x="1234" d="M41 1065q0 -174 107.5 -270.5t343.5 -96.5v-956h239v1501h141v-1501h240v1685h-586q-106 0 -195 -17t-153.5 -58t-100.5 -112t-36 -175z" />
<glyph unicode="&#xb7;" horiz-adv-x="632" d="M102 555q0 -45 16.5 -84t44 -68.5t66.5 -46t82 -16.5q45 0 86 16.5t70 46t46 67.5t17 81q0 45 -16 85t-45 70.5t-66.5 48t-83.5 17.5q-45 0 -84.5 -17.5t-68.5 -47t-46.5 -69.5t-17.5 -83z" />
<glyph unicode="&#xb8;" horiz-adv-x="591" d="M82 -369q33 -16 83 -28.5t97 -12.5q70 0 117 18.5t75.5 48.5t42 67.5t13.5 74.5q0 59 -42 101.5t-116 48.5l33 71l-162 21l-55 -176l20 -35q10 2 24.5 3t33.5 1q68 0 67 -49q0 -49 -67 -49q-49 0 -99 22z" />
<glyph unicode="&#xb9;" horiz-adv-x="630" d="M41 1147l70 -137q35 10 64.5 24.5t60.5 30.5v-363h-146v-190h500v190h-113v641h-162z" />
<glyph unicode="&#xba;" horiz-adv-x="901" d="M41 451h819v217h-819v-217zM55 1163q0 -96 29 -174t80 -133t123.5 -85t161.5 -30q106 0 183 37t124 97.5t69.5 136t22.5 155.5q0 125 -38 207t-97.5 129t-130 66.5t-133.5 19.5q-88 0 -160 -30.5t-124 -87t-81 -135.5t-29 -173zM371 1167q0 104 19.5 149.5t62.5 45.5 q18 0 33.5 -7t26.5 -28.5t16.5 -59t5.5 -98.5q0 -106 -19.5 -154t-54.5 -48q-51 0 -70.5 48t-19.5 152z" />
<glyph unicode="&#xbb;" horiz-adv-x="1239" d="M41 174l235 -158l349 506l-349 508l-235 -160l235 -348zM614 174l236 -158l348 506l-348 508l-236 -160l236 -348z" />
<glyph unicode="&#xbc;" horiz-adv-x="1992" d="M41 1147l70 -137q35 10 64.5 24.5t60.5 30.5v-363h-146v-190h500v190h-113v641h-162zM287 -315h278l1084 1882h-281zM1268 150h344q4 0 9 2t9 2l-2 -15v-190l256 18v158q0 6 -1 13t-1 14l12 -2h58v217h-72q2 16 3 38.5t1 53.5v157l-221 -32q-16 -59 -25.5 -108.5 t-9.5 -108.5h-80q10 16 19.5 35.5t13.5 33.5l145 398h-256l-202 -529v-155z" />
<glyph unicode="&#xbd;" horiz-adv-x="1982" d="M41 1147l70 -137q35 10 64.5 24.5t60.5 30.5v-363h-146v-190h500v190h-113v641h-162zM248 -315h278l1084 1882h-281zM1266 707l170 -148q53 47 84.5 63.5t64.5 16.5q55 0 55 -55q0 -53 -23.5 -90t-66.5 -88q-49 -59 -113.5 -118t-129.5 -112v-176h577l58 209h-273 q-6 0 -15 -1t-16 -1q55 37 105.5 79t89.5 90t61.5 101t22.5 113q0 113 -76 184.5t-219 71.5q-104 0 -185 -34t-171 -105z" />
<glyph unicode="&#xbe;" horiz-adv-x="2076" d="M41 676l47 -199q35 -4 71 -6t62 -2q98 0 183 20.5t146.5 58.5t97.5 93t36 123q0 57 -24.5 106.5t-77.5 75.5q84 59 84 176q0 55 -24 98.5t-64.5 73t-97 45t-122.5 15.5q-111 0 -187.5 -33t-123.5 -68l119 -182q41 41 80 58.5t88 17.5q29 0 42 -13.5t13 -29.5 q0 -35 -18.5 -54.5t-83.5 -19.5q-20 0 -44 2t-61 6v-207q35 4 52.5 5.5t31.5 3.5h39q23 0 42.5 -4.5t32.5 -15.5t13 -34q0 -123 -248 -122q-16 0 -39.5 2t-64.5 10zM379 -315h278l1084 1882h-281zM1352 150h344q4 0 9 2t9 2l-2 -15v-190l256 18v158q0 6 -1 13t-1 14l12 -2 h58v217h-72q2 16 3 38.5t1 53.5v157l-221 -32q-16 -59 -25.5 -108.5t-9.5 -108.5h-80q10 16 19.5 35.5t13.5 33.5l145 398h-256l-202 -529v-155z" />
<glyph unicode="&#xbf;" horiz-adv-x="1015" d="M102 -63q0 -88 36 -154t95.5 -110t139.5 -66.5t168 -22.5q141 0 238 47t175 119l-157 219q-10 -12 -27.5 -27.5t-42.5 -28.5t-56.5 -23.5t-68.5 -10.5q-63 0 -101 24.5t-38 82.5q0 47 27.5 77.5t93.5 77.5q57 41 98 87t64.5 103.5t28.5 128t-9 163.5h-299 q2 -61 -2 -111.5t-22.5 -93.5t-55.5 -81t-98 -75q-86 -51 -136.5 -130t-50.5 -195zM401 881q0 -43 15.5 -80t43 -64.5t62.5 -43t76 -15.5q86 0 143.5 57.5t57.5 143.5q0 41 -15.5 77.5t-41 63.5t-61.5 42t-75 15q-43 0 -80 -15t-64.5 -42t-44 -62.5t-16.5 -76.5z" />
<glyph unicode="&#xc0;" horiz-adv-x="1222" d="M-25 0h385l78 274h338l74 -274h397l-432 1427h-381zM322 1651l479 -197l104 180l-448 248zM518 557l57 234q18 72 27 129q8 53 12 94q2 -41 9 -94q8 -56 18 -103l61 -260h-184z" />
<glyph unicode="&#xc1;" horiz-adv-x="1222" d="M-25 0h385l78 274h338l74 -274h397l-432 1427h-381zM324 1634l112 -180l473 197l-139 231zM518 557l57 234q18 72 27 129q8 53 12 94q2 -41 9 -94q8 -56 18 -103l61 -260h-184z" />
<glyph unicode="&#xc2;" horiz-adv-x="1222" d="M-25 0h385l78 274h338l74 -274h397l-432 1427h-381zM231 1636l103 -190l276 143l285 -143l115 190l-387 244zM518 557l57 234q18 72 27 129q8 53 12 94q2 -41 9 -94q8 -56 18 -103l61 -260h-184z" />
<glyph unicode="&#xc3;" horiz-adv-x="1222" d="M-25 0h385l78 274h338l74 -274h397l-432 1427h-381zM240 1733l90 -205q61 61 143 61q45 0 76 -12t59.5 -25.5t60 -26t79.5 -12.5q88 0 147 29t104 84l-92 215q-20 -23 -62 -41t-87 -18q-43 0 -74 11t-60.5 24.5t-62.5 24.5t-82 11q-78 0 -135 -30.5t-104 -89.5zM518 557 l57 234q18 72 27 129q8 53 12 94q2 -41 9 -94q8 -56 18 -103l61 -260h-184z" />
<glyph unicode="&#xc4;" horiz-adv-x="1222" d="M-25 0h385l78 274h338l74 -274h397l-432 1427h-381zM215 1659q0 -35 14.5 -65.5t40 -53t58 -36t69.5 -13.5q72 0 124 48t52 120q0 37 -14 67.5t-39.5 54t-59.5 37t-71 13.5q-35 0 -66.5 -13.5t-55 -37t-38 -54t-14.5 -67.5zM518 557l57 234q18 72 27 129q8 53 12 94 q2 -41 9 -94q8 -56 18 -103l61 -260h-184zM672 1659q0 -72 52 -120t128 -48q37 0 68.5 13.5t55 36t38 53t14.5 65.5q0 72 -53 122t-131 50q-72 0 -122 -50t-50 -122z" />
<glyph unicode="&#xc5;" horiz-adv-x="1222" d="M-25 0h385l78 274h338l74 -274h397l-432 1427h-381zM383 1692q0 -45 18.5 -84t51 -69t76.5 -47t96 -17q45 0 88 17t75.5 47t52 69t19.5 84t-18.5 84t-51 68.5t-74.5 47t-91 17.5t-92.5 -17.5t-77 -47t-53 -68.5t-19.5 -84zM518 557l57 234q18 72 27 129q8 53 12 94 q2 -41 9 -94q8 -56 18 -103l61 -260h-184zM537 1692q0 37 24.5 61.5t65.5 24.5q31 0 55.5 -24.5t24.5 -61.5t-24 -61.5t-62 -24.5q-35 0 -59.5 24.5t-24.5 61.5z" />
<glyph unicode="&#xc6;" horiz-adv-x="1705" d="M-82 0h412l139 274h330v-274h866v305h-500v291h357v291h-357v239h426l47 301h-886zM616 557q57 102 107.5 205.5t73.5 171.5h4q-2 -10 -2 -21v-356h-183z" />
<glyph unicode="&#xc7;" horiz-adv-x="1136" d="M61 686q0 -154 39 -287t125 -227q70 -78 150 -121t168 -61l-39 -125l20 -35q10 2 24.5 3t33.5 1q68 0 67 -49q0 -49 -67 -49q-49 0 -99 22l-65 -127q33 -16 83 -28.5t97 -12.5q70 0 117 18.5t75.5 48.5t42 67.5t13.5 74.5q0 59 -42 101.5t-116 48.5l12 26 q154 2 262.5 43.5t174.5 102.5l-158 250q-59 -53 -117.5 -74t-128.5 -21q-57 0 -102 25t-80 66q-23 25 -36 60.5t-21.5 85.5t-10.5 116.5t-2 154.5q0 61 4 108.5t15.5 84.5t29 65.5t43.5 55.5q29 29 71 42t89 13q117 0 213 -76l156 271q-25 25 -64 43t-88 32.5t-103 21.5 t-110 7q-190 0 -337.5 -78t-239.5 -246q-53 -98 -76 -202.5t-23 -239.5z" />
<glyph unicode="&#xc8;" horiz-adv-x="1019" d="M123 0h856v305h-490v291h357v291h-357v239h437l26 301h-829v-1427zM178 1651l479 -197l105 180l-449 248z" />
<glyph unicode="&#xc9;" horiz-adv-x="1019" d="M123 0h856v305h-490v291h357v291h-357v239h437l26 301h-829v-1427zM289 1634l112 -180l473 197l-139 231z" />
<glyph unicode="&#xca;" horiz-adv-x="1019" d="M123 0h856v305h-490v291h357v291h-357v239h437l26 301h-829v-1427zM127 1636l102 -190l277 143l285 -143l114 190l-387 244z" />
<glyph unicode="&#xcb;" horiz-adv-x="1019" d="M123 0h856v305h-490v291h357v291h-357v239h437l26 301h-829v-1427zM135 1667q0 -35 14.5 -65.5t40 -53t58.5 -36t69 -13.5q72 0 124.5 48t52.5 120q0 37 -14.5 67.5t-40 54t-59.5 37t-71 13.5q-35 0 -66.5 -13.5t-55 -37t-38 -54t-14.5 -67.5zM592 1667q0 -72 52 -120 t128 -48q37 0 68.5 13.5t55.5 36t38 53t14 65.5q0 72 -53 122t-131 50q-72 0 -122 -50t-50 -122z" />
<glyph unicode="&#xcc;" horiz-adv-x="620" d="M14 1651l480 -197l104 180l-448 248zM123 0h375v1427h-375v-1427z" />
<glyph unicode="&#xcd;" horiz-adv-x="620" d="M25 1634l112 -180l473 197l-139 231zM123 0h375v1427h-375v-1427z" />
<glyph unicode="&#xce;" horiz-adv-x="620" d="M-80 1636l103 -190l276 143l285 -143l114 190l-387 244zM123 0h375v1427h-375v-1427z" />
<glyph unicode="&#xcf;" horiz-adv-x="620" d="M-96 1665q0 -35 14 -65.5t40 -53t58.5 -36t69.5 -13.5q72 0 124 48t52 120q0 37 -14.5 67.5t-40 54t-59 37t-70.5 13.5q-35 0 -66.5 -13.5t-55.5 -37t-38 -54t-14 -67.5zM123 0h375v1427h-375v-1427zM360 1665q0 -72 52.5 -120t128.5 -48q37 0 68.5 13.5t55 36t38 53 t14.5 65.5q0 72 -53.5 122t-131.5 50q-72 0 -122 -50t-50 -122z" />
<glyph unicode="&#xd0;" horiz-adv-x="1261" d="M-23 606h146v-606h518q145 0 237.5 45t159.5 127q96 115 129 258t33 309q0 221 -55 367.5t-178 232.5q-86 59 -176.5 73.5t-163.5 14.5h-504v-598h-146v-223zM489 305v301h125l50 223h-175v297h113q41 0 77 -12t61.5 -51t41 -112.5t15.5 -198.5q0 -147 -14.5 -236.5 t-39 -135.5t-58.5 -60.5t-73 -14.5h-123z" />
<glyph unicode="&#xd1;" horiz-adv-x="1312" d="M123 0h348v401q0 135 -7 228.5t-13 134.5q23 -70 52 -141.5t58 -126.5l252 -496h377v1427h-348v-520q0 -63 3 -128.5t9 -112.5q-27 72 -57.5 143.5t-61.5 128.5l-260 489h-352v-1427zM274 1710l91 -205q61 61 143 62q45 0 75.5 -12.5t59.5 -25.5t60.5 -25.5t78.5 -12.5 q88 0 147.5 29t104.5 84l-92 215q-20 -23 -62 -41.5t-87 -18.5q-43 0 -74 11.5t-60.5 24.5t-62.5 24.5t-82 11.5q-78 0 -135 -31t-105 -90z" />
<glyph unicode="&#xd2;" horiz-adv-x="1404" d="M61 678q0 -160 42 -290t124 -222t202 -141.5t276 -49.5q190 0 314 67t196.5 176.5t100 252.5t27.5 297q0 117 -29.5 238.5t-101 221t-192.5 162t-303 62.5q-141 0 -261 -49t-208 -147.5t-137.5 -243t-49.5 -334.5zM399 1651l480 -197l104 180l-448 248zM471 719 q0 205 55.5 325.5t180.5 120.5q59 0 102 -19.5t70.5 -68.5t41 -135t13.5 -219q0 -137 -13.5 -226t-40 -140.5t-69.5 -72t-100 -20.5t-101.5 19.5t-75 71t-47 139.5t-16.5 225z" />
<glyph unicode="&#xd3;" horiz-adv-x="1404" d="M61 678q0 -160 42 -290t124 -222t202 -141.5t276 -49.5q190 0 314 67t196.5 176.5t100 252.5t27.5 297q0 117 -29.5 238.5t-101 221t-192.5 162t-303 62.5q-141 0 -261 -49t-208 -147.5t-137.5 -243t-49.5 -334.5zM432 1634l113 -180l473 197l-139 231zM471 719 q0 205 55.5 325.5t180.5 120.5q59 0 102 -19.5t70.5 -68.5t41 -135t13.5 -219q0 -137 -13.5 -226t-40 -140.5t-69.5 -72t-100 -20.5t-101.5 19.5t-75 71t-47 139.5t-16.5 225z" />
<glyph unicode="&#xd4;" horiz-adv-x="1404" d="M61 678q0 -160 42 -290t124 -222t202 -141.5t276 -49.5q190 0 314 67t196.5 176.5t100 252.5t27.5 297q0 117 -29.5 238.5t-101 221t-192.5 162t-303 62.5q-141 0 -261 -49t-208 -147.5t-137.5 -243t-49.5 -334.5zM330 1636l102 -190l277 143l284 -143l115 190l-387 244z M471 719q0 205 55.5 325.5t180.5 120.5q59 0 102 -19.5t70.5 -68.5t41 -135t13.5 -219q0 -137 -13.5 -226t-40 -140.5t-69.5 -72t-100 -20.5t-101.5 19.5t-75 71t-47 139.5t-16.5 225z" />
<glyph unicode="&#xd5;" horiz-adv-x="1404" d="M61 678q0 -160 42 -290t124 -222t202 -141.5t276 -49.5q190 0 314 67t196.5 176.5t100 252.5t27.5 297q0 117 -29.5 238.5t-101 221t-192.5 162t-303 62.5q-141 0 -261 -49t-208 -147.5t-137.5 -243t-49.5 -334.5zM328 1733l90 -205q61 61 143 61q45 0 76 -12t59.5 -25.5 t60 -26t79.5 -12.5q88 0 147 29t104 84l-92 215q-20 -23 -62 -41t-87 -18q-43 0 -74 11t-60.5 24.5t-62.5 24.5t-82 11q-78 0 -135 -30.5t-104 -89.5zM471 719q0 205 55.5 325.5t180.5 120.5q59 0 102 -19.5t70.5 -68.5t41 -135t13.5 -219q0 -137 -13.5 -226t-40 -140.5 t-69.5 -72t-100 -20.5t-101.5 19.5t-75 71t-47 139.5t-16.5 225z" />
<glyph unicode="&#xd6;" horiz-adv-x="1404" d="M61 678q0 -160 42 -290t124 -222t202 -141.5t276 -49.5q190 0 314 67t196.5 176.5t100 252.5t27.5 297q0 117 -29.5 238.5t-101 221t-192.5 162t-303 62.5q-141 0 -261 -49t-208 -147.5t-137.5 -243t-49.5 -334.5zM303 1667q0 -35 14.5 -65.5t40 -53t58.5 -36t69 -13.5 q72 0 124.5 48t52.5 120q0 37 -14.5 67.5t-40 54t-59.5 37t-71 13.5q-35 0 -66.5 -13.5t-55 -37t-38 -54t-14.5 -67.5zM471 719q0 205 55.5 325.5t180.5 120.5q59 0 102 -19.5t70.5 -68.5t41 -135t13.5 -219q0 -137 -13.5 -226t-40 -140.5t-69.5 -72t-100 -20.5t-101.5 19.5 t-75 71t-47 139.5t-16.5 225zM760 1667q0 -72 52 -120t128 -48q37 0 68.5 13.5t55 36t38 53t14.5 65.5q0 72 -53 122t-131 50q-72 0 -122 -50t-50 -122z" />
<glyph unicode="&#xd7;" horiz-adv-x="1415" d="M133 1032l340 -338l-338 -338l230 -229l335 338l347 -344l235 235l-344 344l336 338l-227 230l-338 -338l-340 338z" />
<glyph unicode="&#xd8;" horiz-adv-x="1404" d="M61 678q0 -344 183 -531l-146 -237l174 -113l144 234q125 -55 289 -56q190 0 314 67t196.5 176.5t100 252.5t27.5 297q0 135 -37.5 268t-129.5 238l131 215l-174 102l-123 -198q-125 59 -293 59q-141 0 -261 -49t-208 -147.5t-137.5 -243t-49.5 -334.5zM471 719 q0 205 55.5 325.5t180.5 120.5q43 0 76.5 -9t60.5 -34l-363 -590q-4 39 -7 86.5t-3 100.5zM582 301l348 569q2 -33 3 -69.5t1 -77.5q0 -137 -13.5 -226t-40 -140.5t-69.5 -72t-100 -20.5q-78 0 -129 37z" />
<glyph unicode="&#xd9;" horiz-adv-x="1298" d="M113 457q0 -72 3 -117t11 -78t21.5 -56.5t33.5 -51.5q125 -178 467 -179q106 0 189.5 19.5t146 51.5t103 73t63.5 86q23 43 29 93t6 142v987h-367v-938q0 -104 -34.5 -158.5t-133.5 -54.5q-96 0 -133 60.5t-37 159.5v931h-368v-970zM289 1651l479 -197l104 180l-448 248z " />
<glyph unicode="&#xda;" horiz-adv-x="1298" d="M113 457q0 -72 3 -117t11 -78t21.5 -56.5t33.5 -51.5q125 -178 467 -179q106 0 189.5 19.5t146 51.5t103 73t63.5 86q23 43 29 93t6 142v987h-367v-938q0 -104 -34.5 -158.5t-133.5 -54.5q-96 0 -133 60.5t-37 159.5v931h-368v-970zM432 1634l113 -180l473 197l-139 231z " />
<glyph unicode="&#xdb;" horiz-adv-x="1298" d="M113 457q0 -72 3 -117t11 -78t21.5 -56.5t33.5 -51.5q125 -178 467 -179q106 0 189.5 19.5t146 51.5t103 73t63.5 86q23 43 29 93t6 142v987h-367v-938q0 -104 -34.5 -158.5t-133.5 -54.5q-96 0 -133 60.5t-37 159.5v931h-368v-970zM268 1642l103 -190l276 143l285 -143 l115 190l-388 244z" />
<glyph unicode="&#xdc;" horiz-adv-x="1298" d="M113 457q0 -72 3 -117t11 -78t21.5 -56.5t33.5 -51.5q125 -178 467 -179q106 0 189.5 19.5t146 51.5t103 73t63.5 86q23 43 29 93t6 142v987h-367v-938q0 -104 -34.5 -158.5t-133.5 -54.5q-96 0 -133 60.5t-37 159.5v931h-368v-970zM244 1659q0 -35 14 -65.5t40 -53 t58.5 -36t69.5 -13.5q72 0 124 48t52 120q0 37 -14.5 67.5t-40 54t-59 37t-70.5 13.5q-35 0 -67 -13.5t-55.5 -37t-37.5 -54t-14 -67.5zM698 1659q0 -72 52.5 -120t128.5 -48q37 0 68.5 13.5t55 36t38 53t14.5 65.5q0 72 -53.5 122t-131.5 50q-72 0 -122 -50t-50 -122z" />
<glyph unicode="&#xdd;" horiz-adv-x="1148" d="M-61 1427l440 -831v-596h375v604l456 823h-436l-125 -309q-18 -45 -36.5 -93t-39.5 -99q-10 33 -18 57l-16 45q-6 23 -15.5 45.5t-21.5 50.5l-125 303h-438zM338 1634l113 -180l473 197l-140 231z" />
<glyph unicode="&#xde;" horiz-adv-x="1183" d="M123 0h366v283h115q174 0 283.5 45t171 113.5t83 152.5t21.5 164q0 123 -39 207t-112.5 137t-181 76.5t-242.5 23.5h-99v225h-366v-1427zM489 573v328h127q66 0 107 -26.5t41 -114.5q0 -59 -10.5 -95t-31 -56.5t-52 -28t-74.5 -7.5h-107z" />
<glyph unicode="&#xdf;" horiz-adv-x="1318" d="M18 776h168v-491q0 -66 -8 -139.5t-24 -145.5h360q16 57 24.5 119.5t8.5 120.5v776q0 100 23.5 140t88.5 40q45 0 75 -26.5t30 -90.5q0 -51 -27.5 -74.5t-61.5 -47t-61.5 -60.5t-27.5 -113q0 -63 22.5 -102t55 -64.5t71.5 -44t72 -40t55.5 -51t22.5 -79.5 q0 -76 -40 -116.5t-116 -40.5q-16 0 -45 4t-47 14l-43 -264q29 -10 67.5 -17.5t98.5 -7.5q111 0 204 32t160.5 89.5t105.5 138.5t38 179q0 86 -31 145t-76 101t-97 68t-95 44q-29 12 -38 15.5t-9 11.5t12 12t47 23q92 51 132 126.5t40 153.5q0 80 -35 146.5t-98.5 114.5 t-154.5 74t-203 26q-104 0 -192.5 -28t-151 -77t-97.5 -116.5t-35 -147.5v-49h-168v-281z" />
<glyph unicode="&#xe0;" horiz-adv-x="1056" d="M51 317q0 -72 19.5 -134t63.5 -108t112.5 -74t167.5 -28q94 0 159.5 28t104.5 60q12 -25 52 -58.5t79 -45.5l205 199q-55 35 -68.5 88t-13.5 118l4 365q0 59 -3 94t-13 70q-29 94 -128.5 143t-252.5 49q-131 0 -254 -45t-222 -104l130 -221q68 51 138 80.5t163 29.5 q59 0 72.5 -25.5t13.5 -72.5v-66q-6 2 -29 3h-31q-111 0 -197.5 -26t-147 -72t-92.5 -108.5t-32 -138.5zM180 1307l479 -197l105 180l-449 248zM397 322q0 23 7.5 44t28 38.5t56.5 26.5t91 7v-184q-10 -12 -36 -23.5t-48 -11.5q-47 0 -73 27.5t-26 75.5z" />
<glyph unicode="&#xe1;" horiz-adv-x="1056" d="M51 317q0 -72 19.5 -134t63.5 -108t112.5 -74t167.5 -28q94 0 159.5 28t104.5 60q12 -25 52 -58.5t79 -45.5l205 199q-55 35 -68.5 88t-13.5 118l4 365q0 59 -3 94t-13 70q-29 94 -128.5 143t-252.5 49q-131 0 -254 -45t-222 -104l130 -221q68 51 138 80.5t163 29.5 q59 0 72.5 -25.5t13.5 -72.5v-66q-6 2 -29 3h-31q-111 0 -197.5 -26t-147 -72t-92.5 -108.5t-32 -138.5zM281 1290l112 -180l473 197l-139 231zM397 322q0 23 7.5 44t28 38.5t56.5 26.5t91 7v-184q-10 -12 -36 -23.5t-48 -11.5q-47 0 -73 27.5t-26 75.5z" />
<glyph unicode="&#xe2;" horiz-adv-x="1056" d="M51 317q0 -72 19.5 -134t63.5 -108t112.5 -74t167.5 -28q94 0 159.5 28t104.5 60q12 -25 52 -58.5t79 -45.5l205 199q-55 35 -68.5 88t-13.5 118l4 365q0 59 -3 94t-13 70q-29 94 -128.5 143t-252.5 49q-131 0 -254 -45t-222 -104l130 -221q68 51 138 80.5t163 29.5 q59 0 72.5 -25.5t13.5 -72.5v-66q-6 2 -29 3h-31q-111 0 -197.5 -26t-147 -72t-92.5 -108.5t-32 -138.5zM133 1282l103 -190l276 143l285 -143l114 190l-387 244zM397 322q0 23 7.5 44t28 38.5t56.5 26.5t91 7v-184q-10 -12 -36 -23.5t-48 -11.5q-47 0 -73 27.5t-26 75.5z " />
<glyph unicode="&#xe3;" horiz-adv-x="1056" d="M51 317q0 -72 19.5 -134t63.5 -108t112.5 -74t167.5 -28q94 0 159.5 28t104.5 60q12 -25 52 -58.5t79 -45.5l205 199q-55 35 -68.5 88t-13.5 118l4 365q0 59 -3 94t-13 70q-29 94 -128.5 143t-252.5 49q-131 0 -254 -45t-222 -104l130 -221q68 51 138 80.5t163 29.5 q59 0 72.5 -25.5t13.5 -72.5v-66q-6 2 -29 3h-31q-111 0 -197.5 -26t-147 -72t-92.5 -108.5t-32 -138.5zM147 1397l91 -205q61 61 143 61q45 0 75.5 -12t59.5 -25.5t60.5 -25.5t78.5 -12q88 0 147.5 28.5t104.5 83.5l-92 215q-20 -23 -62 -41t-87 -18q-43 0 -74 11 t-60.5 24.5t-62.5 25t-82 11.5q-78 0 -135 -31t-105 -90zM397 322q0 23 7.5 44t28 38.5t56.5 26.5t91 7v-184q-10 -12 -36 -23.5t-48 -11.5q-47 0 -73 27.5t-26 75.5z" />
<glyph unicode="&#xe4;" horiz-adv-x="1056" d="M51 317q0 -72 19.5 -134t63.5 -108t112.5 -74t167.5 -28q94 0 159.5 28t104.5 60q12 -25 52 -58.5t79 -45.5l205 199q-55 35 -68.5 88t-13.5 118l4 365q0 59 -3 94t-13 70q-29 94 -128.5 143t-252.5 49q-131 0 -254 -45t-222 -104l130 -221q68 51 138 80.5t163 29.5 q59 0 72.5 -25.5t13.5 -72.5v-66q-6 2 -29 3h-31q-111 0 -197.5 -26t-147 -72t-92.5 -108.5t-32 -138.5zM125 1331q0 -35 14.5 -65.5t40 -53t58 -36t69.5 -13.5q72 0 124 48t52 120q0 37 -14 68t-40 54.5t-59.5 36.5t-70.5 13q-35 0 -66.5 -13t-55 -36.5t-38 -54.5 t-14.5 -68zM397 322q0 23 7.5 44t28 38.5t56.5 26.5t91 7v-184q-10 -12 -36 -23.5t-48 -11.5q-47 0 -73 27.5t-26 75.5zM582 1331q0 -72 52 -120t128 -48q37 0 68.5 13.5t55 36t38 53t14.5 65.5q0 72 -53.5 122t-130.5 50q-72 0 -122 -50t-50 -122z" />
<glyph unicode="&#xe5;" horiz-adv-x="1056" d="M51 317q0 -72 19.5 -134t63.5 -108t112.5 -74t167.5 -28q94 0 159.5 28t104.5 60q12 -25 52 -58.5t79 -45.5l205 199q-55 35 -68.5 88t-13.5 118l4 365q0 59 -3 94t-13 70q-29 94 -128.5 143t-252.5 49q-131 0 -254 -45t-222 -104l130 -221q68 51 138 80.5t163 29.5 q59 0 72.5 -25.5t13.5 -72.5v-66q-6 2 -29 3h-31q-111 0 -197.5 -26t-147 -72t-92.5 -108.5t-32 -138.5zM293 1348q0 -45 18.5 -84t51 -69t76.5 -47.5t96 -17.5q45 0 88 17.5t75.5 47.5t52 69t19.5 84t-18.5 83.5t-51 68.5t-74.5 47.5t-91 17.5t-92.5 -17.5t-77 -47.5 t-53 -68.5t-19.5 -83.5zM397 322q0 23 7.5 44t28 38.5t56.5 26.5t91 7v-184q-10 -12 -36 -23.5t-48 -11.5q-47 0 -73 27.5t-26 75.5zM446 1348q0 37 25 61.5t66 24.5q31 0 55 -24.5t24 -61.5t-23.5 -61.5t-62.5 -24.5q-35 0 -59.5 24.5t-24.5 61.5z" />
<glyph unicode="&#xe6;" horiz-adv-x="1570" d="M51 317q0 -72 19.5 -134t63.5 -108t112.5 -74t167.5 -28q123 0 197.5 39t105.5 82q66 -61 159 -91t209 -30q119 0 221.5 35t209.5 117l-138 205q-137 -106 -278 -107q-55 0 -89 20.5t-51.5 51.5t-23.5 63.5t-6 57.5h590v88q0 135 -27 242.5t-85 182.5t-148.5 114.5 t-217.5 39.5q-78 0 -139 -19.5t-98 -47.5q-47 35 -107.5 51t-158.5 16q-131 0 -254 -45t-222 -104l130 -221q68 51 138 80.5t163 29.5q59 0 72.5 -25.5t13.5 -72.5v-66q-6 2 -29 3h-23q-115 0 -202.5 -26t-149 -72t-93.5 -108.5t-32 -138.5zM397 322q0 23 7.5 44t28 38.5 t56.5 26.5t91 7v-184q-10 -12 -36 -23.5t-48 -11.5q-47 0 -73 27.5t-26 75.5zM930 647q0 106 33.5 147.5t91.5 41.5q66 0 91 -50.5t21 -138.5h-237z" />
<glyph unicode="&#xe7;" horiz-adv-x="940" d="M61 518q0 -223 88.5 -355t247.5 -173l-49 -154l21 -35q10 2 24.5 3t32.5 1q68 0 68 -49t-68 -49q-49 0 -98 23l-66 -127q33 -16 83 -28.5t97 -12.5q70 0 117 18.5t76 48t42 67.5t13 75q0 59 -42 101t-116 48l25 53q94 2 187.5 35t175.5 115l-150 209q-37 -41 -86 -67.5 t-109 -26.5q-78 0 -101 70.5t-23 232.5q0 88 8 143t24.5 86t41 41t55.5 10q37 0 77.5 -22.5t71.5 -55.5l164 215q-78 66 -152.5 95.5t-173.5 29.5q-242 0 -374 -147.5t-132 -417.5z" />
<glyph unicode="&#xe8;" horiz-adv-x="1071" d="M61 522q0 -260 133.5 -404.5t391.5 -144.5q119 0 221 35t209 117l-137 205q-137 -106 -279 -107q-55 0 -89 20.5t-51.5 51.5t-23.5 63.5t-6 57.5h590v88q0 135 -26.5 242.5t-85 182.5t-148.5 114.5t-217 39.5q-227 0 -354.5 -149.5t-127.5 -411.5zM215 1307l479 -197 l105 180l-449 248zM430 647q0 106 34 147.5t91 41.5q66 0 91.5 -50.5t21.5 -138.5h-238z" />
<glyph unicode="&#xe9;" horiz-adv-x="1071" d="M61 522q0 -260 133.5 -404.5t391.5 -144.5q119 0 221 35t209 117l-137 205q-137 -106 -279 -107q-55 0 -89 20.5t-51.5 51.5t-23.5 63.5t-6 57.5h590v88q0 135 -26.5 242.5t-85 182.5t-148.5 114.5t-217 39.5q-227 0 -354.5 -149.5t-127.5 -411.5zM301 1290l113 -180 l473 197l-139 231zM430 647q0 106 34 147.5t91 41.5q66 0 91.5 -50.5t21.5 -138.5h-238z" />
<glyph unicode="&#xea;" horiz-adv-x="1071" d="M61 522q0 -260 133.5 -404.5t391.5 -144.5q119 0 221 35t209 117l-137 205q-137 -106 -279 -107q-55 0 -89 20.5t-51.5 51.5t-23.5 63.5t-6 57.5h590v88q0 135 -26.5 242.5t-85 182.5t-148.5 114.5t-217 39.5q-227 0 -354.5 -149.5t-127.5 -411.5zM158 1282l102 -190 l277 143l284 -143l115 190l-387 244zM430 647q0 106 34 147.5t91 41.5q66 0 91.5 -50.5t21.5 -138.5h-238z" />
<glyph unicode="&#xeb;" horiz-adv-x="1071" d="M61 522q0 -260 133.5 -404.5t391.5 -144.5q119 0 221 35t209 117l-137 205q-137 -106 -279 -107q-55 0 -89 20.5t-51.5 51.5t-23.5 63.5t-6 57.5h590v88q0 135 -26.5 242.5t-85 182.5t-148.5 114.5t-217 39.5q-227 0 -354.5 -149.5t-127.5 -411.5zM141 1331 q0 -35 14.5 -65.5t40 -53t58.5 -36t70 -13.5q72 0 124 48t52 120q0 37 -14.5 68t-40 54.5t-59.5 36.5t-71 13q-35 0 -66.5 -13t-55 -36.5t-38 -54.5t-14.5 -68zM430 647q0 106 34 147.5t91 41.5q66 0 91.5 -50.5t21.5 -138.5h-238zM598 1331q0 -72 52 -120t128 -48 q37 0 69 13.5t55.5 36t37.5 53t14 65.5q0 72 -53 122t-131 50q-72 0 -122 -50t-50 -122z" />
<glyph unicode="&#xec;" horiz-adv-x="602" d="M4 1307l479 -197l105 180l-449 248zM123 0h356v1073l-356 -33v-1040z" />
<glyph unicode="&#xed;" horiz-adv-x="602" d="M23 1290l112 -180l473 197l-139 231zM123 0h356v1073l-356 -33v-1040z" />
<glyph unicode="&#xee;" horiz-adv-x="602" d="M-88 1309l102 -191l277 144l284 -144l115 191l-387 243zM123 0h356v1073l-356 -33v-1040z" />
<glyph unicode="&#xef;" horiz-adv-x="602" d="M-104 1331q0 -35 14 -65.5t39.5 -53t58.5 -36t70 -13.5q72 0 124 48t52 120q0 37 -14.5 68t-40 54.5t-59.5 36.5t-70 13q-35 0 -67 -13t-55.5 -36.5t-37.5 -54.5t-14 -68zM123 0h356v1073l-356 -33v-1040zM350 1331q0 -72 52.5 -120t127.5 -48q37 0 69 13.5t55.5 36 t38 53t14.5 65.5q0 72 -53.5 122t-131.5 50q-72 0 -122 -50t-50 -122z" />
<glyph unicode="&#xf0;" horiz-adv-x="1062" d="M-61 1135q86 -10 152.5 -25.5t121.5 -34.5l-100 -110l186 -74l90 100q37 -20 78 -58t63 -61q-102 6 -188 -22.5t-147.5 -84.5t-96.5 -138t-35 -183q0 -117 35 -203.5t97.5 -145t147.5 -88.5t185 -30t186.5 32t150 96.5t100 162t36.5 228.5q0 166 -57 312t-168 275 q-37 45 -81 82t-93 70l80 92l-207 94l-65 -88q-63 25 -128 40.5t-124 21.5zM408 440q0 76 32.5 123t104.5 47q61 0 110 -18q4 -27 5.5 -58.5t1.5 -54.5q0 -92 -27 -154.5t-94 -62.5q-68 0 -100.5 50t-32.5 128z" />
<glyph unicode="&#xf1;" horiz-adv-x="1163" d="M90 1026q20 -86 26.5 -171t6.5 -183v-672h356v729q37 33 66.5 47.5t50.5 14.5q18 0 34.5 -2.5t29 -12.5t18.5 -33.5t6 -66.5v-676h356v793q0 55 -11 107t-44 93t-91 65.5t-151 24.5q-104 0 -177.5 -30.5t-127.5 -69.5q-2 25 -8 52.5t-12 45.5zM182 1395l90 -205 q61 61 144 61q45 0 75.5 -12t59.5 -25.5t60.5 -25.5t78.5 -12q88 0 147.5 28.5t104.5 83.5l-92 215q-20 -23 -62.5 -41t-87.5 -18q-43 0 -73.5 11t-60 24.5t-62.5 25t-82 11.5q-78 0 -135.5 -31t-104.5 -90z" />
<glyph unicode="&#xf2;" d="M51 524q0 -266 130 -408.5t360 -142.5q94 0 185 32t161.5 102.5t113.5 180t43 267.5q0 141 -38.5 241.5t-105 164t-154 93t-185.5 29.5q-117 0 -211 -41t-160.5 -114.5t-102.5 -177t-36 -226.5zM203 1307l479 -197l104 180l-448 248zM436 518q0 98 7.5 159.5t20.5 97.5 t33.5 48.5t49.5 12.5q31 0 52.5 -12.5t34.5 -43t19 -83t6 -132.5q0 -188 -23.5 -265t-86.5 -77q-76 0 -94.5 71t-18.5 224z" />
<glyph unicode="&#xf3;" d="M51 524q0 -266 130 -408.5t360 -142.5q94 0 185 32t161.5 102.5t113.5 180t43 267.5q0 141 -38.5 241.5t-105 164t-154 93t-185.5 29.5q-117 0 -211 -41t-160.5 -114.5t-102.5 -177t-36 -226.5zM285 1290l112 -180l473 197l-139 231zM436 518q0 98 7.5 159.5t20.5 97.5 t33.5 48.5t49.5 12.5q31 0 52.5 -12.5t34.5 -43t19 -83t6 -132.5q0 -188 -23.5 -265t-86.5 -77q-76 0 -94.5 71t-18.5 224z" />
<glyph unicode="&#xf4;" d="M51 524q0 -266 130 -408.5t360 -142.5q94 0 185 32t161.5 102.5t113.5 180t43 267.5q0 141 -38.5 241.5t-105 164t-154 93t-185.5 29.5q-117 0 -211 -41t-160.5 -114.5t-102.5 -177t-36 -226.5zM168 1282l102 -190l277 143l284 -143l115 190l-387 244zM436 518 q0 98 7.5 159.5t20.5 97.5t33.5 48.5t49.5 12.5q31 0 52.5 -12.5t34.5 -43t19 -83t6 -132.5q0 -188 -23.5 -265t-86.5 -77q-76 0 -94.5 71t-18.5 224z" />
<glyph unicode="&#xf5;" d="M51 524q0 -266 130 -408.5t360 -142.5q94 0 185 32t161.5 102.5t113.5 180t43 267.5q0 141 -38.5 241.5t-105 164t-154 93t-185.5 29.5q-117 0 -211 -41t-160.5 -114.5t-102.5 -177t-36 -226.5zM168 1389l90 -205q61 61 143 61q45 0 76 -12t59.5 -25.5t60.5 -26t79 -12.5 q88 0 147.5 29t104.5 84l-92 215q-20 -23 -62.5 -41t-87.5 -18q-43 0 -73.5 11t-60.5 24.5t-62.5 24.5t-81.5 11q-78 0 -135.5 -30.5t-104.5 -89.5zM436 518q0 98 7.5 159.5t20.5 97.5t33.5 48.5t49.5 12.5q31 0 52.5 -12.5t34.5 -43t19 -83t6 -132.5q0 -188 -23.5 -265 t-86.5 -77q-76 0 -94.5 71t-18.5 224z" />
<glyph unicode="&#xf6;" d="M51 524q0 -266 130 -408.5t360 -142.5q94 0 185 32t161.5 102.5t113.5 180t43 267.5q0 141 -38.5 241.5t-105 164t-154 93t-185.5 29.5q-117 0 -211 -41t-160.5 -114.5t-102.5 -177t-36 -226.5zM143 1333q0 -35 14.5 -65.5t40 -53t58.5 -36t70 -13.5q72 0 124 48t52 120 q0 37 -14.5 68t-40 54.5t-59.5 36.5t-71 13q-35 0 -66.5 -13t-55 -36.5t-38 -54.5t-14.5 -68zM436 518q0 98 7.5 159.5t20.5 97.5t33.5 48.5t49.5 12.5q31 0 52.5 -12.5t34.5 -43t19 -83t6 -132.5q0 -188 -23.5 -265t-86.5 -77q-76 0 -94.5 71t-18.5 224zM600 1333 q0 -72 52.5 -120t127.5 -48q37 0 69 13.5t55.5 36t37.5 53t14 65.5q0 72 -53 122t-131 50q-72 0 -122 -50t-50 -122z" />
<glyph unicode="&#xf7;" horiz-adv-x="1198" d="M82 418h1034v256h-1034v-256zM385 150q0 -43 16.5 -82t45 -68t66.5 -45t81 -16t81 16t67.5 45t46 68t16.5 82t-16.5 79.5t-46 65.5t-67.5 45t-81 16t-81 -16t-66.5 -45t-45 -65.5t-16.5 -79.5zM385 958q0 -43 16.5 -81.5t45 -67.5t66.5 -45t81 -16t81 16t67.5 45t46 67.5 t16.5 81.5t-16.5 80t-46 66t-67.5 45t-81 16t-81 -16t-66.5 -45t-45 -66t-16.5 -80z" />
<glyph unicode="&#xf8;" d="M51 524q0 -141 37 -245.5t107 -174.5l-93 -151l140 -90l92 147q92 -37 207 -37q94 0 185 32t161.5 102.5t113.5 180t43 267.5q0 141 -35.5 237.5t-99.5 159.5l97 158l-142 84l-92 -150q-92 39 -211 39q-117 0 -211 -41t-160.5 -114.5t-102.5 -177t-36 -226.5zM438 518 q0 98 7.5 159.5t20.5 97.5t33.5 48.5t49.5 12.5q31 0 52.5 -12.5t34.5 -43t19.5 -83t6.5 -132.5q0 -188 -24 -265t-87 -77q-76 0 -94.5 71t-18.5 224z" />
<glyph unicode="&#xf9;" horiz-adv-x="1153" d="M113 414q0 -104 4 -159.5t16 -96.5q29 -92 106.5 -138.5t225.5 -46.5q86 0 151.5 28t112.5 69q6 -16 16.5 -45t28.5 -52l309 111q-23 41 -38 99.5t-15 140.5v761l-356 -57v-735q-23 -25 -53.5 -39t-57.5 -14q-47 0 -70.5 15t-23.5 64v766l-356 -57v-614zM205 1307 l479 -197l104 180l-448 248z" />
<glyph unicode="&#xfa;" horiz-adv-x="1153" d="M113 414q0 -104 4 -159.5t16 -96.5q29 -92 106.5 -138.5t225.5 -46.5q86 0 151.5 28t112.5 69q6 -16 16.5 -45t28.5 -52l309 111q-23 41 -38 99.5t-15 140.5v761l-356 -57v-735q-23 -25 -53.5 -39t-57.5 -14q-47 0 -70.5 15t-23.5 64v766l-356 -57v-614zM360 1290 l113 -180l473 197l-139 231z" />
<glyph unicode="&#xfb;" horiz-adv-x="1153" d="M113 414q0 -104 4 -159.5t16 -96.5q29 -92 106.5 -138.5t225.5 -46.5q86 0 151.5 28t112.5 69q6 -16 16.5 -45t28.5 -52l309 111q-23 41 -38 99.5t-15 140.5v761l-356 -57v-735q-23 -25 -53.5 -39t-57.5 -14q-47 0 -70.5 15t-23.5 64v766l-356 -57v-614zM195 1303 l102 -191l276 143l285 -143l115 191l-387 243z" />
<glyph unicode="&#xfc;" horiz-adv-x="1153" d="M113 414q0 -104 4 -159.5t16 -96.5q29 -92 106.5 -138.5t225.5 -46.5q86 0 151.5 28t112.5 69q6 -16 16.5 -45t28.5 -52l309 111q-23 41 -38 99.5t-15 140.5v761l-356 -57v-735q-23 -25 -53.5 -39t-57.5 -14q-47 0 -70.5 15t-23.5 64v766l-356 -57v-614zM164 1331 q0 -35 14.5 -65.5t40 -53t58 -36t69.5 -13.5q72 0 124 48t52 120q0 37 -14 68t-40 54.5t-59.5 36.5t-70.5 13q-35 0 -66.5 -13t-55 -36.5t-38 -54.5t-14.5 -68zM621 1331q0 -72 52 -120t128 -48q37 0 68.5 13.5t55 36t38 53t14.5 65.5q0 72 -53.5 122t-130.5 50 q-72 0 -122 -50t-50 -122z" />
<glyph unicode="&#xfd;" horiz-adv-x="1105" d="M-20 1047l262 -775q23 -61 44 -139t31 -133h99q-31 -61 -60.5 -102t-68.5 -69t-93.5 -47.5t-134.5 -37.5l125 -229q125 10 209 42.5t142.5 91t101.5 145.5t88 204l401 1059h-360l-141 -426q-25 -72 -43.5 -159t-28.5 -169h-2q-16 111 -49 217l-158 553zM315 1290 l113 -180l473 197l-139 231z" />
<glyph unicode="&#xfe;" horiz-adv-x="1134" d="M96 1444q16 -70 21.5 -134.5t5.5 -158.5v-1618l356 96v387q63 -43 154 -43q66 0 121 17.5t114 64.5q104 82 154.5 211t50.5 289q0 133 -30.5 232.5t-85 165t-131 98t-169.5 32.5q-70 0 -116.5 -19.5t-69.5 -39.5q4 12 6 49t2 68v162q0 53 -7 108t-15 94zM479 303v442 q10 14 30.5 33t61.5 19q31 0 53.5 -11.5t38 -41t22.5 -79.5t7 -128q0 -147 -28.5 -208t-96.5 -61q-35 0 -54 11.5t-34 23.5z" />
<glyph unicode="&#xff;" horiz-adv-x="1105" d="M-20 1047l262 -775q23 -61 44 -139t31 -133h99q-31 -61 -60.5 -102t-68.5 -69t-93.5 -47.5t-134.5 -37.5l125 -229q125 10 209 42.5t142.5 91t101.5 145.5t88 204l401 1059h-360l-141 -426q-25 -72 -43.5 -159t-28.5 -169h-2q-16 111 -49 217l-158 553zM150 1331 q0 -35 14 -65.5t39.5 -53t58.5 -36t70 -13.5q72 0 124 48t52 120q0 37 -14.5 68t-40 54.5t-59.5 36.5t-70 13q-35 0 -67 -13t-55.5 -36.5t-37.5 -54.5t-14 -68zM606 1331q0 -72 52.5 -120t127.5 -48q37 0 69 13.5t55.5 36t38 53t14.5 65.5q0 72 -53.5 122t-131.5 50 q-72 0 -122 -50t-50 -122z" />
<glyph unicode="&#x152;" horiz-adv-x="1699" d="M61 678q0 -324 165.5 -501t478.5 -177h954v305h-490v291h357v291h-357v239h437l26 301h-915q-141 0 -261 -46t-208 -138t-137.5 -233.5t-49.5 -331.5zM471 719q0 205 55.5 312.5t180.5 107.5q53 -1 96 -13v-825q-41 -12 -92 -12q-57 0 -101.5 16.5t-75 62.5t-47 130 t-16.5 221z" />
<glyph unicode="&#x153;" horiz-adv-x="1652" d="M51 524q0 -266 130 -408.5t360 -142.5q78 0 152.5 22.5t146.5 74.5q127 -96 327 -97q119 0 221.5 35t208.5 117l-137 205q-137 -106 -278 -107q-55 0 -89 20.5t-51.5 51.5t-23.5 63.5t-6 57.5h590v88q0 135 -27 242.5t-85 182.5t-148.5 114.5t-217.5 39.5 q-88 0 -158.5 -23.5t-117.5 -58.5q-61 41 -134 61.5t-153 20.5q-117 0 -211 -41t-160.5 -114.5t-102.5 -177t-36 -226.5zM436 518q0 98 7.5 159.5t20.5 97.5t33.5 48.5t49.5 12.5q31 0 52.5 -12.5t34.5 -43t19 -83t6 -132.5q0 -188 -23.5 -265t-86.5 -77q-76 0 -94.5 71 t-18.5 224zM1012 647q0 106 33.5 147.5t91.5 41.5q66 0 91 -50.5t21 -138.5h-237z" />
<glyph unicode="&#x178;" horiz-adv-x="1148" d="M-61 1427l440 -831v-596h375v604l456 823h-436l-125 -309q-18 -45 -36.5 -93t-39.5 -99q-10 33 -18 57l-16 45q-6 23 -15.5 45.5t-21.5 50.5l-125 303h-438zM150 1667q0 -35 14 -65.5t39.5 -53t58.5 -36t70 -13.5q72 0 124 48t52 120q0 37 -14.5 67.5t-40 54t-59.5 37 t-70 13.5q-35 0 -67 -13.5t-55.5 -37t-37.5 -54t-14 -67.5zM606 1667q0 -72 52.5 -120t127.5 -48q37 0 69 13.5t55.5 36t38 53t14.5 65.5q0 72 -53.5 122t-131.5 50q-72 0 -122 -50t-50 -122z" />
<glyph unicode="&#x2c6;" horiz-adv-x="860" d="M41 1309l102 -191l277 144l285 -144l114 191l-387 243z" />
<glyph unicode="&#x2dc;" horiz-adv-x="841" d="M41 1405l90 -205q61 61 143 62q45 0 76 -12.5t59.5 -26t60.5 -25.5t79 -12q88 0 147.5 28.5t104.5 83.5l-92 215q-20 -23 -62.5 -41t-87.5 -18q-43 0 -73.5 11.5t-60.5 24.5t-62.5 24.5t-81.5 11.5q-78 0 -135.5 -31t-104.5 -90z" />
<glyph unicode="&#x2000;" horiz-adv-x="954" />
<glyph unicode="&#x2001;" horiz-adv-x="1909" />
<glyph unicode="&#x2002;" horiz-adv-x="954" />
<glyph unicode="&#x2003;" horiz-adv-x="1909" />
<glyph unicode="&#x2004;" horiz-adv-x="636" />
<glyph unicode="&#x2005;" horiz-adv-x="477" />
<glyph unicode="&#x2006;" horiz-adv-x="318" />
<glyph unicode="&#x2007;" horiz-adv-x="318" />
<glyph unicode="&#x2008;" horiz-adv-x="238" />
<glyph unicode="&#x2009;" horiz-adv-x="381" />
<glyph unicode="&#x200a;" horiz-adv-x="106" />
<glyph unicode="&#x2010;" horiz-adv-x="722" d="M82 424h559v293h-559v-293z" />
<glyph unicode="&#x2011;" horiz-adv-x="722" d="M82 424h559v293h-559v-293z" />
<glyph unicode="&#x2012;" horiz-adv-x="722" d="M82 424h559v293h-559v-293z" />
<glyph unicode="&#x2013;" horiz-adv-x="1163" d="M82 420h999v272h-999v-272z" />
<glyph unicode="&#x2014;" horiz-adv-x="1626" d="M82 420h1462v272h-1462v-272z" />
<glyph unicode="&#x2018;" horiz-adv-x="546" d="M61 1094q0 -131 62.5 -205t173.5 -74q86 0 143.5 54.5t57.5 140.5q0 47 -11.5 81.5t-46.5 71.5q-16 14 -28.5 23.5t-21.5 17.5t-14 18.5t-5 28.5q0 31 37.5 61t107.5 46l-143 131q-74 -16 -134.5 -58t-91.5 -81q-39 -51 -62.5 -115t-23.5 -141z" />
<glyph unicode="&#x2019;" horiz-adv-x="546" d="M31 944l143 -131q74 16 134.5 58t90.5 81q39 51 62.5 114.5t23.5 141.5q0 131 -62.5 205t-172.5 74q-86 0 -143.5 -54.5t-57.5 -140.5q0 -47 11.5 -81.5t45.5 -71.5q14 -16 27.5 -24.5t23 -16.5t14.5 -18.5t5 -28.5q0 -31 -38 -60.5t-107 -46.5z" />
<glyph unicode="&#x201a;" horiz-adv-x="546" d="M31 -180l143 -131q74 16 134.5 58t90.5 81q39 51 62.5 114.5t23.5 141.5q0 131 -62.5 204.5t-172.5 73.5q-86 0 -143.5 -54t-57.5 -140q0 -47 11.5 -82t45.5 -72q14 -16 27.5 -24t23 -16.5t14.5 -18.5t5 -29q0 -31 -38 -60.5t-107 -45.5z" />
<glyph unicode="&#x201c;" horiz-adv-x="1050" d="M61 1094q0 -131 62.5 -205t173.5 -74q86 0 143.5 54.5t57.5 140.5q0 47 -11.5 81.5t-46.5 71.5q-16 14 -28.5 23.5t-21.5 17.5t-14 18.5t-5 28.5q0 31 37.5 61t107.5 46l-143 131q-74 -16 -134.5 -58t-91.5 -81q-39 -51 -62.5 -115t-23.5 -141zM565 1094 q0 -131 62.5 -205t173.5 -74q86 0 143 54.5t57 140.5q0 47 -11 81.5t-46 71.5q-16 14 -28.5 23.5t-21.5 17.5t-14.5 18.5t-5.5 28.5q0 31 38 61t108 46l-143 131q-74 -16 -134.5 -58t-91.5 -81q-39 -51 -62.5 -115t-23.5 -141z" />
<glyph unicode="&#x201d;" horiz-adv-x="1050" d="M31 944l143 -131q74 16 134.5 58t90.5 81q39 51 62.5 114.5t23.5 141.5q0 131 -62.5 205t-172.5 74q-86 0 -143.5 -54.5t-57.5 -140.5q0 -47 11.5 -81.5t45.5 -71.5q14 -16 27.5 -24.5t23 -16.5t14.5 -18.5t5 -28.5q0 -31 -38 -60.5t-107 -46.5zM535 944l143 -131 q74 16 134 58t91 81q39 51 62.5 114.5t23.5 141.5q0 131 -62.5 205t-172.5 74q-86 0 -143.5 -54.5t-57.5 -140.5q0 -47 11 -81.5t46 -71.5q14 -16 27.5 -24.5t23 -16.5t14.5 -18.5t5 -28.5q0 -31 -38 -60.5t-107 -46.5z" />
<glyph unicode="&#x201e;" horiz-adv-x="1050" d="M31 -180l143 -131q74 16 134.5 58t90.5 81q39 51 62.5 114.5t23.5 141.5q0 131 -62.5 204.5t-172.5 73.5q-86 0 -143.5 -54t-57.5 -140q0 -47 11.5 -82t45.5 -72q14 -16 27.5 -24t23 -16.5t14.5 -18.5t5 -29q0 -31 -38 -60.5t-107 -45.5zM535 -180l143 -131q74 16 134 58 t91 81q39 51 62.5 114.5t23.5 141.5q0 131 -62.5 204.5t-172.5 73.5q-86 0 -143.5 -54t-57.5 -140q0 -47 11 -82t46 -72q14 -16 27.5 -24t23 -16.5t14.5 -18.5t5 -29q0 -31 -38 -60.5t-107 -45.5z" />
<glyph unicode="&#x2022;" horiz-adv-x="970" d="M123 725q0 -76 28.5 -141.5t78 -114.5t115 -78t140.5 -29q76 0 141.5 29t115 78t78 114.5t28.5 141.5t-28.5 141.5t-78 114.5t-115 77.5t-141.5 28.5t-141 -28.5t-114.5 -77.5t-78 -114.5t-28.5 -141.5z" />
<glyph unicode="&#x2026;" horiz-adv-x="1662" d="M82 174q0 -43 16.5 -82t44 -67.5t66.5 -45t82 -16.5t81 16.5t67.5 45t46 67.5t16.5 82t-16.5 80t-46 65.5t-68.5 45t-82 16.5t-80 -16.5t-65.5 -45t-45 -65.5t-16.5 -80zM623 174q0 -43 16 -82t44 -67.5t65.5 -45t80.5 -16.5t81 16.5t68 45t46 67.5t16 82t-16 80 t-46 65.5t-68 45t-81 16.5t-79.5 -16.5t-65.5 -45t-45 -65.5t-16 -80zM1161 174q0 -43 16.5 -82t44 -67.5t66.5 -45t82 -16.5t81 16.5t67.5 45t46 67.5t16.5 82t-16.5 80t-46 65.5t-67.5 45t-81 16.5t-81 -16.5t-66.5 -45t-45 -65.5t-16.5 -80z" />
<glyph unicode="&#x202f;" horiz-adv-x="381" />
<glyph unicode="&#x2039;" horiz-adv-x="704" d="M41 526l365 -491l258 166l-248 325l248 328l-258 162z" />
<glyph unicode="&#x203a;" horiz-adv-x="704" d="M41 201l258 -166l365 491l-365 490l-258 -162l248 -328z" />
<glyph unicode="&#x205f;" horiz-adv-x="477" />
<glyph unicode="&#x20ac;" horiz-adv-x="1341" d="M41 434h235q41 -158 134 -262q98 -111 214.5 -154t252.5 -43q160 0 268 41.5t176 104.5l-158 250q-59 -53 -117.5 -74t-127.5 -21q-57 0 -102.5 25t-80.5 66q-10 14 -20 30.5t-19 36.5h301v211h-329q-2 14 -2 29v100h331v211h-309q10 35 27.5 60.5t42.5 52.5 q29 29 70.5 42t89.5 13q117 0 212 -76l156 271q-25 25 -63.5 43t-88 32.5t-103.5 21.5t-109 7q-190 0 -338 -78t-240 -246q-18 -35 -33.5 -70.5t-25.5 -72.5h-244v-211h207q-2 -10 -2 -22v-107h-205v-211z" />
<glyph unicode="&#x2122;" horiz-adv-x="2033" d="M41 1188h225v-604h287v604h225v239h-737v-239zM813 584h291v440h4l147 -440h242l148 440h4v-440h303l-47 843h-359l-151 -481l-160 481h-387z" />
<glyph unicode="&#x25fc;" d="M0 0v1096h1096v-1096h-1096z" />
<glyph unicode="&#xfb01;" horiz-adv-x="1245" d="M33 823h90v-823h356v823h287v-823h356v1057h-643v139q0 35 24.5 55.5t57.5 20.5q49 0 90 -19l37 244q-47 16 -96 22.5t-107 6.5q-49 0 -113.5 -10.5t-120.5 -46t-95 -103.5t-39 -182q0 -31 1 -65t5 -62h-90v-234zM739 1325q0 -41 16.5 -78t44 -64.5t64.5 -43t78 -15.5 q43 0 81 15.5t65.5 43t44 64.5t16.5 78q0 43 -15.5 79t-42 63.5t-63.5 43t-80 15.5t-81 -15.5t-66.5 -43t-45 -64.5t-16.5 -78z" />
<glyph unicode="&#xfb02;" horiz-adv-x="1277" d="M33 823h90v-823h356v823h176l47 234h-223v139q0 35 24.5 55.5t57.5 20.5q47 -1 90 -21l88 226q-66 29 -123 39t-131 10q-49 0 -113.5 -10.5t-120.5 -46t-95 -103.5t-39 -182q0 -31 1 -65t5 -62h-90v-234zM762 1448q10 -47 11 -122t1 -159v-827q0 -80 6 -146.5t35 -115.5 t91.5 -77t174.5 -28q74 0 134.5 9.5t99.5 23.5l-58 205q-18 -6 -36 -6q-31 0 -47.5 10t-25.5 37t-11 72t-2 116v801q0 106 -1 173t-10 120z" />
</font>
</defs>
</svg>
