<?xml version="1.0" standalone="no"?>
<!DOCTYPE svg PUBLIC "-//W3C//DTD SVG 1.1//EN" "http://www.w3.org/Graphics/SVG/1.1/DTD/svg11.dtd" >
<svg xmlns="http://www.w3.org/2000/svg">
<metadata></metadata>
<defs>
<font id="metanormallf-romanregular" horiz-adv-x="1146" >
<font-face units-per-em="2048" ascent="1638" descent="-410" />
<missing-glyph horiz-adv-x="471" />
<glyph horiz-adv-x="0" />
<glyph unicode="&#xd;" horiz-adv-x="1024" />
<glyph unicode=" "  horiz-adv-x="471" />
<glyph unicode="&#x09;" horiz-adv-x="471" />
<glyph unicode="&#xa0;" horiz-adv-x="471" />
<glyph unicode="!" horiz-adv-x="577" d="M164 113q0 53 36 89t89 36t89 -36t36 -87q0 -53 -36 -91t-89 -38t-89 36.5t-36 90.5zM186 1405l201 27l-39 -1026h-123z" />
<glyph unicode="&#x22;" horiz-adv-x="817" d="M184 958v492h148v-492h-148zM485 958v492h148v-492h-148z" />
<glyph unicode="#" horiz-adv-x="1138" d="M61 436v135h222l41 312h-201v135h221l62 432h137l-62 -432h258l62 432h137l-61 -432h200v-135h-219l-43 -312h201v-135h-221l-62 -436h-137l61 436h-258l-61 -436h-137l61 436h-201zM420 571h258l43 312h-258z" />
<glyph unicode="$" horiz-adv-x="1165" d="M102 100l74 131q86 -59 172 -89.5t187 -30.5v551l-52 16q-96 31 -152.5 57.5t-97.5 67.5q-88 94 -88 229q0 166 105.5 273.5t284.5 126.5v172h120v-170q197 -16 369 -134l-74 -120q-88 57 -154.5 83.5t-140.5 32.5v-489l68 -21q94 -29 149.5 -60.5t98.5 -80.5 t67.5 -115.5t24.5 -132.5q0 -76 -31 -145.5t-85 -126.5t-129 -95t-163 -50v-199h-120v192q-123 0 -227.5 33t-205.5 94zM328 1067q0 -80 48 -131t159 -92v448q-98 -16 -152.5 -74.5t-54.5 -150.5zM655 119q49 8 90 30.5t70 56.5t45.5 77t16.5 90q0 172 -222 250v-504z" />
<glyph unicode="%" horiz-adv-x="1736" d="M82 1067q0 164 87 256t241 92q170 0 250.5 -100t80.5 -260q0 -158 -88 -249t-241 -91q-154 0 -242 94t-88 258zM221 1083q0 -127 43 -191.5t154 -64.5q88 0 137 55.5t49 164.5q0 45 -6 91t-26.5 82.5t-59.5 59.5t-104 23q-98 0 -142.5 -57.5t-44.5 -162.5zM465 0 l682 1395h135l-682 -1395h-135zM995 332q0 164 87 256t241 92q170 0 251 -100.5t81 -260.5q0 -158 -88 -248.5t-242 -90.5t-242 94t-88 258zM1135 348q0 -127 43 -191.5t153 -64.5q88 0 137.5 55t49.5 164q0 45 -6.5 91.5t-27 83t-59.5 59t-104 22.5q-98 0 -142 -57 t-44 -162z" />
<glyph unicode="&#x26;" horiz-adv-x="1380" d="M123 348q0 68 19.5 119t56.5 93t90 77t121 68q-100 90 -149.5 163.5t-49.5 151.5q0 70 29.5 129t80 102t117 67.5t137.5 24.5q76 0 144.5 -20t120 -60t82 -99.5t30.5 -135.5q0 -59 -19.5 -105t-56 -85t-92 -75t-125.5 -73l330 -325q29 59 33 146t2 169h141 q0 -92 -5 -157.5t-15 -113t-24.5 -83t-30.5 -68.5l260 -258h-213l-138 133q-61 -76 -169.5 -120t-231.5 -44q-111 0 -199 28t-149.5 78t-94 119.5t-32.5 153.5zM299 336q0 -109 81 -175.5t222 -66.5q104 0 186 39t123 92l-405 396q-207 -98 -207 -285zM383 1040 q0 -29 7 -55.5t27.5 -55t56.5 -65.5t93 -86q121 57 165 117.5t44 134.5q0 86 -55 141.5t-143 55.5q-37 0 -72 -10.5t-62.5 -34t-44 -58t-16.5 -84.5z" />
<glyph unicode="'" horiz-adv-x="516" d="M184 958v492h148v-492h-148z" />
<glyph unicode="(" horiz-adv-x="645" d="M184 657q0 133 13.5 238.5t39 190.5t61.5 153t81 123q57 72 132 129t151 86l38 -78q-104 -61 -182 -145t-117 -221q-27 -94 -40 -215t-13 -256q0 -199 25.5 -370t97.5 -298q43 -76 98.5 -130t137.5 -100l-45 -81q-129 49 -232.5 159.5t-163.5 261.5q-23 59 -39 131 t-25 146t-13.5 144.5t-4.5 131.5z" />
<glyph unicode=")" horiz-adv-x="645" d="M-61 1499l45 82q129 -49 232 -159.5t163 -262.5q23 -59 39 -131t25.5 -145.5t13.5 -144.5t4 -132q0 -133 -13.5 -238.5t-39 -190.5t-61.5 -152.5t-81 -122.5q-57 -72 -132 -129.5t-150 -85.5l-39 77q104 61 182 145.5t117 221.5q27 94 40 215t13 256q0 199 -25.5 370 t-97.5 298q-43 76 -98.5 130t-136.5 99z" />
<glyph unicode="*" horiz-adv-x="946" d="M82 1124l39 119l291 -98v305h123v-305l290 98l39 -119l-289 -98l183 -244l-101 -77l-184 251l-178 -251l-102 77l178 244z" />
<glyph unicode="+" horiz-adv-x="1081" d="M102 438v148h365v364h147v-364h365v-148h-365v-364h-147v364h-365z" />
<glyph unicode="," horiz-adv-x="573" d="M123 -203q121 59 137 183l-6 -2q-6 -1 -16 -1q-47 0 -80 39t-33 93q0 61 42 104t101 43q72 0 117 -55.5t45 -141.5q0 -53 -20.5 -107t-57.5 -104q-31 -41 -78 -77.5t-94 -63.5z" />
<glyph unicode="-" horiz-adv-x="595" d="M102 469v156h392v-156h-392z" />
<glyph unicode="." horiz-adv-x="561" d="M143 115q0 57 39 96t97 39q59 0 99 -39t40 -96q0 -59 -40 -100.5t-95 -41.5q-59 0 -99.5 41t-40.5 101z" />
<glyph unicode="/" horiz-adv-x="911" d="M123 -303l530 1853h135l-530 -1853h-135z" />
<glyph unicode="0" d="M102 688q0 137 37 260t100.5 215t148.5 146.5t179 54.5q133 0 224.5 -68.5t146.5 -171t79.5 -225.5t24.5 -229q0 -158 -34.5 -287t-98 -221t-150.5 -143.5t-194 -51.5q-131 0 -219 74t-142 183.5t-78 234.5t-24 229zM285 680q0 -113 10 -203t31 -149 q37 -111 102.5 -173.5t140.5 -62.5q70 0 134.5 53.5t103.5 143.5q31 72 43 167t12 212q0 111 -8 187.5t-35 154.5q-35 109 -99.5 167t-148.5 58q-61 0 -118.5 -45t-98.5 -129q-70 -139 -69 -381z" />
<glyph unicode="1" d="M170 1061l393 276h127v-1208h207v-129h-602v129h233v1016q-4 -2 -24.5 -17.5t-57 -38t-69.5 -38.5q-29 -14 -72 -34t-69.5 -31t-30.5 -13z" />
<glyph unicode="2" d="M160 1169q115 98 221 145.5t217 47.5q80 0 149.5 -29.5t121 -80t81 -120t29.5 -149.5q0 -88 -35 -182t-96 -180q-72 -96 -180 -213q-51 -53 -98.5 -102.5t-87.5 -88.5t-68.5 -63.5t-40.5 -30.5q4 0 28.5 2t66.5 4t79 2h434l-33 -131h-782v92q59 41 134 111.5t173 181.5 q84 94 144.5 174t98.5 148.5t56.5 130t18.5 118.5q0 115 -70 190t-178 75q-45 0 -85 -11.5t-77 -29t-74 -41t-78 -47.5z" />
<glyph unicode="3" d="M127 1190q39 37 90 68.5t107.5 54t115 36t113.5 13.5q86 0 156.5 -24.5t123 -69.5t81 -105.5t28.5 -134.5q0 -111 -65.5 -191.5t-182.5 -111.5q57 -14 108.5 -42t90.5 -68t62.5 -91t23.5 -114q0 -68 -24.5 -129.5t-66.5 -114.5t-99.5 -95t-122.5 -71 q-72 -31 -172.5 -49.5t-210.5 -18.5q-37 0 -54.5 1t-46.5 6l-37 110q14 -2 25.5 -4t22 -3t22.5 -1h35q135 0 242.5 27.5t199.5 111.5q55 49 81 112.5t26 133.5q0 84 -46 145.5t-124 83.5q-23 6 -41.5 10.5t-43 5.5t-63.5 2t-100 1h-21v114h19q111 0 174 4.5t100 20.5 q53 23 84 76t31 119q0 98 -66.5 158.5t-177.5 60.5q-92 0 -173 -34t-152 -87z" />
<glyph unicode="4" d="M102 256v127l486 958h178l-422 -835q-25 -49 -50 -89l-24 -40l27 3q27 3 53 3h318q18 0 32 -1l13 -1l-1 23q-1 24 -1 34q0 27 2 52.5t4 60.5l24 362l127 39v-508q0 -29 -1 -46l-1 -17l16 1q15 1 31 1h121v-127h-112q-23 0 -40 1l-16 1l1 -24q1 -23 1 -56v-186l-157 -47 v231q0 29 1 56l1 26l-23 -1q-24 -1 -59 -1h-529z" />
<glyph unicode="5" d="M197 70q20 -10 37.5 -15.5t34 -8.5t35 -4t44.5 -1q94 0 175 28.5t140.5 79t94.5 119t35 146.5q0 94 -52 164q-39 53 -99 77.5t-157 24.5q-74 0 -143.5 -11.5t-114.5 -33.5l66 690h606l-25 -135h-436l-35 -395q27 2 44.5 4t32 3t28.5 1h35q223 0 340 -137 q41 -51 63.5 -116.5t22.5 -133.5q0 -61 -18.5 -123t-52.5 -115t-81 -98t-104 -74q-70 -35 -161 -56.5t-175 -21.5q-23 0 -40.5 1t-34.5 2t-34.5 5.5t-42.5 10.5z" />
<glyph unicode="6" d="M133 522q0 166 47 292t150 247q115 135 251 221t302 135l39 -102q-143 -47 -273.5 -139.5t-214.5 -214.5q-35 -49 -55.5 -107.5t-40.5 -144.5q53 49 134 77.5t165 28.5q86 0 160.5 -30.5t129 -84t86 -128t31.5 -160.5q0 -96 -34.5 -177t-95 -141.5t-142.5 -94.5t-178 -34 q-104 0 -189.5 40t-145.5 112.5t-93 175t-33 229.5zM322 479q0 -68 12 -137.5t43 -124.5t83 -91t134 -36q123 0 194.5 85.5t71.5 232.5q0 131 -67 204q-35 37 -85.5 58.5t-103.5 21.5q-70 0 -140.5 -27.5t-135.5 -80.5q-4 -35 -5 -55.5t-1 -49.5z" />
<glyph unicode="7" d="M147 1188l39 135h854l-39 -164q-100 -139 -194 -286.5t-174 -305.5q-31 -59 -66 -134t-65.5 -152.5t-55 -155.5t-36.5 -145l-199 -50q10 68 36.5 150t64.5 172t85 184t97 187q92 172 192 323.5t191 243.5h-29q-23 0 -68 -1t-92 -1h-541z" />
<glyph unicode="8" d="M115 344q0 68 22.5 124t61.5 102t92 79t112 56q-117 53 -179 136t-62 181q0 94 38 158.5t98 104.5t138 58.5t158 18.5q88 0 160.5 -22.5t124 -63.5t80 -98.5t28.5 -126.5q0 -66 -24.5 -118t-64.5 -92t-91 -71t-107 -51q59 -29 119 -57.5t107 -67.5t76.5 -92t29.5 -133 q0 -96 -39 -171t-103.5 -127.5t-148.5 -79t-172 -26.5q-98 0 -181 29t-144.5 79t-95 119.5t-33.5 151.5zM279 354q0 -123 82.5 -195.5t220.5 -72.5q127 0 204.5 67.5t77.5 176.5q0 90 -53 147q-35 37 -103.5 77t-203.5 101q-47 -27 -88 -54.5t-72 -63t-48 -79.5t-17 -104z M317 1036q0 -55 27 -97t69 -73.5t91 -54.5t92 -41q125 66 180 130t55 138q0 94 -69.5 150.5t-188.5 56.5q-117 0 -186.5 -56t-69.5 -153z" />
<glyph unicode="9" d="M94 0q31 4 55.5 8t46 10.5t44 14.5t51.5 20q137 59 261 155.5t202 237.5q10 16 25.5 48t27.5 67q-115 -80 -254 -80q-90 0 -165 32t-129 88t-85 135t-31 171q0 98 36 182.5t97.5 145.5t145.5 96t180 35q104 0 186 -40t138.5 -108.5t85 -158t28.5 -187.5 q0 -174 -72.5 -349t-199.5 -314q-72 -78 -154 -134.5t-192 -103.5q-43 -18 -73 -29.5t-56.5 -19.5t-54 -12t-64.5 -8zM324 905q0 -141 66.5 -222t182.5 -81q72 0 135.5 25.5t135.5 83.5q12 53 16 83.5t4 75.5q0 82 -19.5 151t-55 117t-85 74.5t-110.5 26.5 q-123 0 -196.5 -92t-73.5 -242z" />
<glyph unicode=":" horiz-adv-x="602" d="M164 113q0 59 40 99t99 40q55 0 95 -40t40 -97q0 -59 -40 -99.5t-99 -40.5q-57 0 -96 40t-39 98zM164 758q0 59 40 100t99 41q55 0 95 -40t40 -97q0 -59 -40 -99t-97 -40t-97 38.5t-40 96.5z" />
<glyph unicode=";" horiz-adv-x="634" d="M164 -203q121 59 137 183l-6 -2q-6 -1 -16 -1q-47 0 -80 39t-33 93q0 61 42 104t101 43q72 0 117 -55.5t45 -141.5q0 -53 -20.5 -107t-57.5 -104q-31 -41 -78 -77.5t-94 -63.5zM164 766q0 53 40 92t97 39t98 -40t41 -95q0 -59 -40 -100t-97 -41t-98 43t-41 102z" />
<glyph unicode="&#x3c;" horiz-adv-x="649" d="M41 614l391 527l135 -88l-327 -439l327 -438l-135 -88z" />
<glyph unicode="=" horiz-adv-x="1273" d="M102 393v135h1069v-135h-1069zM102 713v135h1069v-135h-1069z" />
<glyph unicode="&#x3e;" horiz-adv-x="651" d="M82 176l328 438l-328 439l135 88l393 -527l-393 -526z" />
<glyph unicode="?" horiz-adv-x="876" d="M82 1303q72 55 174 87.5t203 32.5q141 0 228 -82t87 -219q0 -76 -28.5 -133t-66.5 -98t-73 -65.5t-47 -34.5q-141 -113 -90 -336h-137q-29 119 -10.5 223t106.5 188q31 29 62.5 51.5t59.5 48t45 60.5t17 88q0 76 -52 123t-132 47q-74 0 -138.5 -23.5t-139.5 -70.5z M276 113q0 57 40 97t98 40q57 0 98 -40t41 -97q0 -59 -40 -100.5t-97 -41.5t-98.5 41t-41.5 101z" />
<glyph unicode="@" horiz-adv-x="1865" d="M123 418q0 180 61.5 337.5t172 274.5t262 183.5t331.5 66.5q168 0 312.5 -50t251 -143.5t168 -225.5t61.5 -294q0 -135 -36 -245.5t-97.5 -188.5t-142.5 -120t-169 -42q-72 0 -115.5 22.5t-68 57.5t-30 77t0.5 83q-23 -41 -57.5 -80t-77.5 -68.5t-93 -48t-101 -18.5 q-41 0 -82 17.5t-74 54t-52.5 92t-19.5 129.5q0 123 35 237.5t102.5 203.5t169 143.5t234.5 54.5q74 0 136.5 -18.5t115.5 -47.5q-10 -33 -23.5 -88t-23.5 -100l-78 -371q-27 -123 -2 -173t111 -50q61 0 115.5 38t93 104.5t61 154.5t22.5 190q0 127 -47 236.5t-132 191.5 t-203.5 128t-264.5 46q-156 0 -280.5 -63.5t-213.5 -167.5t-137.5 -239.5t-48.5 -280.5q0 -143 50.5 -262t137.5 -203t204.5 -131t250.5 -47q84 0 157 11t124 28l27 -111q-59 -20 -140.5 -30.5t-167.5 -10.5q-160 0 -303 49t-251.5 145.5t-172 238t-63.5 323.5zM672 281 q0 -90 31.5 -127t95.5 -37q37 0 79 17.5t80.5 53t70.5 90t48 128.5l82 387q-20 12 -46 20t-58 8q-104 0 -177 -51t-119 -131t-66.5 -175t-20.5 -183z" />
<glyph unicode="A" horiz-adv-x="1173" d="M10 0l469 1405h219l465 -1405h-190l-133 432h-525l-135 -432h-170zM360 569h437l-215 688z" />
<glyph unicode="B" horiz-adv-x="1226" d="M184 0v1405h203q104 0 173 -1t114 -5t74.5 -10.5t56.5 -14.5q109 -37 174 -125t65 -196q0 -111 -65.5 -190t-185.5 -118q66 -12 107.5 -28.5t76.5 -44.5q70 -53 98.5 -131t28.5 -156q0 -117 -57.5 -210t-161.5 -134q-29 -10 -55.5 -18.5t-63.5 -13.5t-89 -7t-130 -2h-363 zM346 137h299q156 0 219.5 67.5t63.5 194.5q0 92 -47 162t-123 86q-29 6 -70 10.5t-94 4.5h-248v-525zM346 801h244q57 0 97 5t67.5 19.5t46 38t35.5 58.5q22 51 22 108q0 84 -44 143.5t-116 77.5q-29 8 -64.5 10.5t-88.5 2.5h-199v-463z" />
<glyph unicode="C" horiz-adv-x="1153" d="M123 698q0 156 44 289t123 230.5t187.5 151.5t235.5 54q102 0 192 -29.5t162 -84.5l-90 -109q-63 47 -126 67.5t-140 20.5q-123 0 -209 -61.5t-137 -179.5q-31 -72 -45.5 -160t-14.5 -213q0 -102 10.5 -169t34.5 -128q53 -133 154.5 -197.5t222.5 -64.5q78 0 142.5 21.5 t131.5 68.5l91 -113q-86 -55 -186.5 -85t-205.5 -30q-115 0 -221 47.5t-188 139.5q-90 102 -129 239.5t-39 294.5z" />
<glyph unicode="D" horiz-adv-x="1275" d="M184 0v1405h281q80 0 141.5 -3t112.5 -14.5t98 -33t98 -58.5q121 -86 179.5 -237.5t58.5 -358.5q0 -186 -44 -316t-116 -208q-47 -51 -94 -85t-99 -54.5t-113.5 -28.5t-135.5 -8h-367zM352 139h168q55 0 106.5 4t97.5 19.5t85 45.5t68 79q47 82 70.5 182t23.5 211 q0 158 -25.5 266.5t-95.5 192.5q-35 41 -70 66.5t-74.5 38.5t-85 18.5t-100.5 5.5h-168v-1129z" />
<glyph unicode="E" horiz-adv-x="1044" d="M184 0v1405h768l-22 -139h-576v-461h482v-146h-482v-514h619v-145h-789z" />
<glyph unicode="F" horiz-adv-x="882" d="M184 0v1405h740l-27 -139h-543v-461h451v-137h-451v-668h-170z" />
<glyph unicode="G" horiz-adv-x="1288" d="M123 698q0 203 53 347.5t164 242.5q147 133 367 133q223 0 385 -139l-76 -104q-86 59 -154.5 83.5t-150.5 24.5q-123 0 -215.5 -57.5t-135.5 -179.5q-55 -158 -55 -357q0 -139 25.5 -247.5t72.5 -178.5q25 -35 62 -62.5t82 -47t96 -29.5t100 -10q133 0 224 55v428h-283 l-33 139h473v-655q-76 -49 -181 -78t-214 -29q-268 0 -432 177q-90 98 -132 230t-42 314z" />
<glyph unicode="H" horiz-adv-x="1292" d="M184 0v1405h164v-588h592v588h168v-1405h-168v680h-592v-680h-164z" />
<glyph unicode="I" horiz-adv-x="532" d="M184 0v1405h164v-1405h-164z" />
<glyph unicode="J" horiz-adv-x="550" d="M-4 -158q57 23 101 60t67 78q20 35 27.5 91t7.5 165v1169h168v-1165q0 -68 -2.5 -115t-7.5 -84t-15 -65.5t-27 -57.5q-70 -123 -237 -180z" />
<glyph unicode="K" horiz-adv-x="1118" d="M184 0v1405h170v-1405h-170zM362 743l541 662h215l-565 -660l561 -745h-215z" />
<glyph unicode="L" horiz-adv-x="927" d="M184 0v1405h168v-1264h555l-22 -141h-701z" />
<glyph unicode="M" horiz-adv-x="1630" d="M133 0l123 1405h246l256 -918q29 -102 42 -173l13 -72l3 20q3 19 10.5 50.5t16.5 73.5t21 85l264 934h248l121 -1405h-168l-82 1030q-2 33 -4 75t-3 79t-2 62l-1 24q-2 -4 -9 -37t-20.5 -86t-25.5 -98l-301 -1049h-144l-278 997q-35 119 -53 197l-17 78l-2 -31t-4 -74 t-5 -89t-5 -79l-78 -999h-162z" />
<glyph unicode="N" horiz-adv-x="1302" d="M184 0v1405h195l467 -897q27 -53 51.5 -105.5t41.5 -94.5t27 -68l11 -27l-3 38q-3 38 -6 99.5t-6.5 138t-3.5 152.5l-6 764h166v-1405h-176l-450 860q-35 63 -64 123.5t-50.5 109t-33.5 77.5l-12 28l3 -34t6 -89t6 -123.5t3 -136.5l8 -815h-174z" />
<glyph unicode="O" horiz-adv-x="1374" d="M123 709q0 168 39 301t110.5 226t176 143.5t233.5 50.5q92 0 162.5 -22t124 -55.5t92.5 -74.5t63 -78q66 -98 96.5 -224t30.5 -296q0 -203 -49 -338t-155 -233q-78 -72 -162 -104t-195 -32q-129 0 -228.5 48.5t-170.5 130.5q-168 193 -168 557zM309 743 q0 -160 24.5 -288.5t65.5 -200.5q20 -35 53 -62.5t73 -47t85 -31t88 -11.5q86 0 150.5 31t112.5 90q27 33 46 72t31.5 90t18.5 117.5t6 152.5q0 156 -16.5 264.5t-51.5 182.5q-37 78 -113.5 135t-199.5 57q-98 0 -179 -44t-122 -120q-37 -70 -54.5 -163t-17.5 -224z" />
<glyph unicode="P" horiz-adv-x="1101" d="M184 0v1405h389q115 0 182.5 -14.5t125.5 -51.5q180 -118 180 -335q0 -109 -28.5 -190t-98.5 -144q-72 -63 -152 -87t-188 -24h-246v-559h-164zM348 696h236q90 0 137 17.5t82 58.5q71 80 71 199q0 154 -81 223q-43 37 -104.5 53.5t-162.5 16.5h-178v-568z" />
<glyph unicode="Q" horiz-adv-x="1374" d="M123 709q0 168 39 301t110.5 226t176 143.5t233.5 50.5q82 0 150.5 -18.5t124 -50.5t97.5 -74t70 -87q66 -102 97.5 -226t31.5 -294q0 -203 -50 -337t-156 -234q-43 -39 -91 -68q43 -14 95.5 -44t93.5 -52q29 -16 77 -37t111 -21q29 0 52.5 3.5t31.5 7.5l-55 -134 q-37 -18 -121 -18q-33 0 -69.5 11.5t-72.5 26.5t-69 33.5t-57 35.5q-37 23 -66.5 41t-62.5 31.5t-72 25.5t-96 22q-131 0 -225.5 53.5t-157.5 125.5q-170 195 -170 557zM309 743q0 -160 25.5 -288.5t66.5 -200.5q41 -70 124 -111t175 -41q86 0 149.5 30t111.5 91 q27 33 46 74t32.5 92t19.5 116.5t6 149.5q0 156 -17.5 264.5t-52.5 182.5q-16 35 -42.5 69.5t-64.5 62.5t-88 44t-118 16q-98 0 -177 -45t-120 -119q-39 -70 -57.5 -163t-18.5 -224z" />
<glyph unicode="R" horiz-adv-x="1118" d="M184 0v1405h328q72 0 127 -6t97 -18.5t74 -29t56 -36.5q25 -18 49.5 -46t44 -65t33 -83t13.5 -101q0 -86 -27 -157.5t-76 -122t-117.5 -78t-152.5 -27.5h-21q49 -41 84 -85t58 -73q18 -25 57 -81t83 -121.5t87 -130t68.5 -102.5t27.5 -42h-211q-16 35 -47 91t-77 127 t-105 154t-129 173q-41 51 -73 69.5t-83 20.5v-635h-168zM354 739h150q94 0 153.5 17.5t100.5 54.5q35 33 53 87t18 124t-38.5 129t-98.5 84q-35 14 -77 21.5t-99 7.5h-162v-525z" />
<glyph unicode="S" horiz-adv-x="1165" d="M102 100l74 131q88 -63 179 -91.5t198 -28.5q80 0 129 13t94 48q100 76 101 201q0 186 -252 262l-142 43q-96 29 -152.5 55.5t-97.5 69.5q-88 94 -88 229q0 90 33 164t92.5 127t143.5 83t186 30q223 0 424 -136l-74 -120q-51 33 -94 55t-83 36.5t-80 20.5t-85 6 q-133 0 -206.5 -61t-73.5 -170q0 -86 54 -137t179 -92l162 -52q94 -29 149.5 -60.5t98.5 -80.5t67.5 -115.5t24.5 -132.5q0 -98 -50 -188t-145 -150q-70 -45 -143.5 -65.5t-171.5 -20.5q-127 0 -236.5 31t-214.5 96z" />
<glyph unicode="T" horiz-adv-x="929" d="M41 1264v141h930l-10 -141h-381v-1264h-162v1264h-377z" />
<glyph unicode="U" horiz-adv-x="1280" d="M174 397v1008h166v-946q0 -53 5 -111.5t20 -91.5q10 -23 29.5 -47.5t52 -45t79.5 -32.5t113 -12q88 0 151.5 22.5t96.5 65.5q35 47 44 97t9 122v979h166v-999q0 -127 -21.5 -198t-85.5 -124q-66 -55 -152.5 -82t-215.5 -27q-164 0 -261.5 49.5t-154.5 153.5 q-29 51 -35 111.5t-6 107.5z" />
<glyph unicode="V" horiz-adv-x="1161" d="M20 1405h183l297 -905q14 -47 28.5 -95.5t25.5 -92.5t18.5 -77.5t9.5 -48.5q6 27 27.5 103t58.5 190l301 926h172l-482 -1405h-165z" />
<glyph unicode="W" horiz-adv-x="1662" d="M41 1405h180l178 -821q14 -70 28.5 -146t25 -138t16.5 -103l6 -41l7 41q7 41 18.5 101t26 132t28.5 133l186 842h191l194 -873q18 -80 31.5 -149.5t23 -119.5t13.5 -79l4 -28l6 38q6 37 17.5 98.5t27 139.5t31.5 158l174 815h168l-322 -1405h-219l-174 780 q-18 84 -32.5 157t-23.5 127t-13 85l-4 31l-6 -33q-5 -33 -14 -86t-22.5 -124t-29.5 -144l-172 -793h-217z" />
<glyph unicode="X" horiz-adv-x="1097" d="M10 0l416 754l-373 651h199l280 -520l269 520h196l-352 -639l442 -766h-202l-348 645l-330 -645h-197z" />
<glyph unicode="Y" horiz-adv-x="1042" d="M-20 1405h206l267 -537q18 -39 35.5 -76.5t25.5 -58t10 -22.5l22 48q23 48 54 109l270 537h193l-457 -858v-547h-174v557z" />
<glyph unicode="Z" horiz-adv-x="1040" d="M82 0v129l600 1001q41 66 66 101l24 35l-40 -1t-105 -1h-525l48 141h800v-143l-583 -986q-35 -59 -61 -97l-25 -38l37 1q36 1 83 1h557l-43 -143h-833z" />
<glyph unicode="[" horiz-adv-x="563" d="M184 -319v1818h338v-123h-190v-1573h190v-122h-338z" />
<glyph unicode="\" horiz-adv-x="827" d="M41 1487l129 49l616 -1573l-129 -51z" />
<glyph unicode="]" horiz-adv-x="563" d="M41 -197h190v1573h-190v123h338v-1818h-338v122z" />
<glyph unicode="^" horiz-adv-x="1282" d="M123 563l457 887h122l457 -887h-151l-367 715l-367 -715h-151z" />
<glyph unicode="_" horiz-adv-x="1024" d="M0 -154h1024v-102h-1024v102z" />
<glyph unicode="`" horiz-adv-x="716" d="M102 1362l88 158l424 -267l-53 -96z" />
<glyph unicode="a" horiz-adv-x="1062" d="M113 264q0 174 141 270.5t399 96.5q33 0 53 -1l19 -1v71q0 68 -5 102t-28 58q-25 29 -57.5 42t-79.5 13q-43 0 -90 -10t-91 -27.5t-82 -39t-63 -43.5l-79 114q205 137 428 138q217 0 282 -160q16 -41 20 -99q3 -40 4 -85q0 -20 -1 -41l-9 -336q-1 -27 -1 -50 q-1 -28 1 -52q2 -42 11.5 -69.5t26 -46t44.5 -32.5l-82 -115q-53 16 -88.5 56t-50.5 94q-74 -74 -140.5 -106t-154.5 -32q-94 0 -157.5 27t-101.5 68t-53 93t-15 103zM291 279q0 -186 176 -187q78 0 145.5 44t102.5 116l6 266q-20 2 -38.5 3t-41.5 1q-96 0 -163.5 -16.5 t-108.5 -47t-59.5 -76.5t-18.5 -103z" />
<glyph unicode="b" horiz-adv-x="1150" d="M154 0q16 37 23 93.5t7 160.5v1003q0 100 -13 155l-13 54l159 31l13 -63q14 -62 14 -179v-237q0 -39 -2 -76l-2 -37q76 74 143.5 105.5t149.5 31.5q92 0 164.5 -35.5t124 -103t79 -164t27.5 -215.5q0 -123 -28.5 -224t-82 -173t-128 -112t-166.5 -40q-80 0 -159 39 t-122 97q-4 -33 -8 -56.5t-21 -54.5h-159zM342 240q41 -53 110.5 -88t141.5 -35q53 0 104.5 24.5t80 65.5t50 120t21.5 208q0 102 -13.5 165.5t-45.5 108.5q-29 41 -81.5 64.5t-111.5 23.5q-76 0 -145.5 -38t-110.5 -95v-524z" />
<glyph unicode="c" horiz-adv-x="940" d="M123 494q0 168 44 268t109 166q119 119 277 119q96 0 159.5 -33t118.5 -78l-88 -111q-53 45 -94 63.5t-100 18.5t-111.5 -30.5t-81.5 -83.5q-57 -106 -57 -334q0 -174 64.5 -264.5t187.5 -90.5q127 0 219 111l88 -102q-72 -72 -143.5 -104t-167.5 -32q-219 0 -326 154 q-51 74 -74.5 161t-23.5 202z" />
<glyph unicode="d" horiz-adv-x="1148" d="M123 502q0 328 211 473q49 35 95 49t101 14q86 0 158 -33.5t119 -95.5v25q0 20 -1 59t-1 74v428l160 -27v-1138q0 -133 7 -209t23 -121h-164l-10 32q-10 31 -12 72q-55 -63 -117.5 -90.5t-152.5 -27.5q-199 0 -307.5 135t-108.5 381zM299 506q0 -90 8 -155.5t33 -110.5 q35 -63 84 -91t121 -28q63 0 105 15.5t91 49.5q33 23 47 48l15 26v541q-39 53 -97.5 79.5t-150.5 26.5q-125 0 -190 -106q-37 -59 -51.5 -123t-14.5 -172z" />
<glyph unicode="e" horiz-adv-x="1046" d="M123 520q0 129 28.5 218t94.5 167q121 141 305 142q170 0 276 -111q33 -35 55.5 -72t36 -86t19.5 -114.5t6 -157.5v-23h-637v-24q0 -72 10.5 -127.5t36.5 -95.5q43 -66 109.5 -95.5t144.5 -29.5q145 0 250 96l62 -103q-68 -61 -157 -94t-188 -33q-213 0 -332.5 144.5 t-119.5 398.5zM307 604h467q-2 84 -13 137.5t-34 89.5q-27 41 -76 66t-108 25q-223 0 -236 -318z" />
<glyph unicode="f" horiz-adv-x="600" d="M86 899v121h98v160q0 57 11.5 98t29 70.5t37 49t35.5 32.5q72 53 180 53q135 0 225 -60l-59 -112q-29 16 -70 31.5t-81 15.5q-139 0 -140 -180v-158h283l-49 -121h-234v-899h-168v899h-98z" />
<glyph unicode="g" horiz-adv-x="1032" d="M92 -121q0 29 5 53.5t16 55.5l168 14q-10 -16 -19.5 -42t-9.5 -50q0 -82 59 -119q37 -23 91.5 -35t115.5 -12q119 0 183.5 41t64.5 137q0 86 -55 123q-29 20 -77 28.5t-124 8.5h-39q-20 0 -42.5 -1t-43.5 -1h-33q-92 0 -142 39t-50 108q0 61 40 101.5t144 72.5 q-104 33 -166.5 113t-62.5 182q0 76 27.5 139.5t76.5 109.5t119 70.5t154 24.5q57 0 96 -9t70.5 -19.5t64.5 -19.5t80 -9q41 0 72.5 10.5t68.5 34.5l98 -98q-47 -35 -85.5 -48.5t-86.5 -13.5q-43 0 -69 13q61 -78 61 -174q0 -86 -40 -161t-111 -120q-39 -25 -87.5 -35 t-103.5 -10q-104 -37 -144 -64.5t-40 -54.5q0 -49 82 -49h164q90 0 144 -12.5t101 -44.5q59 -41 86 -95.5t27 -119.5q0 -166 -109.5 -244t-295.5 -78q-121 0 -205 20.5t-136.5 55.5t-77 82t-24.5 102zM344 548q49 -52 148 -52q184 0 184 209q0 104 -43 154t-146 50 q-192 0 -192 -209q0 -100 49 -152z" />
<glyph unicode="h" horiz-adv-x="1140" d="M158 1466l159 31l13 -63q14 -62 14 -179v-237q0 -49 -3 -94l-3 -45q70 66 156 113.5t184 47.5q92 0 166 -45t96 -116q10 -31 13 -62t3 -86v-731h-157v705q0 57 -8.5 93t-30.5 58q-18 18 -49 29.5t-70 11.5q-74 0 -152.5 -45t-144.5 -127v-725h-160v1257q0 100 -13 155z " />
<glyph unicode="i" horiz-adv-x="534" d="M145 1333q0 53 36 90t89 37t89 -36t36 -89t-35.5 -89t-89.5 -36q-53 0 -89 36t-36 87zM184 0v1016l166 26v-1042h-166z" />
<glyph unicode="j" horiz-adv-x="532" d="M31 -299q53 23 83.5 53.5t46 70.5t19.5 91t4 119v977l164 32v-1024q0 -66 -6 -125t-23 -100q-29 -72 -83 -120t-125 -81zM141 1335q0 53 36 89t89 36t89 -36t36 -89t-36 -89t-89 -36t-89 36t-36 89z" />
<glyph unicode="k" horiz-adv-x="1032" d="M158 1466l159 31l13 -63q14 -62 14 -179v-1255h-160v1257q0 100 -13 155zM350 578l389 442h201l-401 -442l493 -578h-213z" />
<glyph unicode="l" horiz-adv-x="530" d="M160 1458l159 31l13 -63q14 -62 14 -179v-1042q0 -59 11.5 -81t45.5 -22q4 0 13 2l8 2l33 -104q-31 -14 -50.5 -18t-52.5 -4q-76 0 -121 43q-25 23 -37 56.5t-12 88.5v1081q0 100 -12 155z" />
<glyph unicode="m" horiz-adv-x="1642" d="M147 1008l156 36q2 -2 10.5 -22.5t17.5 -57t9 -71.5q25 29 59.5 56.5t74.5 49t82 35t81 13.5q76 0 142.5 -44.5t94.5 -125.5q74 78 162 124t166 46q115 0 185.5 -77t70.5 -200v-770h-164v754q0 149 -129 149h-2q-70 0 -130 -42t-140 -116v-745h-162v725q0 47 -6 78 t-23 53q-35 41 -104 41q-59 0 -119.5 -31.5t-140.5 -103.5v-762h-154v791q0 111 -18 164z" />
<glyph unicode="n" horiz-adv-x="1118" d="M145 1001l156 43q2 -2 10 -22.5t17.5 -58t9.5 -78.5q157 157 319 157h2q84 0 152 -40.5t98 -108.5q25 -55 25 -119v-774h-162v690q0 41 -2 67.5t-6 45t-11.5 32t-17.5 25.5q-37 43 -112 43q-31 0 -69 -11t-76 -30.5t-74.5 -46.5t-63.5 -55v-760h-156v786q0 111 -20 163z " />
<glyph unicode="o" horiz-adv-x="1103" d="M113 516q0 250 115.5 392.5t318.5 142.5q129 0 213 -51.5t137 -127.5q47 -70 70.5 -161.5t23.5 -216.5q0 -127 -32.5 -224.5t-91 -163t-138.5 -99.5t-176 -34q-211 0 -325.5 145.5t-114.5 397.5zM287 543q0 -109 17.5 -198t46 -136t85 -75t121.5 -28q80 0 137.5 40 t83.5 114q16 47 23.5 96t7.5 125q0 211 -47 307q-33 68 -93.5 100t-123.5 32q-68 0 -125.5 -30t-83.5 -81q-25 -47 -37 -110.5t-12 -155.5z" />
<glyph unicode="p" horiz-adv-x="1144" d="M162 1018l164 29l5 -35t5 -121q126 149 299 149h2q78 0 150.5 -32.5t121.5 -94.5q57 -72 85 -168t28 -233q0 -123 -19.5 -203t-62.5 -149q-55 -90 -135 -138.5t-180 -48.5q-78 0 -153 32t-128 87v-487l-160 -31v1225q0 117 -11 168zM344 240q117 -133 250 -134 q72 0 130 35t85 92q23 49 33 111t10 148q0 92 -12.5 168.5t-34.5 123.5q-25 53 -76 83t-113 30q-154 0 -272 -143v-514z" />
<glyph unicode="q" horiz-adv-x="1144" d="M123 479q0 152 22.5 245t73.5 163q57 78 135 121t170 43q84 0 154 -35t135 -109q0 10 2 25.5t5 32t6 32t8 23.5h157l-15 -66q-15 -67 -15 -196v-1141l-154 -33v531q-115 -133 -287 -133q-72 0 -127 19t-106 62q-76 63 -120 162t-44 254zM293 516q0 -84 8 -140.5t21.5 -94 t31 -61t35.5 -42.5q33 -31 72 -45t98 -14q78 0 142.5 41t105.5 116v486q-41 66 -113.5 105.5t-146.5 39.5q-66 0 -121 -32.5t-86 -92.5q-12 -25 -21.5 -51t-15.5 -57t-8 -69t-2 -89z" />
<glyph unicode="r" horiz-adv-x="643" d="M150 1004l159 43q2 -2 11 -24q8 -21 16 -61q6 -32 6 -65v-16q55 78 132 124t155 46q20 0 37 -5l18 -6l-66 -174q-20 8 -45 8q-96 0 -170 -73q-35 -35 -47 -67t-12 -95v-639h-160v786q0 113 -17 166z" />
<glyph unicode="s" horiz-adv-x="964" d="M102 72l62 118q158 -96 323 -96q94 0 150.5 47t56.5 129q0 70 -40 110t-128 58l-127 27q-127 27 -192.5 100.5t-65.5 179.5q0 70 27 127.5t75 98.5t114.5 64.5t146.5 23.5t163 -22.5t148 -59.5l-59 -119q-68 33 -128.5 53.5t-127.5 20.5q-88 0 -140.5 -46t-52.5 -122 q0 -59 33 -95t115 -53l135 -28q272 -58 272 -285q0 -74 -27.5 -135.5t-78.5 -105.5t-122 -68.5t-157 -24.5q-98 0 -197.5 28t-177.5 75z" />
<glyph unicode="t" horiz-adv-x="634" d="M51 899v121h133q0 37 2 82t5.5 84t6.5 66l3 26l168 37l-3 -27q-4 -26 -8 -69t-7 -95.5t-3 -103.5h256l-49 -121h-213v-657q0 -86 27.5 -119t103.5 -33q35 0 56.5 5t43.5 16l23 -103q-78 -41 -180 -41q-41 0 -73 7.5t-60 21.5q-53 27 -76 76t-23 127v700h-133z" />
<glyph unicode="u" horiz-adv-x="1120" d="M174 262v750l158 30v-733q0 -72 13 -109.5t48 -62.5q25 -16 57.5 -25.5t67.5 -9.5q76 0 147.5 50.5t112.5 134.5v723l158 26v-743q0 -96 15.5 -144.5t54.5 -82.5l-103 -109q-51 41 -75.5 77t-34.5 87q-117 -156 -324 -156q-98 0 -167 39t-101 107q-14 29 -20.5 67.5 t-6.5 83.5z" />
<glyph unicode="v" horiz-adv-x="948" d="M20 1012l164 35l238 -703q14 -41 25.5 -83t17.5 -64.5t6 -26.5h4l13 51q12 51 36 121l234 678h170l-383 -1030h-158z" />
<glyph unicode="w" horiz-adv-x="1402" d="M31 1012l159 35l164 -674q16 -72 26 -121l11 -49h6l9 46q10 46 26 101l182 670h174l179 -678q6 -27 16 -63.5t17.5 -59t7.5 -26.5h4q0 4 5 27.5t13 58t12 55.5l162 686h168l-289 -1028h-157l-203 717q-14 51 -21 81l-8 31h-4q0 -2 -3 -19.5t-9 -43t-10 -41.5l-205 -725 h-150z" />
<glyph unicode="x" horiz-adv-x="935" d="M0 0l381 565l-315 455h196l203 -340l197 340h186l-303 -455l391 -565h-195l-276 434l-277 -434h-188z" />
<glyph unicode="y" horiz-adv-x="919" d="M20 997l158 54l209 -662q12 -37 22.5 -81t19.5 -82t15 -64l5 -27h4q2 4 11 37t24.5 85t27.5 93l201 670h182l-350 -1057q-25 -78 -54.5 -140.5t-68.5 -111.5t-89 -81.5t-118 -49.5l-47 109q49 14 84 36.5t61.5 57.5t48 88t42.5 131l-66 -10q-4 25 -16.5 71t-26.5 99 t-30.5 105t-28.5 91z" />
<glyph unicode="z" horiz-adv-x="919" d="M82 0v123l555 770h-512v127h680v-131l-531 -766h564l-76 -123h-680z" />
<glyph unicode="{" horiz-adv-x="657" d="M82 528v123q33 0 64.5 16.5t56 46t40 72.5t15.5 97v360q0 61 20.5 109.5t51 81t68.5 49t75 16.5h143v-123h-110q-33 0 -52.5 -13t-30.5 -36.5t-14 -52.5t-3 -60v-360q0 -70 -20.5 -118t-49.5 -78.5t-58.5 -46t-48.5 -19.5v-4q18 -2 48 -15.5t59 -43t49.5 -80t20.5 -125.5 v-359q0 -31 3 -59.5t14 -51t30.5 -37t52.5 -14.5h110v-122h-143q-39 0 -77 16t-68.5 49t-50 81t-19.5 110v358q0 55 -15.5 98t-40 74t-56 46t-64.5 15z" />
<glyph unicode="|" horiz-adv-x="503" d="M184 -426v1974h135v-1974h-135z" />
<glyph unicode="}" horiz-adv-x="657" d="M41 -197h111q33 0 52 14.5t29.5 37t14.5 51t4 59.5v359q0 76 20.5 126t49 79.5t58.5 43t48 15.5v4q-18 4 -48 19.5t-58.5 46t-49 78.5t-20.5 118v360q0 31 -4 60t-14.5 52.5t-30 36.5t-51.5 13h-111v123h143q37 0 75 -16.5t68.5 -49t51 -80.5t20.5 -110v-360 q0 -53 15.5 -96.5t40 -73t56.5 -46t64 -16.5v-123q-33 0 -64.5 -15t-56 -46t-40 -74t-15.5 -98v-358q0 -61 -19.5 -109.5t-50 -81.5t-68.5 -49t-77 -16h-143v122z" />
<glyph unicode="~" horiz-adv-x="1187" d="M123 578q23 33 48.5 64.5t55 57t67.5 42t85 16.5q59 0 115.5 -21.5t110.5 -48t108.5 -48.5t109.5 -22q68 0 108 45.5t66 98.5l68 -98q-25 -33 -49.5 -65t-55 -57.5t-68.5 -42t-85 -16.5q-59 0 -114.5 21.5t-111 48.5t-109.5 48.5t-110 21.5q-68 0 -107.5 -45.5 t-64.5 -98.5z" />
<glyph unicode="&#xa1;" horiz-adv-x="577" d="M164 942q0 53 36 91t89 38t89 -37t36 -90t-36 -89t-89 -36t-89 36t-36 87zM190 -375l39 1026h123l39 -999z" />
<glyph unicode="&#xa2;" horiz-adv-x="940" d="M123 494q0 168 44 268t109 166q98 98 220 112v160h112v-160q72 -10 124 -37.5t99 -66.5l-88 -111q-41 35 -71.5 52.5t-63.5 23.5v-790q94 20 162 104l88 -102q-59 -59 -118.5 -91t-131.5 -40v-156h-112v154q-182 16 -275 151q-51 74 -74.5 161t-23.5 202zM299 459 q0 -309 197 -350v792q-43 -12 -80 -39.5t-60 -68.5q-57 -106 -57 -334z" />
<glyph unicode="&#xa3;" horiz-adv-x="1132" d="M102 0v160h222v516h-197v135h197v164q0 133 33.5 228t92 155.5t139.5 88.5t173 28t178 -31t152 -96l-113 -121q-47 47 -100.5 73.5t-120.5 26.5q-76 0 -126 -25.5t-81 -72.5t-43 -112.5t-12 -145.5v-160h331v-135h-331v-516h503v-160h-897z" />
<glyph unicode="&#xa4;" horiz-adv-x="1316" d="M102 178l127 -84l84 131q61 -23 131 -22q80 0 136 20l84 -129l131 84l-93 133q39 43 55.5 98.5t16.5 133.5q0 104 -27.5 171.5t-60.5 90.5l86 129l-131 82l-76 -133q-57 20 -123 20q-63 0 -118 -16l-78 129l-140 -82l91 -129q-82 -92 -82 -250q0 -152 75 -244zM254 571 q0 104 42 162t144 58q115 0 156 -69t41 -187q0 -106 -45 -163t-141 -57q-104 0 -150.5 60.5t-46.5 195.5z" />
<glyph unicode="&#xa5;" horiz-adv-x="1083" d="M0 1405h207l266 -537q14 -31 31.5 -69.5t28 -61t12.5 -26.5q2 4 12 26.5t28.5 60.5t35.5 70l270 537h192l-340 -639h306v-121h-369l-53 -98v-98h422v-121h-422v-328h-174v328h-398v121h398v108l-47 88h-351v121h285z" />
<glyph unicode="&#xa6;" horiz-adv-x="503" d="M184 414h135v-840h-135v840zM184 709v839h135v-839h-135z" />
<glyph unicode="&#xa7;" horiz-adv-x="1101" d="M123 -43l158 74q29 -94 97 -136t161 -42q43 0 83 10t70.5 33.5t49 59.5t18.5 85q0 37 -12.5 63.5t-38 49t-64.5 44t-90 48.5l-250 131q-72 37 -110.5 102.5t-38.5 147.5q0 109 58 176t148 110q-72 41 -114.5 99.5t-42.5 142.5q0 82 33.5 144.5t89 103.5t126 62.5 t144.5 21.5q53 0 106.5 -11.5t101.5 -34t87 -59t63 -88.5l-153 -84q-25 68 -85.5 98.5t-125.5 30.5q-39 0 -78 -10t-69.5 -31.5t-49 -55.5t-18.5 -79q0 -100 90 -147l201 -101q51 -27 106 -56.5t101.5 -69t75 -90.5t28.5 -121q0 -94 -49 -162t-127 -111q66 -43 103.5 -104.5 t37.5 -147.5q0 -88 -36 -153.5t-94 -108.5t-134 -64.5t-154 -21.5q-133 0 -242.5 60.5t-160.5 191.5zM315 653q0 -41 16.5 -69.5t41 -51t56.5 -39t63 -30.5l182 -88q51 23 92 71t41 107q0 43 -19.5 76t-48 59.5t-63.5 46t-68 35.5l-119 59q-31 -12 -61.5 -26.5t-55 -34.5 t-41 -48t-16.5 -67z" />
<glyph unicode="&#xa8;" horiz-adv-x="839" d="M102 1272q0 43 31 73.5t74 30.5q45 0 75.5 -30.5t30.5 -73.5q0 -45 -29.5 -77t-74.5 -32t-76 32t-31 77zM524 1272q0 43 31 73.5t76 30.5q43 0 74.5 -30.5t31.5 -73.5q0 -45 -30.5 -77t-73.5 -32q-45 0 -77 32t-32 77z" />
<glyph unicode="&#xa9;" horiz-adv-x="1769" d="M123 725q0 162 60.5 302t165 241.5t242.5 160t294 58.5t294 -58.5t242.5 -160t165 -241.5t60.5 -302q0 -164 -60.5 -303t-165 -240.5t-243 -160t-293.5 -58.5q-156 0 -294 58.5t-242.5 160t-165 240.5t-60.5 303zM258 725q0 -139 49 -258t133 -206t199 -137t246 -50 t244.5 50t198.5 137t134 206t49 258q0 137 -49 257t-134 207t-198.5 137t-244.5 50t-246 -50t-199 -137t-133 -207t-49 -257zM559 713q0 74 14.5 136t40.5 116q47 92 127 143t179 51q59 0 113 -17.5t93 -49.5l-57 -78q-35 27 -70.5 38t-78.5 11q-129 0 -189 -121 q-20 -41 -30.5 -95t-10.5 -132q0 -72 7.5 -117t23.5 -82q31 -72 86 -104.5t123 -32.5q49 0 85 12t70 39l58 -76q-100 -72 -228 -71q-84 0 -150.5 33.5t-113.5 93.5q-92 121 -92 303z" />
<glyph unicode="&#xaa;" horiz-adv-x="858" d="M102 492v110h641v-110h-641zM115 979q0 133 105.5 204.5t297.5 71.5h25q10 0 28 -2v74q0 135 -122 135q-61 0 -127 -25.5t-119 -66.5l-62 94q82 53 162 79t164 26q72 0 122 -23.5t75 -60.5q29 -43 33.5 -97.5t2.5 -111.5l-8 -275q-2 -66 10.5 -103.5t53.5 -59.5l-66 -90 q-84 27 -106 110q-55 -59 -108.5 -79.5t-113.5 -20.5q-72 0 -119.5 19.5t-76.5 51t-40 71.5t-11 79zM248 991q0 -141 133 -141q59 0 108.5 34t77.5 87l4 198q-20 4 -32 5h-27q-141 0 -202.5 -45.5t-61.5 -137.5z" />
<glyph unicode="&#xab;" horiz-adv-x="1011" d="M123 492l293 438l112 -74l-239 -364l239 -365l-112 -74zM504 492l293 438l112 -74l-239 -364l239 -365l-112 -74z" />
<glyph unicode="&#xac;" horiz-adv-x="1001" d="M102 444v146h797v-432h-145v286h-652z" />
<glyph unicode="&#xad;" horiz-adv-x="595" d="M102 469v156h392v-156h-392z" />
<glyph unicode="&#xae;" horiz-adv-x="1769" d="M123 725q0 162 60.5 302t165 241.5t242.5 160t294 58.5t294 -58.5t242.5 -160t165 -241.5t60.5 -302q0 -164 -60.5 -303t-165 -240.5t-243 -160t-293.5 -58.5q-156 0 -294 58.5t-242.5 160t-165 240.5t-60.5 303zM258 725q0 -139 49 -258t133 -206t199 -137t246 -50 t244.5 50t198.5 137t134 206t49 258q0 137 -49 257t-134 207t-198.5 137t-244.5 50t-246 -50t-199 -137t-133 -207t-49 -257zM649 307v846h238q76 0 123 -16.5t77 -44.5q29 -27 52.5 -70t23.5 -104q0 -49 -15 -92.5t-45 -75t-72 -50t-95 -16.5q29 -23 46 -42t28 -36 q14 -16 31.5 -42.5t39.5 -61.5q14 -23 33 -51.5t37 -57t32.5 -52.5t20.5 -34h-143q-18 35 -31.5 58.5t-38.5 66.5q-25 41 -42 69.5t-32.5 51t-33 44t-39.5 46.5q-16 18 -32.5 27.5t-43.5 11.5v-375h-119zM768 762h82q57 0 91 9t56 30q41 40 41 114q0 45 -21.5 78t-55.5 47 q-39 16 -105 17h-88v-295z" />
<glyph unicode="&#xaf;" horiz-adv-x="643" d="M41 1399v110h561v-110h-561z" />
<glyph unicode="&#xb0;" horiz-adv-x="823" d="M82 1067q0 164 87 256t241 92q156 0 243.5 -93t87.5 -267q0 -72 -19.5 -133.5t-59 -107.5t-102 -72.5t-148.5 -26.5q-154 0 -242 94t-88 258zM221 1083q0 -137 48 -196.5t149 -59.5q86 0 136 51.5t50 168.5q0 119 -42 187.5t-154 68.5q-98 0 -142.5 -54.5t-44.5 -165.5z " />
<glyph unicode="&#xb1;" horiz-adv-x="964" d="M102 602v146h308v272h145v-272h307v-146h-307v-287h-145v287h-308zM106 74v145h752v-145h-752z" />
<glyph unicode="&#xb2;" horiz-adv-x="712" d="M82 1223q82 68 151.5 97.5t141.5 29.5q51 0 97 -18.5t79 -50.5t52.5 -75t19.5 -92q0 -51 -17.5 -98t-45.5 -89t-61.5 -81t-68.5 -74l-68.5 -68.5t-60.5 -58.5q10 0 21.5 1t21.5 1h287l-31 -115h-506v82q41 29 86 68t105 102q102 109 143 181.5t41 132.5q0 59 -36 96 t-91 37t-101 -26.5t-91 -53.5z" />
<glyph unicode="&#xb3;" horiz-adv-x="722" d="M82 1233q55 49 131 83t154 34q111 0 182.5 -58.5t71.5 -152.5q0 -57 -29 -101.5t-82 -70.5q59 -27 95 -72t36 -111q0 -86 -58.5 -151.5t-140.5 -100.5q-45 -18 -108.5 -29t-130.5 -11q-23 0 -35 1t-41 5l-35 104q41 -6 55.5 -7t36.5 -1q78 0 139.5 14.5t112.5 59.5 q29 25 43.5 58.5t14.5 68.5q0 41 -24 71.5t-64 40.5q-12 2 -22.5 4t-25 4.5t-36.5 2.5h-60h-33v104h33q68 0 102.5 2t53.5 10q25 10 41 35t16 57q0 47 -33.5 77t-93.5 30q-59 0 -105 -21.5t-93 -54.5z" />
<glyph unicode="&#xb4;" horiz-adv-x="716" d="M102 1253l424 267l88 -158l-458 -205z" />
<glyph unicode="&#xb6;" horiz-adv-x="1210" d="M61 1028q0 201 125 311.5t342 110.5h498v-1708h-147v1573h-242v-1573h-148v905q-94 0 -172.5 30t-135 81t-88.5 120.5t-32 149.5z" />
<glyph unicode="&#xb7;" horiz-adv-x="595" d="M164 571q0 57 39 96.5t94 39.5t95 -39.5t40 -96.5q0 -55 -39 -95t-94 -40t-95 40t-40 95z" />
<glyph unicode="&#xb8;" horiz-adv-x="573" d="M102 -354l43 96q41 -18 66 -25.5t59 -7.5q29 0 51.5 16.5t22.5 45.5q0 31 -25.5 45t-52.5 14q-33 0 -53 -4l-18 20l41 154h124l-22 -86q78 -10 105.5 -51t27.5 -96q0 -29 -13.5 -60t-38 -55.5t-62.5 -39.5t-87 -15q-47 0 -92 16t-76 33z" />
<glyph unicode="&#xb9;" horiz-adv-x="645" d="M82 1165l254 170h104v-690h123v-113h-389v113h127v524q-43 -29 -90 -48t-94 -40z" />
<glyph unicode="&#xba;" horiz-adv-x="864" d="M102 1159q0 188 87 294t239 106q168 0 251 -111.5t83 -306.5q0 -188 -88 -288.5t-242 -100.5t-242 108.5t-88 298.5zM113 492v110h641v-110h-641zM244 1176q0 -164 47 -237t145 -73q88 0 133 64t45 205q0 92 -14 152.5t-38.5 96t-59.5 49t-76 13.5q-96 0 -139 -67.5 t-43 -202.5z" />
<glyph unicode="&#xbb;" horiz-adv-x="1011" d="M102 127l240 365l-240 364l113 74l293 -438l-293 -439zM483 127l240 365l-240 364l113 74l293 -438l-293 -439z" />
<glyph unicode="&#xbc;" horiz-adv-x="1925" d="M82 1165l254 170h104v-690h123v-113h-389v113h127v524q-43 -29 -90 -48t-94 -40zM375 -315l1079 1878h135l-1079 -1878h-135zM1243 145v97l299 563h154q-20 -39 -54 -105.5t-75 -144.5t-85 -158t-83 -143l14 2h191h6l-2 12q-4 16 -1 30.5t5 35.5l16 221l117 35v-318 l-2 -16h8h92v-111h-88h-12q0 -6 1 -12t1 -12v-123l-137 -37v158q0 6 1 13t1 13h-29h-338z" />
<glyph unicode="&#xbd;" horiz-adv-x="1873" d="M82 1165l254 170h104v-690h123v-113h-389v113h127v524q-43 -29 -90 -48t-94 -40zM336 -315l1079 1878h135l-1079 -1878h-135zM1243 690q82 68 151.5 97.5t141.5 29.5q51 0 97 -18.5t79 -50t52.5 -74.5t19.5 -92q0 -51 -17.5 -98.5t-45 -89.5t-61.5 -81t-69 -73.5 t-68.5 -68.5t-60.5 -58q10 0 21.5 1t21.5 1h287l-31 -115h-506v82q41 29 86 67.5t105 102.5q102 109 143 181.5t41 131.5t-35.5 96t-91.5 37q-55 0 -101 -26.5t-91 -53.5z" />
<glyph unicode="&#xbe;" horiz-adv-x="2013" d="M82 1233q55 49 131 83t154 34q111 0 182.5 -58.5t71.5 -152.5q0 -57 -29 -101.5t-82 -70.5q59 -27 95 -72t36 -111q0 -86 -58.5 -151.5t-140.5 -100.5q-45 -18 -108.5 -29t-130.5 -11q-23 0 -35 1t-41 5l-35 104q41 -6 55.5 -7t36.5 -1q78 0 139.5 14.5t112.5 59.5 q29 25 43.5 58.5t14.5 68.5q0 41 -24 71.5t-64 40.5q-12 2 -22.5 4t-25 4.5t-36.5 2.5h-60h-33v104h33q68 0 102.5 2t53.5 10q25 10 41 35t16 57q0 47 -33.5 77t-93.5 30q-59 0 -105 -21.5t-93 -54.5zM461 -315l1079 1878h135l-1079 -1878h-135zM1331 145v97l299 563h154 q-20 -39 -54 -105.5t-75 -144.5t-85 -158t-83 -143l14 2h191h6l-2 12q-4 16 -1 30.5t5 35.5l16 221l117 35v-318l-2 -16h8h92v-111h-88h-12q0 -6 1 -12t1 -12v-123l-137 -37v158q0 6 1 13t1 13h-29h-338z" />
<glyph unicode="&#xbf;" horiz-adv-x="876" d="M102 -80q0 76 29 133.5t67 98.5t72.5 65.5t46.5 34.5q141 113 91 336h137q29 -119 10.5 -223.5t-106.5 -188.5q-31 -29 -63 -51.5t-59.5 -48t-45 -60t-17.5 -88.5q0 -76 52.5 -123t132.5 -47q74 0 143.5 26t134.5 69l68 -113q-72 -55 -174.5 -88t-202.5 -33 q-141 0 -228.5 82t-87.5 219zM324 930q0 59 39.5 100t97.5 41q57 0 98 -41t41 -100q0 -57 -40 -97t-97 -40t-98 39.5t-41 97.5z" />
<glyph unicode="&#xc0;" horiz-adv-x="1173" d="M10 0l469 1405h219l465 -1405h-190l-133 432h-525l-135 -432h-170zM254 1690l88 157l424 -266l-53 -96zM360 569h437l-215 688z" />
<glyph unicode="&#xc1;" horiz-adv-x="1173" d="M10 0l469 1405h219l465 -1405h-190l-133 432h-525l-135 -432h-170zM360 569h437l-215 688zM410 1581l424 266l88 -157l-459 -205z" />
<glyph unicode="&#xc2;" horiz-adv-x="1173" d="M10 0l469 1405h219l465 -1405h-190l-133 432h-525l-135 -432h-170zM240 1567l348 276l350 -276l-74 -90l-284 174l-277 -174zM360 569h437l-215 688z" />
<glyph unicode="&#xc3;" horiz-adv-x="1173" d="M10 0l469 1405h219l465 -1405h-190l-133 432h-525l-135 -432h-170zM225 1630q51 63 103.5 96t142.5 33q47 0 77 -12t55.5 -25.5t54 -26t73.5 -12.5q49 0 80 23t63 57l58 -92q-51 -63 -104.5 -96t-143.5 -33q-47 0 -76.5 12.5t-55.5 25.5t-54.5 25.5t-73.5 12.5 q-49 0 -79 -22.5t-62 -57.5zM360 569h437l-215 688z" />
<glyph unicode="&#xc4;" horiz-adv-x="1173" d="M10 0l469 1405h219l465 -1405h-190l-133 432h-525l-135 -432h-170zM274 1599q0 43 31 74t74 31q45 0 75.5 -31t30.5 -74q0 -45 -29.5 -76.5t-74.5 -31.5t-76 31.5t-31 76.5zM360 569h437l-215 688zM696 1599q0 43 31 74t76 31q43 0 74.5 -31t31.5 -74q0 -45 -30.5 -76.5 t-73.5 -31.5q-45 0 -77 31.5t-32 76.5z" />
<glyph unicode="&#xc5;" horiz-adv-x="1173" d="M10 0l469 1405h219l465 -1405h-190l-133 432h-525l-135 -432h-170zM360 569h437l-215 688zM371 1677q0 45 16 84t46 69t69 47t82 17t83 -17t69.5 -47t47 -69t17.5 -84t-16.5 -84t-46 -68.5t-68.5 -47t-82 -17.5q-45 0 -84 17.5t-68.5 47t-47 68.5t-17.5 84zM465 1677 q0 -49 37 -86t86 -37q47 0 84 37t37 86t-37 86t-90 37q-47 0 -82 -37t-35 -86z" />
<glyph unicode="&#xc6;" horiz-adv-x="1792" d="M0 0l868 1405h832l-23 -141h-575v-459h481v-146h-481v-514h618v-145h-788v436h-483l-267 -436h-182zM532 573h400v670z" />
<glyph unicode="&#xc7;" horiz-adv-x="1153" d="M123 698q0 156 44 289t123 230.5t187.5 151.5t235.5 54q102 0 192 -29.5t162 -84.5l-90 -109q-63 47 -126 67.5t-140 20.5q-123 0 -209 -61.5t-137 -179.5q-31 -72 -45.5 -160t-14.5 -213q0 -102 10.5 -169t34.5 -128q53 -133 154.5 -197.5t222.5 -64.5q78 0 142.5 21.5 t131.5 68.5l91 -113q-84 -53 -182.5 -82.5t-202.5 -32.5l-17 -63q78 -10 105.5 -51t27.5 -96q0 -29 -13 -60t-37.5 -55.5t-62.5 -39.5t-87 -15q-47 0 -92.5 16t-75.5 33l43 96q41 -18 65.5 -25.5t59.5 -7.5q29 0 51 16.5t22 45.5q0 31 -25.5 45t-52.5 14q-33 0 -53 -4 l-18 20l39 144q-84 18 -160 61t-135 113q-90 102 -129 239.5t-39 294.5z" />
<glyph unicode="&#xc8;" horiz-adv-x="1044" d="M184 0v1405h768l-22 -139h-576v-461h482v-146h-482v-514h619v-145h-789zM291 1690l88 157l424 -266l-53 -96z" />
<glyph unicode="&#xc9;" horiz-adv-x="1044" d="M184 0v1405h768l-22 -139h-576v-461h482v-146h-482v-514h619v-145h-789zM352 1581l424 266l88 -157l-458 -205z" />
<glyph unicode="&#xca;" horiz-adv-x="1044" d="M184 0v1405h768l-22 -139h-576v-461h482v-146h-482v-514h619v-145h-789zM227 1567l348 276l351 -276l-74 -90l-285 174l-276 -174z" />
<glyph unicode="&#xcb;" horiz-adv-x="1044" d="M184 0v1405h768l-22 -139h-576v-461h482v-146h-482v-514h619v-145h-789zM258 1599q0 43 30.5 74t73.5 31q45 0 76 -31t31 -74q0 -45 -29.5 -76.5t-74.5 -31.5t-76 31.5t-31 76.5zM680 1599q0 43 30.5 74t75.5 31q43 0 75 -31t32 -74q0 -45 -31 -76.5t-74 -31.5 q-45 0 -76.5 31.5t-31.5 76.5z" />
<glyph unicode="&#xcc;" horiz-adv-x="532" d="M-94 1690l88 157l424 -266l-53 -96zM184 0v1405h164v-1405h-164z" />
<glyph unicode="&#xcd;" horiz-adv-x="532" d="M127 1581l424 266l88 -157l-459 -205zM184 0v1405h164v-1405h-164z" />
<glyph unicode="&#xce;" horiz-adv-x="532" d="M-82 1567l348 276l350 -276l-73 -90l-285 174l-276 -174zM184 0v1405h164v-1405h-164z" />
<glyph unicode="&#xcf;" horiz-adv-x="532" d="M-51 1599q0 43 30.5 74t73.5 31q45 0 76 -31t31 -74q0 -45 -30 -76.5t-75 -31.5t-75.5 31.5t-30.5 76.5zM184 0v1405h164v-1405h-164zM371 1599q0 43 30.5 74t75.5 31q43 0 75 -31t32 -74q0 -45 -31 -76.5t-74 -31.5q-45 0 -76.5 31.5t-31.5 76.5z" />
<glyph unicode="&#xd0;" horiz-adv-x="1275" d="M12 657v121h172v627h281q80 0 141.5 -3t112.5 -14.5t98 -33t98 -58.5q121 -86 179.5 -237.5t58.5 -358.5q0 -186 -44 -316t-116 -208q-47 -51 -94 -85t-99 -54.5t-113.5 -28.5t-135.5 -8h-367v657h-172zM352 139h168q55 0 106.5 4t97.5 19.5t85 45.5t68 79 q47 82 70.5 182t23.5 211q0 158 -25.5 266.5t-95.5 192.5q-35 41 -70 66.5t-74.5 38.5t-85 18.5t-100.5 5.5h-168v-490h326l-49 -121h-277v-518z" />
<glyph unicode="&#xd1;" horiz-adv-x="1302" d="M184 0v1405h195l467 -897q27 -53 51.5 -105.5t41.5 -94.5t27 -68l11 -27l-3 38q-3 38 -6 99.5t-6.5 138t-3.5 152.5l-6 764h166v-1405h-176l-450 860q-35 63 -64 123.5t-50.5 109t-33.5 77.5l-12 28l3 -34t6 -89t6 -123.5t3 -136.5l8 -815h-174zM289 1630q51 63 103 96 t143 33q47 0 76.5 -12t55 -25.5t54.5 -26t74 -12.5q49 0 79.5 23t63.5 57l57 -92q-51 -63 -104 -96t-143 -33q-47 0 -77 12.5t-55.5 25.5t-54.5 25.5t-74 12.5q-49 0 -78.5 -22.5t-62.5 -57.5z" />
<glyph unicode="&#xd2;" horiz-adv-x="1374" d="M123 709q0 168 39 301t110.5 226t176 143.5t233.5 50.5q92 0 162.5 -22t124 -55.5t92.5 -74.5t63 -78q66 -98 96.5 -224t30.5 -296q0 -203 -49 -338t-155 -233q-78 -72 -162 -104t-195 -32q-129 0 -228.5 48.5t-170.5 130.5q-168 193 -168 557zM309 743 q0 -160 24.5 -288.5t65.5 -200.5q20 -35 53 -62.5t73 -47t85 -31t88 -11.5q86 0 150.5 31t112.5 90q27 33 46 72t31.5 90t18.5 117.5t6 152.5q0 156 -16.5 264.5t-51.5 182.5q-37 78 -113.5 135t-199.5 57q-98 0 -179 -44t-122 -120q-37 -70 -54.5 -163t-17.5 -224z M387 1690l88 157l424 -266l-53 -96z" />
<glyph unicode="&#xd3;" horiz-adv-x="1374" d="M123 709q0 168 39 301t110.5 226t176 143.5t233.5 50.5q92 0 162.5 -22t124 -55.5t92.5 -74.5t63 -78q66 -98 96.5 -224t30.5 -296q0 -203 -49 -338t-155 -233q-78 -72 -162 -104t-195 -32q-129 0 -228.5 48.5t-170.5 130.5q-168 193 -168 557zM309 743 q0 -160 24.5 -288.5t65.5 -200.5q20 -35 53 -62.5t73 -47t85 -31t88 -11.5q86 0 150.5 31t112.5 90q27 33 46 72t31.5 90t18.5 117.5t6 152.5q0 156 -16.5 264.5t-51.5 182.5q-37 78 -113.5 135t-199.5 57q-98 0 -179 -44t-122 -120q-37 -70 -54.5 -163t-17.5 -224z M516 1581l424 266l88 -157l-459 -205z" />
<glyph unicode="&#xd4;" horiz-adv-x="1374" d="M123 709q0 168 39 301t110.5 226t176 143.5t233.5 50.5q92 0 162.5 -22t124 -55.5t92.5 -74.5t63 -78q66 -98 96.5 -224t30.5 -296q0 -203 -49 -338t-155 -233q-78 -72 -162 -104t-195 -32q-129 0 -228.5 48.5t-170.5 130.5q-168 193 -168 557zM309 743 q0 -160 24.5 -288.5t65.5 -200.5q20 -35 53 -62.5t73 -47t85 -31t88 -11.5q86 0 150.5 31t112.5 90q27 33 46 72t31.5 90t18.5 117.5t6 152.5q0 156 -16.5 264.5t-51.5 182.5q-37 78 -113.5 135t-199.5 57q-98 0 -179 -44t-122 -120q-37 -70 -54.5 -163t-17.5 -224z M342 1567l348 276l350 -276l-73 -90l-285 174l-276 -174z" />
<glyph unicode="&#xd5;" horiz-adv-x="1374" d="M123 709q0 168 39 301t110.5 226t176 143.5t233.5 50.5q92 0 162.5 -22t124 -55.5t92.5 -74.5t63 -78q66 -98 96.5 -224t30.5 -296q0 -203 -49 -338t-155 -233q-78 -72 -162 -104t-195 -32q-129 0 -228.5 48.5t-170.5 130.5q-168 193 -168 557zM309 743 q0 -160 24.5 -288.5t65.5 -200.5q20 -35 53 -62.5t73 -47t85 -31t88 -11.5q86 0 150.5 31t112.5 90q27 33 46 72t31.5 90t18.5 117.5t6 152.5q0 156 -16.5 264.5t-51.5 182.5q-37 78 -113.5 135t-199.5 57q-98 0 -179 -44t-122 -120q-37 -70 -54.5 -163t-17.5 -224z M334 1630q51 63 103 96t143 33q47 0 76.5 -12t55 -25.5t54.5 -26t74 -12.5q49 0 79.5 23t63.5 57l57 -92q-51 -63 -104 -96t-143 -33q-47 0 -77 12.5t-55.5 25.5t-54 25.5t-74.5 12.5q-49 0 -78.5 -22.5t-62.5 -57.5z" />
<glyph unicode="&#xd6;" horiz-adv-x="1374" d="M123 709q0 168 39 301t110.5 226t176 143.5t233.5 50.5q92 0 162.5 -22t124 -55.5t92.5 -74.5t63 -78q66 -98 96.5 -224t30.5 -296q0 -203 -49 -338t-155 -233q-78 -72 -162 -104t-195 -32q-129 0 -228.5 48.5t-170.5 130.5q-168 193 -168 557zM309 743 q0 -160 24.5 -288.5t65.5 -200.5q20 -35 53 -62.5t73 -47t85 -31t88 -11.5q86 0 150.5 31t112.5 90q27 33 46 72t31.5 90t18.5 117.5t6 152.5q0 156 -16.5 264.5t-51.5 182.5q-37 78 -113.5 135t-199.5 57q-98 0 -179 -44t-122 -120q-37 -70 -54.5 -163t-17.5 -224z M365 1599q0 43 30.5 74t73.5 31q45 0 75.5 -31t30.5 -74q0 -45 -29.5 -76.5t-74.5 -31.5t-75.5 31.5t-30.5 76.5zM784 1599q0 43 31 74t76 31q43 0 74.5 -31t31.5 -74q0 -45 -30.5 -76.5t-73.5 -31.5q-45 0 -77 31.5t-32 76.5z" />
<glyph unicode="&#xd7;" horiz-adv-x="1093" d="M184 254l258 258l-258 258l105 104l258 -258l258 258l104 -104l-258 -258l258 -258l-104 -104l-258 258l-258 -258z" />
<glyph unicode="&#xd8;" horiz-adv-x="1374" d="M123 709q0 168 39 301t110.5 226t176 143.5t233.5 50.5q104 0 182 -28t135 -69l131 219l109 -65l-145 -244q82 -100 119.5 -237.5t37.5 -325.5q0 -203 -49 -338t-155 -233q-78 -72 -162 -104t-195 -32q-92 0 -168 25t-137 68l-139 -232l-107 66l152 252 q-168 193 -168 557zM309 743q0 -137 18.5 -252.5t49.5 -193.5l545 907q-43 41 -102.5 65.5t-137.5 24.5q-98 0 -179 -44t-122 -120q-37 -70 -54.5 -163t-17.5 -224zM459 186q47 -39 111.5 -61.5t127.5 -22.5q86 0 150.5 31t112.5 90q27 33 46 72t31.5 90t18.5 117.5t6 152.5 q0 150 -15.5 255.5t-46.5 179.5z" />
<glyph unicode="&#xd9;" horiz-adv-x="1280" d="M174 397v1008h166v-946q0 -53 5 -111.5t20 -91.5q10 -23 29.5 -47.5t52 -45t79.5 -32.5t113 -12q88 0 151.5 22.5t96.5 65.5q35 47 44 97t9 122v979h166v-999q0 -127 -21.5 -198t-85.5 -124q-66 -55 -152.5 -82t-215.5 -27q-164 0 -261.5 49.5t-154.5 153.5 q-29 51 -35 111.5t-6 107.5zM307 1690l88 157l424 -266l-53 -96z" />
<glyph unicode="&#xda;" horiz-adv-x="1280" d="M174 397v1008h166v-946q0 -53 5 -111.5t20 -91.5q10 -23 29.5 -47.5t52 -45t79.5 -32.5t113 -12q88 0 151.5 22.5t96.5 65.5q35 47 44 97t9 122v979h166v-999q0 -127 -21.5 -198t-85.5 -124q-66 -55 -152.5 -82t-215.5 -27q-164 0 -261.5 49.5t-154.5 153.5 q-29 51 -35 111.5t-6 107.5zM383 1581l424 266l88 -157l-459 -205z" />
<glyph unicode="&#xdb;" horiz-adv-x="1280" d="M174 397v1008h166v-946q0 -53 5 -111.5t20 -91.5q10 -23 29.5 -47.5t52 -45t79.5 -32.5t113 -12q88 0 151.5 22.5t96.5 65.5q35 47 44 97t9 122v979h166v-999q0 -127 -21.5 -198t-85.5 -124q-66 -55 -152.5 -82t-215.5 -27q-164 0 -261.5 49.5t-154.5 153.5 q-29 51 -35 111.5t-6 107.5zM291 1567l348 276l350 -276l-74 -90l-284 174l-277 -174z" />
<glyph unicode="&#xdc;" horiz-adv-x="1280" d="M174 397v1008h166v-946q0 -53 5 -111.5t20 -91.5q10 -23 29.5 -47.5t52 -45t79.5 -32.5t113 -12q88 0 151.5 22.5t96.5 65.5q35 47 44 97t9 122v979h166v-999q0 -127 -21.5 -198t-85.5 -124q-66 -55 -152.5 -82t-215.5 -27q-164 0 -261.5 49.5t-154.5 153.5 q-29 51 -35 111.5t-6 107.5zM324 1599q0 43 30.5 74t73.5 31q45 0 76 -31t31 -74q0 -45 -30 -76.5t-75 -31.5t-75.5 31.5t-30.5 76.5zM743 1599q0 43 31 74t76 31q43 0 74.5 -31t31.5 -74q0 -45 -30.5 -76.5t-73.5 -31.5q-45 0 -77 31.5t-32 76.5z" />
<glyph unicode="&#xdd;" horiz-adv-x="1042" d="M-20 1405h206l267 -537q18 -39 35.5 -76.5t25.5 -58t10 -22.5l22 48q23 48 54 109l270 537h193l-457 -858v-547h-174v557zM315 1583l424 266l88 -157l-458 -205z" />
<glyph unicode="&#xde;" horiz-adv-x="1101" d="M184 0v1405h164v-266h225q115 0 182.5 -14.5t125.5 -51.5q180 -119 180 -336q0 -109 -28.5 -189.5t-98.5 -144.5q-72 -63 -152 -86.5t-188 -23.5h-246v-293h-164zM348 430h236q90 0 137 17.5t82 58.5q71 80 71 199q0 78 -19 132t-62 91t-104.5 53t-162.5 16h-178v-567z " />
<glyph unicode="&#xdf;" horiz-adv-x="1161" d="M33 899v121h151q0 106 14.5 175t67.5 130t128 94t173 33q80 0 146.5 -23.5t116 -66.5t77 -100.5t27.5 -124.5q0 -49 -15.5 -88t-40 -69t-55 -50.5t-61.5 -34.5q-29 -14 -54.5 -22.5t-45 -16.5t-30.5 -18.5t-11 -26.5q0 -14 23.5 -28.5t64.5 -32t93 -41t111 -58.5 q68 -41 107 -119t39 -176q0 -78 -29 -147.5t-79 -121.5t-120.5 -82t-156.5 -30q-59 0 -113.5 10.5t-89.5 26.5l47 107q29 -12 60.5 -19.5t72.5 -7.5q51 0 94 20.5t75 55.5t50.5 82t18.5 100q0 57 -13.5 97t-39 68t-63.5 49.5t-85 43.5q-55 25 -95 45.5t-66.5 42t-40 46 t-13.5 59.5q0 39 16.5 66.5t42 48t56 36t61.5 29.5q45 23 80 57.5t35 110.5q0 82 -57.5 133t-151.5 51q-98 0 -155.5 -68.5t-57.5 -222.5v-835q0 -131 -25 -207h-153q10 43 15 105.5t5 134.5v659h-151z" />
<glyph unicode="&#xe0;" horiz-adv-x="1062" d="M113 264q0 174 141 270.5t399 96.5q33 0 53 -1l19 -1v71q0 68 -5 102t-28 58q-25 29 -57.5 42t-79.5 13q-43 0 -90 -10t-91 -27.5t-82 -39t-63 -43.5l-79 114q205 137 428 138q217 0 282 -160q16 -41 20.5 -98.5t2.5 -126.5l-9 -336q-2 -61 0.5 -102.5t11.5 -69t25.5 -46 t44.5 -32.5l-82 -115q-53 16 -88.5 56t-50.5 94q-74 -74 -140.5 -106t-154.5 -32q-94 0 -157.5 27t-101.5 68t-53 93t-15 103zM250 1362l88 158l424 -267l-53 -96zM291 279q0 -186 176 -187q78 0 145.5 44t102.5 116l6 266q-20 2 -38.5 3t-41.5 1q-96 0 -163.5 -16.5 t-108.5 -47t-59.5 -76.5t-18.5 -103z" />
<glyph unicode="&#xe1;" horiz-adv-x="1062" d="M113 264q0 174 141 270.5t399 96.5q33 0 53 -1l19 -1v71q0 68 -5 102t-28 58q-25 29 -57.5 42t-79.5 13q-43 0 -90 -10t-91 -27.5t-82 -39t-63 -43.5l-79 114q205 137 428 138q217 0 282 -160q16 -41 20.5 -98.5t2.5 -126.5l-9 -336q-2 -61 0.5 -102.5t11.5 -69t25.5 -46 t44.5 -32.5l-82 -115q-53 16 -88.5 56t-50.5 94q-74 -74 -140.5 -106t-154.5 -32q-94 0 -157.5 27t-101.5 68t-53 93t-15 103zM291 279q0 -186 176 -187q78 0 145.5 44t102.5 116l6 266q-20 2 -38.5 3t-41.5 1q-96 0 -163.5 -16.5t-108.5 -47t-59.5 -76.5t-18.5 -103z M319 1253l424 267l88 -158l-458 -205z" />
<glyph unicode="&#xe2;" horiz-adv-x="1062" d="M113 264q0 174 141 270.5t399 96.5q33 0 53 -1l19 -1v71q0 68 -5 102t-28 58q-25 29 -57.5 42t-79.5 13q-43 0 -90 -10t-91 -27.5t-82 -39t-63 -43.5l-79 114q205 137 428 138q217 0 282 -160q16 -41 20.5 -98.5t2.5 -126.5l-9 -336q-2 -61 0.5 -102.5t11.5 -69t25.5 -46 t44.5 -32.5l-82 -115q-53 16 -88.5 56t-50.5 94q-74 -74 -140.5 -106t-154.5 -32q-94 0 -157.5 27t-101.5 68t-53 93t-15 103zM186 1239l349 277l350 -277l-74 -90l-285 174l-276 -174zM291 279q0 -186 176 -187q78 0 145.5 44t102.5 116l6 266q-20 2 -38.5 3t-41.5 1 q-96 0 -163.5 -16.5t-108.5 -47t-59.5 -76.5t-18.5 -103z" />
<glyph unicode="&#xe3;" horiz-adv-x="1062" d="M113 264q0 174 141 270.5t399 96.5q33 0 53 -1l19 -1v71q0 68 -5 102t-28 58q-25 29 -57.5 42t-79.5 13q-43 0 -90 -10t-91 -27.5t-82 -39t-63 -43.5l-79 114q205 137 428 138q217 0 282 -160q16 -41 20.5 -98.5t2.5 -126.5l-9 -336q-2 -61 0.5 -102.5t11.5 -69t25.5 -46 t44.5 -32.5l-82 -115q-53 16 -88.5 56t-50.5 94q-74 -74 -140.5 -106t-154.5 -32q-94 0 -157.5 27t-101.5 68t-53 93t-15 103zM184 1303q51 63 103.5 96t142.5 33q47 0 77 -12.5t55.5 -26t54 -25.5t73.5 -12q49 0 80 22.5t64 57.5l57 -93q-51 -63 -104.5 -96t-143.5 -33 q-47 0 -76.5 12.5t-55.5 26t-54.5 25.5t-73.5 12q-49 0 -79 -22.5t-62 -57.5zM291 279q0 -186 176 -187q78 0 145.5 44t102.5 116l6 266q-20 2 -38.5 3t-41.5 1q-96 0 -163.5 -16.5t-108.5 -47t-59.5 -76.5t-18.5 -103z" />
<glyph unicode="&#xe4;" horiz-adv-x="1062" d="M113 264q0 174 141 270.5t399 96.5q33 0 53 -1l19 -1v71q0 68 -5 102t-28 58q-25 29 -57.5 42t-79.5 13q-43 0 -90 -10t-91 -27.5t-82 -39t-63 -43.5l-79 114q205 137 428 138q217 0 282 -160q16 -41 20.5 -98.5t2.5 -126.5l-9 -336q-2 -61 0.5 -102.5t11.5 -69t25.5 -46 t44.5 -32.5l-82 -115q-53 16 -88.5 56t-50.5 94q-74 -74 -140.5 -106t-154.5 -32q-94 0 -157.5 27t-101.5 68t-53 93t-15 103zM233 1272q0 43 31 73.5t74 30.5q45 0 75.5 -30.5t30.5 -73.5q0 -45 -29.5 -77t-74.5 -32t-76 32t-31 77zM291 279q0 -186 176 -187q78 0 145.5 44 t102.5 116l6 266q-20 2 -38.5 3t-41.5 1q-96 0 -163.5 -16.5t-108.5 -47t-59.5 -76.5t-18.5 -103zM655 1272q0 43 31 73.5t76 30.5q43 0 74.5 -30.5t31.5 -73.5q0 -45 -30.5 -77t-73.5 -32q-45 0 -77 32t-32 77z" />
<glyph unicode="&#xe5;" horiz-adv-x="1062" d="M113 264q0 174 141 270.5t399 96.5q33 0 53 -1l19 -1v71q0 68 -5 102t-28 58q-25 29 -57.5 42t-79.5 13q-43 0 -90 -10t-91 -27.5t-82 -39t-63 -43.5l-79 114q205 137 428 138q217 0 282 -160q16 -41 20.5 -98.5t2.5 -126.5l-9 -336q-2 -61 0.5 -102.5t11.5 -69t25.5 -46 t44.5 -32.5l-82 -115q-53 16 -88.5 56t-50.5 94q-74 -74 -140.5 -106t-154.5 -32q-94 0 -157.5 27t-101.5 68t-53 93t-15 103zM291 279q0 -186 176 -187q78 0 145.5 44t102.5 116l6 266q-20 2 -38.5 3t-41.5 1q-96 0 -163.5 -16.5t-108.5 -47t-59.5 -76.5t-18.5 -103z M344 1350q0 45 16.5 84t46 68.5t68.5 47t82 17.5t83 -17.5t69.5 -47t47 -68.5t17.5 -84t-16.5 -84t-46 -69t-68.5 -47t-82 -17q-45 0 -84 17t-68.5 47t-47 69t-17.5 84zM438 1350q0 -49 37 -86t86 -37q47 0 84 37t37 86t-37 86t-90 37q-47 0 -82 -37t-35 -86z" />
<glyph unicode="&#xe6;" horiz-adv-x="1607" d="M113 264q0 174 141 270.5t399 96.5q23 0 47 -1l25 -1v71q0 68 -5 102t-28 58q-25 29 -57.5 42t-79.5 13q-80 0 -167 -32.5t-159 -87.5l-79 114q205 137 428 138q92 0 151 -36t96 -98q59 61 130 98.5t157 37.5q170 0 277 -111q33 -35 55 -72t35.5 -87t19.5 -115.5 t6 -157.5v-23h-637v-34q0 -70 16.5 -131.5t51.5 -107.5t92 -72.5t141 -26.5q145 0 250 96l62 -103q-68 -61 -157 -94t-187 -33q-123 0 -214.5 52.5t-136.5 122.5q-33 -41 -74.5 -74t-87.5 -56.5t-93.5 -36t-90.5 -12.5q-96 0 -159.5 28t-100.5 71t-52 94t-15 98zM291 279 q0 -186 176 -187q78 0 145.5 44t102.5 116l6 266l-29 2q-28 2 -51 2q-188 0 -269 -62.5t-81 -180.5zM868 604h467q0 160 -54 239t-177 79q-223 0 -236 -318z" />
<glyph unicode="&#xe7;" horiz-adv-x="940" d="M123 494q0 168 44 268t109 166q119 119 277 119q96 0 159.5 -33t118.5 -78l-88 -111q-53 45 -94 63.5t-100 18.5t-111.5 -30.5t-81.5 -83.5q-57 -106 -57 -334q0 -174 64.5 -264.5t187.5 -90.5q127 0 219 111l88 -102q-70 -72 -139.5 -102.5t-161.5 -33.5l-16 -63 q78 -10 105.5 -51t27.5 -96q0 -29 -13.5 -60t-38 -55.5t-62.5 -39.5t-87 -15q-47 0 -92 16t-76 33l43 96q41 -18 65.5 -25.5t59.5 -7.5q29 0 51.5 16.5t22.5 45.5q0 31 -25.5 45t-52.5 14q-33 0 -53 -4l-19 20l39 144q-139 31 -215 141q-51 74 -74.5 161t-23.5 202z" />
<glyph unicode="&#xe8;" horiz-adv-x="1046" d="M123 520q0 129 28.5 218t94.5 167q121 141 305 142q170 0 276 -111q33 -35 55.5 -72t36 -86t19.5 -114.5t6 -157.5v-23h-637v-24q0 -72 10.5 -127.5t36.5 -95.5q43 -66 109.5 -95.5t144.5 -29.5q145 0 250 96l62 -103q-68 -61 -157 -94t-188 -33q-213 0 -332.5 144.5 t-119.5 398.5zM262 1362l88 158l424 -267l-53 -96zM307 604h467q-2 84 -13 137.5t-34 89.5q-27 41 -76 66t-108 25q-223 0 -236 -318z" />
<glyph unicode="&#xe9;" horiz-adv-x="1046" d="M123 520q0 129 28.5 218t94.5 167q121 141 305 142q170 0 276 -111q33 -35 55.5 -72t36 -86t19.5 -114.5t6 -157.5v-23h-637v-24q0 -72 10.5 -127.5t36.5 -95.5q43 -66 109.5 -95.5t144.5 -29.5q145 0 250 96l62 -103q-68 -61 -157 -94t-188 -33q-213 0 -332.5 144.5 t-119.5 398.5zM307 604h467q-2 84 -13 137.5t-34 89.5q-27 41 -76 66t-108 25q-223 0 -236 -318zM317 1253l424 267l88 -158l-458 -205z" />
<glyph unicode="&#xea;" horiz-adv-x="1046" d="M123 520q0 129 28.5 218t94.5 167q121 141 305 142q170 0 276 -111q33 -35 55.5 -72t36 -86t19.5 -114.5t6 -157.5v-23h-637v-24q0 -72 10.5 -127.5t36.5 -95.5q43 -66 109.5 -95.5t144.5 -29.5q145 0 250 96l62 -103q-68 -61 -157 -94t-188 -33q-213 0 -332.5 144.5 t-119.5 398.5zM201 1239l348 277l350 -277l-74 -90l-284 174l-277 -174zM307 604h467q-2 84 -13 137.5t-34 89.5q-27 41 -76 66t-108 25q-223 0 -236 -318z" />
<glyph unicode="&#xeb;" horiz-adv-x="1046" d="M123 520q0 129 28.5 218t94.5 167q121 141 305 142q170 0 276 -111q33 -35 55.5 -72t36 -86t19.5 -114.5t6 -157.5v-23h-637v-24q0 -72 10.5 -127.5t36.5 -95.5q43 -66 109.5 -95.5t144.5 -29.5q145 0 250 96l62 -103q-68 -61 -157 -94t-188 -33q-213 0 -332.5 144.5 t-119.5 398.5zM227 1272q0 43 31 73.5t74 30.5q45 0 75.5 -30.5t30.5 -73.5q0 -45 -29.5 -77t-74.5 -32t-76 32t-31 77zM307 604h467q-2 84 -13 137.5t-34 89.5q-27 41 -76 66t-108 25q-223 0 -236 -318zM649 1272q0 43 31 73.5t76 30.5q43 0 74.5 -30.5t31.5 -73.5 q0 -45 -30.5 -77t-73.5 -32q-45 0 -77 32t-32 77z" />
<glyph unicode="&#xec;" horiz-adv-x="534" d="M-39 1362l88 158l424 -267l-53 -96zM184 0v1016l166 26v-1042h-166z" />
<glyph unicode="&#xed;" horiz-adv-x="534" d="M63 1253l424 267l88 -158l-458 -205zM184 0v1016l166 26v-1042h-166z" />
<glyph unicode="&#xee;" horiz-adv-x="534" d="M-80 1239l348 277l350 -277l-73 -90l-285 174l-276 -174zM184 0v1016l166 26v-1042h-166z" />
<glyph unicode="&#xef;" horiz-adv-x="534" d="M-27 1272q0 43 31 73.5t74 30.5q45 0 75.5 -30.5t30.5 -73.5q0 -45 -29.5 -77t-74.5 -32t-76 32t-31 77zM184 0v1016l166 26v-1042h-166zM352 1272q0 43 31 73.5t76 30.5q43 0 74.5 -30.5t31.5 -73.5q0 -45 -30.5 -77t-73.5 -32q-45 0 -77 32t-32 77z" />
<glyph unicode="&#xf0;" horiz-adv-x="1130" d="M123 471q0 94 30.5 182t86 153.5t133.5 105.5t172 40q76 0 132 -13t97 -32q-35 98 -98.5 180t-161.5 148l-106 -121l-105 74l100 112q-109 57 -256 99l82 98q147 -37 265 -92l88 102l104 -73l-80 -91q211 -133 306.5 -336t95.5 -475q0 -133 -36 -237.5t-96.5 -176 t-142.5 -109.5t-174 -38t-172 42t-138.5 111t-92 159t-33.5 188zM301 467q0 -74 19.5 -139.5t55.5 -114.5t85 -79t110 -30q133 0 198 108.5t65 301.5q0 25 -4.5 63.5t-8.5 76.5t-8 69t-6 37q-45 29 -113.5 48t-140.5 19q-59 0 -105.5 -28.5t-79 -77.5t-50 -114.5 t-17.5 -139.5z" />
<glyph unicode="&#xf1;" horiz-adv-x="1118" d="M145 1001l156 43q2 -2 10 -22.5t17.5 -58t9.5 -78.5q158 158 321 157q84 0 152 -40.5t98 -108.5q25 -55 25 -119v-774h-162v690q0 41 -2 67.5t-6 45t-11.5 32t-17.5 25.5q-37 43 -112 43q-31 0 -69 -11t-76 -30.5t-74.5 -46.5t-63.5 -55v-760h-156v786q0 111 -20 163z M195 1303q51 63 103 96t142 33q47 0 77 -12.5t55.5 -26t54 -25.5t73.5 -12q49 0 80 22.5t64 57.5l57 -93q-51 -63 -104.5 -96t-143.5 -33q-47 0 -76.5 12.5t-55 26t-54.5 25.5t-74 12q-49 0 -78.5 -22.5t-62.5 -57.5z" />
<glyph unicode="&#xf2;" horiz-adv-x="1103" d="M113 516q0 250 115.5 392.5t318.5 142.5q129 0 213 -51.5t137 -127.5q47 -70 70.5 -161.5t23.5 -216.5q0 -127 -32.5 -224.5t-91 -163t-138.5 -99.5t-176 -34q-211 0 -325.5 145.5t-114.5 397.5zM256 1362l88 158l424 -267l-53 -96zM287 543q0 -109 17.5 -198t46 -136 t85 -75t121.5 -28q80 0 137.5 40t83.5 114q16 47 23.5 96t7.5 125q0 211 -47 307q-33 68 -93.5 100t-123.5 32q-68 0 -125.5 -30t-83.5 -81q-25 -47 -37 -110.5t-12 -155.5z" />
<glyph unicode="&#xf3;" horiz-adv-x="1103" d="M113 516q0 250 115.5 392.5t318.5 142.5q129 0 213 -51.5t137 -127.5q47 -70 70.5 -161.5t23.5 -216.5q0 -127 -32.5 -224.5t-91 -163t-138.5 -99.5t-176 -34q-211 0 -325.5 145.5t-114.5 397.5zM287 543q0 -109 17.5 -198t46 -136t85 -75t121.5 -28q80 0 137.5 40 t83.5 114q16 47 23.5 96t7.5 125q0 211 -47 307q-33 68 -93.5 100t-123.5 32q-68 0 -125.5 -30t-83.5 -81q-25 -47 -37 -110.5t-12 -155.5zM346 1253l424 267l88 -158l-459 -205z" />
<glyph unicode="&#xf4;" horiz-adv-x="1103" d="M113 516q0 250 115.5 392.5t318.5 142.5q129 0 213 -51.5t137 -127.5q47 -70 70.5 -161.5t23.5 -216.5q0 -127 -32.5 -224.5t-91 -163t-138.5 -99.5t-176 -34q-211 0 -325.5 145.5t-114.5 397.5zM205 1239l348 277l350 -277l-74 -90l-284 174l-277 -174zM287 543 q0 -109 17.5 -198t46 -136t85 -75t121.5 -28q80 0 137.5 40t83.5 114q16 47 23.5 96t7.5 125q0 211 -47 307q-33 68 -93.5 100t-123.5 32q-68 0 -125.5 -30t-83.5 -81q-25 -47 -37 -110.5t-12 -155.5z" />
<glyph unicode="&#xf5;" horiz-adv-x="1103" d="M113 516q0 250 115.5 392.5t318.5 142.5q129 0 213 -51.5t137 -127.5q47 -70 70.5 -161.5t23.5 -216.5q0 -127 -32.5 -224.5t-91 -163t-138.5 -99.5t-176 -34q-211 0 -325.5 145.5t-114.5 397.5zM205 1303q51 63 103 96t143 33q47 0 76.5 -12.5t55 -26t54.5 -25.5t74 -12 q49 0 79.5 22.5t63.5 57.5l57 -93q-51 -63 -104 -96t-143 -33q-47 0 -77 12.5t-55.5 26t-54 25.5t-74.5 12q-49 0 -78.5 -22.5t-62.5 -57.5zM287 543q0 -109 17.5 -198t46 -136t85 -75t121.5 -28q80 0 137.5 40t83.5 114q16 47 23.5 96t7.5 125q0 211 -47 307 q-33 68 -93.5 100t-123.5 32q-68 0 -125.5 -30t-83.5 -81q-25 -47 -37 -110.5t-12 -155.5z" />
<glyph unicode="&#xf6;" horiz-adv-x="1103" d="M113 516q0 250 115.5 392.5t318.5 142.5q129 0 213 -51.5t137 -127.5q47 -70 70.5 -161.5t23.5 -216.5q0 -127 -32.5 -224.5t-91 -163t-138.5 -99.5t-176 -34q-211 0 -325.5 145.5t-114.5 397.5zM229 1272q0 43 31 73.5t74 30.5q45 0 75.5 -30.5t30.5 -73.5 q0 -45 -29.5 -77t-74.5 -32t-76 32t-31 77zM287 543q0 -109 17.5 -198t46 -136t85 -75t121.5 -28q80 0 137.5 40t83.5 114q16 47 23.5 96t7.5 125q0 211 -47 307q-33 68 -93.5 100t-123.5 32q-68 0 -125.5 -30t-83.5 -81q-25 -47 -37 -110.5t-12 -155.5zM653 1272 q0 43 31 73.5t76 30.5q43 0 74.5 -30.5t31.5 -73.5q0 -45 -30.5 -77t-73.5 -32q-45 0 -77 32t-32 77z" />
<glyph unicode="&#xf7;" horiz-adv-x="1228" d="M102 481v133h1024v-133h-1024zM481 113q0 59 40 99t100 40q55 0 95 -40t40 -97q0 -59 -40 -99.5t-100 -40.5q-57 0 -96 40t-39 98zM481 963q0 59 40 100t100 41q55 0 95 -40t40 -97q0 -59 -40 -99.5t-98 -40.5q-57 0 -97 39t-40 97z" />
<glyph unicode="&#xf8;" horiz-adv-x="1103" d="M113 508q0 250 115.5 392t318.5 142q66 0 120 -14t99 -41l102 170l101 -61l-111 -183q70 -80 101.5 -180.5t31.5 -247.5q0 -150 -36.5 -249t-123.5 -173q-59 -53 -125.5 -75.5t-152.5 -22.5q-133 0 -227 62l-99 -162l-98 61l107 178q-59 70 -91 172.5t-32 231.5zM287 535 q0 -84 10 -156t29 -125l366 610q-33 25 -70.5 36t-76.5 11q-68 0 -125.5 -29.5t-83.5 -80.5q-25 -47 -37 -110.5t-12 -155.5zM399 150q31 -23 72 -37.5t86 -14.5q80 0 137.5 40t83.5 114q16 47 23.5 96t7.5 125q0 195 -41 289z" />
<glyph unicode="&#xf9;" horiz-adv-x="1120" d="M174 262v750l158 30v-733q0 -72 13 -109.5t48 -62.5q25 -16 57.5 -25.5t67.5 -9.5q76 0 147.5 50.5t112.5 134.5v723l158 26v-743q0 -96 15.5 -144.5t54.5 -82.5l-103 -109q-51 41 -75.5 77t-34.5 87q-117 -156 -324 -156q-98 0 -167 39t-101 107q-14 29 -20.5 67.5 t-6.5 83.5zM291 1362l88 158l424 -267l-53 -96z" />
<glyph unicode="&#xfa;" horiz-adv-x="1120" d="M174 262v750l158 30v-733q0 -72 13 -109.5t48 -62.5q25 -16 57.5 -25.5t67.5 -9.5q76 0 147.5 50.5t112.5 134.5v723l158 26v-743q0 -96 15.5 -144.5t54.5 -82.5l-103 -109q-51 41 -75.5 77t-34.5 87q-117 -156 -324 -156q-98 0 -167 39t-101 107q-14 29 -20.5 67.5 t-6.5 83.5zM393 1253l424 267l88 -158l-459 -205z" />
<glyph unicode="&#xfb;" horiz-adv-x="1120" d="M174 262v750l158 30v-733q0 -72 13 -109.5t48 -62.5q25 -16 57.5 -25.5t67.5 -9.5q76 0 147.5 50.5t112.5 134.5v723l158 26v-743q0 -96 15.5 -144.5t54.5 -82.5l-103 -109q-51 41 -75.5 77t-34.5 87q-117 -156 -324 -156q-98 0 -167 39t-101 107q-14 29 -20.5 67.5 t-6.5 83.5zM209 1239l348 277l350 -277l-73 -90l-285 174l-277 -174z" />
<glyph unicode="&#xfc;" horiz-adv-x="1120" d="M174 262v750l158 30v-733q0 -72 13 -109.5t48 -62.5q25 -16 57.5 -25.5t67.5 -9.5q76 0 147.5 50.5t112.5 134.5v723l158 26v-743q0 -96 15.5 -144.5t54.5 -82.5l-103 -109q-51 41 -75.5 77t-34.5 87q-117 -156 -324 -156q-98 0 -167 39t-101 107q-14 29 -20.5 67.5 t-6.5 83.5zM238 1272q0 43 30.5 73.5t73.5 30.5q45 0 76 -30.5t31 -73.5q0 -45 -30 -77t-75 -32t-75.5 32t-30.5 77zM659 1272q0 43 31 73.5t76 30.5q43 0 74.5 -30.5t31.5 -73.5q0 -45 -30.5 -77t-73.5 -32q-45 0 -77 32t-32 77z" />
<glyph unicode="&#xfd;" horiz-adv-x="919" d="M20 997l158 54l209 -662q12 -37 22.5 -81t19.5 -82t15 -64l5 -27h4q2 4 11 37t24.5 85t27.5 93l201 670h182l-350 -1057q-25 -78 -54.5 -140.5t-68.5 -111.5t-89 -81.5t-118 -49.5l-47 109q49 14 84 36.5t61.5 57.5t48 88t42.5 131l-66 -10q-4 25 -16.5 71t-26.5 99 t-30.5 105t-28.5 91zM326 1247l424 266l88 -157l-459 -205z" />
<glyph unicode="&#xfe;" horiz-adv-x="1140" d="M154 1466l159 31q12 -53 19.5 -113.5t7.5 -119.5v-205q0 -61 -4 -97t-4 -63q63 74 139 107.5t162 33.5q78 0 150.5 -32.5t121.5 -94.5q57 -72 85 -168t28 -233q0 -123 -23.5 -201t-66.5 -147q-55 -90 -135 -138.5t-181 -48.5q-162 0 -272 115v-487l-160 -31v1675 q0 125 -26 217zM340 240q113 -129 242 -129q72 0 130 34.5t85 92.5q23 49 37 108.5t14 145.5q0 92 -12.5 168.5t-34.5 123.5q-25 53 -76 83t-113 30q-78 0 -145.5 -31.5t-126.5 -103.5v-522z" />
<glyph unicode="&#xff;" horiz-adv-x="919" d="M20 997l158 54l209 -662q12 -37 22.5 -81t19.5 -82t15 -64l5 -27h4q2 4 11 37t24.5 85t27.5 93l201 670h182l-350 -1057q-25 -78 -54.5 -140.5t-68.5 -111.5t-89 -81.5t-118 -49.5l-47 109q49 14 84 36.5t61.5 57.5t48 88t42.5 131l-66 -10q-4 25 -16.5 71t-26.5 99 t-30.5 105t-28.5 91zM145 1272q0 43 31 73.5t74 30.5q45 0 75.5 -30.5t30.5 -73.5q0 -45 -29.5 -77t-74.5 -32t-76 32t-31 77zM567 1272q0 43 31 73.5t76 30.5q43 0 74.5 -30.5t31.5 -73.5q0 -45 -30.5 -77t-73.5 -32q-45 0 -77 32t-32 77z" />
<glyph unicode="&#x152;" horiz-adv-x="1783" d="M123 700q0 186 44 316.5t116 208.5q41 45 85 79.5t96 56t115.5 33t145.5 11.5h967l-23 -141h-575v-459h481v-146h-481v-514h618v-145h-901q-80 0 -141.5 3t-112.5 13.5t-98 32t-99 57.5q-121 86 -179 237t-58 357zM305 721q0 -160 24.5 -267.5t96.5 -191.5 q109 -127 264 -127h49q31 0 63 2t64.5 4t57.5 6v1098q-47 6 -93.5 10.5t-87.5 4.5q-123 0 -206.5 -30t-137.5 -116q-49 -80 -71.5 -181.5t-22.5 -211.5z" />
<glyph unicode="&#x153;" horiz-adv-x="1718" d="M113 508q0 250 115.5 392t318.5 142q125 0 209 -49t135 -125q123 180 332 181q84 0 153.5 -30t122.5 -83q33 -35 55.5 -72t36 -86t19.5 -114.5t6 -157.5v-23h-637v-24q0 -72 10 -127.5t37 -95.5q43 -66 109.5 -95.5t144.5 -29.5q145 0 250 96l61 -103q-68 -61 -156.5 -94 t-187.5 -33q-115 0 -208 46.5t-134 119.5q-72 -92 -153.5 -135t-198.5 -43q-102 0 -184 38t-138.5 107.5t-87 170t-30.5 227.5zM287 535q0 -109 17.5 -198t46 -136t85 -75t121.5 -28q80 0 137.5 40t83.5 114q16 47 23.5 96t7.5 125q0 211 -47 307q-33 68 -93.5 99.5 t-123.5 31.5q-68 0 -125.5 -29.5t-83.5 -80.5q-25 -47 -37 -110.5t-12 -155.5zM979 604h467q-2 84 -13.5 137.5t-33.5 89.5q-27 41 -76 66t-109 25q-223 0 -235 -318z" />
<glyph unicode="&#x178;" horiz-adv-x="1042" d="M-20 1405h206l267 -537q18 -39 35.5 -76.5t25.5 -58t10 -22.5l22 48q23 48 54 109l270 537h193l-457 -858v-547h-174v557zM203 1599q0 43 30.5 74t73.5 31q45 0 76 -31t31 -74q0 -45 -30 -76.5t-75 -31.5t-75.5 31.5t-30.5 76.5zM625 1599q0 43 30.5 74t75.5 31 q43 0 75 -31t32 -74q0 -45 -31 -76.5t-74 -31.5q-45 0 -76.5 31.5t-31.5 76.5z" />
<glyph unicode="&#x2c6;" horiz-adv-x="821" d="M61 1239l349 277l350 -277l-74 -90l-285 174l-276 -174z" />
<glyph unicode="&#x2dc;" horiz-adv-x="788" d="M41 1303q51 63 103.5 96t142.5 33q47 0 76.5 -12.5t55 -26t54.5 -25.5t74 -12q49 0 79.5 22.5t63.5 57.5l58 -93q-51 -63 -104.5 -96t-143.5 -33q-47 0 -77 12.5t-55.5 26t-54 25.5t-73.5 12q-49 0 -79 -22.5t-63 -57.5z" />
<glyph unicode="&#x2000;" horiz-adv-x="947" />
<glyph unicode="&#x2001;" horiz-adv-x="1894" />
<glyph unicode="&#x2002;" horiz-adv-x="947" />
<glyph unicode="&#x2003;" horiz-adv-x="1894" />
<glyph unicode="&#x2004;" horiz-adv-x="631" />
<glyph unicode="&#x2005;" horiz-adv-x="473" />
<glyph unicode="&#x2006;" horiz-adv-x="315" />
<glyph unicode="&#x2007;" horiz-adv-x="315" />
<glyph unicode="&#x2008;" horiz-adv-x="236" />
<glyph unicode="&#x2009;" horiz-adv-x="378" />
<glyph unicode="&#x200a;" horiz-adv-x="105" />
<glyph unicode="&#x2010;" horiz-adv-x="595" d="M102 469v156h392v-156h-392z" />
<glyph unicode="&#x2011;" horiz-adv-x="595" d="M102 469v156h392v-156h-392z" />
<glyph unicode="&#x2012;" horiz-adv-x="595" d="M102 469v156h392v-156h-392z" />
<glyph unicode="&#x2013;" horiz-adv-x="1198" d="M102 512v121h994v-121h-994z" />
<glyph unicode="&#x2014;" horiz-adv-x="1662" d="M102 512v121h1459v-121h-1459z" />
<glyph unicode="&#x2018;" horiz-adv-x="532" d="M123 1104q0 53 20.5 107.5t57.5 103.5q31 41 78 78t94 63l57 -90q-121 -59 -137 -182q10 2 22 2q47 0 80 -39t33 -92q0 -61 -42 -104.5t-101 -43.5q-72 0 -117 55.5t-45 141.5z" />
<glyph unicode="&#x2019;" horiz-adv-x="532" d="M102 971q121 59 138 182q-10 -2 -23 -2q-47 0 -80 39t-33 92q0 61 42 104.5t102 43.5q72 0 117 -55.5t45 -141.5q0 -53 -20.5 -107.5t-57.5 -103.5q-31 -41 -78 -78t-94 -63z" />
<glyph unicode="&#x201a;" horiz-adv-x="532" d="M102 -203q121 59 138 183q-10 -2 -23 -3q-47 0 -80 39t-33 93q0 61 42 104t102 43q72 0 117 -55.5t45 -141.5q0 -53 -20.5 -107t-57.5 -104q-31 -41 -78 -77.5t-94 -63.5z" />
<glyph unicode="&#x201c;" horiz-adv-x="935" d="M123 1104q0 53 20.5 107.5t57.5 103.5q31 41 78 78t94 63l57 -90q-121 -59 -137 -182q10 2 22 2q47 0 80 -39t33 -92q0 -61 -42 -104.5t-101 -43.5q-72 0 -117 55.5t-45 141.5zM526 1104q0 53 20.5 107.5t57.5 103.5q31 41 78 78t94 63l58 -90q-121 -59 -138 -182 q10 2 23 2q47 0 79.5 -39t32.5 -92q0 -61 -41.5 -104.5t-101.5 -43.5q-72 0 -117 55.5t-45 141.5z" />
<glyph unicode="&#x201d;" horiz-adv-x="935" d="M102 971q121 59 138 182q-10 -2 -23 -2q-47 0 -80 39t-33 92q0 61 42 104.5t102 43.5q72 0 117 -55.5t45 -141.5q0 -53 -20.5 -107.5t-57.5 -103.5q-31 -41 -78 -78t-94 -63zM506 971q121 59 137 182q-10 -2 -22 -2q-47 0 -80 39t-33 92q0 61 42 104.5t101 43.5 q72 0 117 -55.5t45 -141.5q0 -53 -20.5 -107.5t-57.5 -103.5q-31 -41 -78 -78t-94 -63z" />
<glyph unicode="&#x201e;" horiz-adv-x="937" d="M102 -203q121 59 138 183q-10 -2 -23 -3q-47 0 -80 39t-33 93q0 61 42 104t102 43q72 0 117 -55.5t45 -141.5q0 -53 -20.5 -107t-57.5 -104q-31 -41 -78 -77.5t-94 -63.5zM508 -203q121 59 137 183q-10 -2 -22 -3q-47 0 -80 39t-33 93q0 61 42 104t101 43q72 0 117 -55.5 t45 -141.5q0 -53 -20.5 -107t-57.5 -104q-31 -41 -78 -77.5t-94 -63.5z" />
<glyph unicode="&#x2022;" horiz-adv-x="1052" d="M164 725q0 76 28.5 141.5t77.5 114.5t115 77.5t141 28.5q76 0 141.5 -28.5t114.5 -77.5t78 -114.5t29 -141.5t-29 -141.5t-78 -114.5t-114.5 -78t-141.5 -29t-141.5 29t-114.5 78t-77.5 114.5t-28.5 141.5z" />
<glyph unicode="&#x2026;" horiz-adv-x="1503" d="M143 115q0 57 39 96t97 39q59 0 99 -39t40 -96q0 -59 -40 -100.5t-95 -41.5q-59 0 -99.5 41t-40.5 101zM614 115q0 57 39 96t97 39q59 0 99 -39t40 -96q0 -59 -40 -100.5t-95 -41.5q-59 0 -99.5 41t-40.5 101zM1085 115q0 57 39 96t97 39q59 0 99 -39t40 -96 q0 -59 -40 -100.5t-95 -41.5q-59 0 -99.5 41t-40.5 101z" />
<glyph unicode="&#x202f;" horiz-adv-x="378" />
<glyph unicode="&#x2039;" horiz-adv-x="630" d="M123 492l293 438l112 -74l-239 -364l239 -365l-112 -74z" />
<glyph unicode="&#x203a;" horiz-adv-x="630" d="M102 127l240 365l-240 364l113 74l293 -438l-293 -439z" />
<glyph unicode="&#x205f;" horiz-adv-x="473" />
<glyph unicode="&#x20ac;" horiz-adv-x="1316" d="M102 479v121h209q-2 25 -3 49.5t-1 48.5v33q0 16 2 33h-207v121h224q23 119 75 218t126.5 171t167.5 110.5t202 38.5q102 0 182 -25.5t111 -49.5l-29 -148q-63 47 -125.5 67.5t-140.5 20.5q-123 0 -209 -61.5t-137 -179.5q-29 -68 -45 -162h551v-121h-563q-2 -23 -3 -45 v-45q0 -20 1.5 -39t1.5 -35h563v-121h-551q8 -51 31 -102q53 -133 154.5 -197.5t221.5 -64.5q78 0 142.5 21.5t132.5 68.5l28 -150q-59 -33 -142 -55.5t-187 -22.5q-115 0 -221.5 47.5t-188.5 139.5q-57 66 -93 144.5t-54 170.5h-226z" />
<glyph unicode="&#x2122;" horiz-adv-x="2011" d="M61 1270v135h668v-135h-266v-709h-135v709h-267zM899 561v844h215l252 -641l252 641h209v-844h-135v709h-4l-279 -709h-92l-279 709h-4v-709h-135z" />
<glyph unicode="&#x25fc;" horiz-adv-x="1024" d="M0 0v1024h1024v-1024h-1024z" />
<glyph unicode="&#xfb01;" horiz-adv-x="1134" d="M86 899v121h98v160q0 57 11.5 98t29 70.5t37 49t35.5 32.5q72 53 180 53q135 0 225 -60l-59 -112q-29 16 -70 31.5t-81 15.5q-139 0 -140 -180v-158h602v-1020h-170v899h-432v-899h-168v899h-98zM745 1331q0 53 36 90t89 37t89 -36t36 -89t-35.5 -89t-89.5 -36 q-53 0 -89 36t-36 87z" />
<glyph unicode="&#xfb02;" horiz-adv-x="1118" d="M86 899v121h98v160q0 57 11.5 98t29 70.5t37 49t35.5 32.5q72 53 180 53q135 0 225 -60l-59 -112q-29 16 -70 31.5t-81 15.5q-139 0 -140 -180v-158h283l-49 -121h-234v-899h-168v899h-98zM743 1466l166 33q6 -16 15.5 -98t9.5 -227v-969q0 -59 11 -81t46 -22q4 0 13 2 l8 2l32 -104q-31 -14 -50 -18t-52 -4q-76 0 -121 43q-29 25 -39 57.5t-10 87.5v1006q0 57 -1 99t-4 74.5t-9 60.5t-15 58z" />
</font>
</defs>
</svg>
